<svg width="1920" height="386" viewBox="0 0 1920 386" fill="none" xmlns="http://www.w3.org/2000/svg">
<rect x="-105.371" y="195.578" width="2072.73" height="160.92" transform="rotate(-5 -105.371 195.578)" fill="#180706"/>
<path d="M-258.415 330.892L-257.667 248.012L-229.789 245.573L-214.8 327.076L-230.35 328.437L-232.678 315.277L-242.577 316.143L-242.444 329.495L-258.415 330.892ZM-242.558 302.919L-235.086 302.266L-242.338 260.787L-243.086 260.852L-242.558 302.919ZM-208.8 326.551L-215.991 244.365L-190.775 242.159C-186.572 241.792 -183.312 242.479 -180.995 244.221C-178.681 245.932 -177.015 248.484 -175.996 251.877C-174.95 255.236 -174.223 259.235 -173.817 263.873C-173.425 268.356 -173.688 271.987 -174.606 274.765C-175.492 277.54 -177.463 279.579 -180.517 280.881C-177.887 281.184 -175.968 282.318 -174.761 284.283C-173.525 286.214 -172.766 288.798 -172.483 292.036L-169.762 323.136L-185.966 324.554L-188.781 292.38C-188.99 289.983 -189.618 288.547 -190.663 288.074C-191.68 287.567 -193.278 287.409 -195.457 287.6L-192.176 325.097L-208.8 326.551ZM-196.61 273.349L-192.64 273.002C-190.368 272.803 -189.448 270.229 -189.881 265.279C-190.162 262.072 -190.595 259.993 -191.18 259.04C-191.765 258.087 -192.743 257.671 -194.112 257.791L-197.941 258.126L-196.61 273.349ZM-162.268 322.48L-169.458 240.294L-147.184 238.346C-141.207 237.823 -136.736 238.906 -133.772 241.595C-130.779 244.251 -128.99 248.925 -128.404 255.618L-128.09 259.214C-127.752 263.074 -128.179 266.264 -129.37 268.784C-130.53 271.301 -132.494 273.057 -135.261 274.052C-131.475 274.661 -128.808 276.64 -127.26 279.986C-125.684 283.299 -124.68 287.43 -124.247 292.38C-123.781 297.704 -123.872 302.401 -124.52 306.473C-125.167 310.545 -126.702 313.801 -129.123 316.24C-131.545 318.679 -135.168 320.109 -139.994 320.532L-162.268 322.48ZM-150.686 269.849L-147.324 269.555C-145.799 269.421 -144.87 268.744 -144.537 267.523C-144.205 266.302 -144.111 264.866 -144.255 263.216L-144.979 254.951C-145.21 252.305 -146.493 251.084 -148.828 251.288L-152.284 251.59L-150.686 269.849ZM-145.837 306.456C-141.572 306.083 -139.616 303.873 -139.97 299.826L-140.869 289.553C-141.073 287.218 -141.592 285.412 -142.425 284.136C-143.23 282.826 -144.597 282.256 -146.527 282.425L-149.563 282.69L-147.479 306.506C-146.789 306.508 -146.241 306.491 -145.837 306.456ZM-116.296 318.458L-123.487 236.272L-107.61 234.883L-100.419 317.069L-116.296 318.458ZM-85.8743 315.797L-91.6838 249.394L-101.443 250.248L-102.824 234.465L-66.8678 231.319L-65.487 247.102L-75.2465 247.956L-69.4371 314.359L-85.8743 315.797ZM-34.5603 312.06C-42.0629 312.717 -47.6431 311.323 -51.301 307.878C-54.9277 304.431 -57.0979 298.63 -57.8115 290.473L-58.5141 282.442L-42.2637 281.02L-41.3649 291.293C-41.1988 293.192 -40.7879 294.662 -40.1322 295.702C-39.4481 296.709 -38.39 297.15 -36.958 297.025C-35.4637 296.894 -34.4745 296.368 -33.9904 295.447C-33.4752 294.524 -33.3047 293.066 -33.479 291.074C-33.6996 288.552 -34.1325 286.472 -34.7777 284.835C-35.4256 283.166 -36.4389 281.624 -37.8176 280.207C-39.1679 278.757 -41.0225 277.1 -43.3815 275.236L-51.3723 268.877C-57.3374 264.16 -60.6127 258.455 -61.1983 251.762C-61.8111 244.757 -60.6594 239.277 -57.7431 235.32C-54.7957 231.361 -50.2401 229.111 -44.0761 228.572C-36.5424 227.913 -31.0277 229.454 -27.5322 233.194C-24.0054 236.933 -21.8839 242.895 -21.1676 251.083L-37.885 252.545L-38.3793 246.895C-38.4774 245.774 -38.8805 244.931 -39.5888 244.366C-40.2659 243.798 -41.1492 243.561 -42.2388 243.657C-43.5463 243.771 -44.4787 244.229 -45.0359 245.031C-45.5648 245.798 -45.7788 246.758 -45.678 247.91C-45.5773 249.062 -45.157 250.28 -44.4173 251.564C-43.6775 252.848 -42.313 254.282 -40.3238 255.864L-30.0477 264.141C-27.9907 265.78 -26.0799 267.542 -24.3152 269.427C-22.5532 271.28 -21.0725 273.504 -19.8732 276.096C-18.6767 278.658 -17.9109 281.854 -17.5759 285.683C-16.9004 293.403 -17.8027 299.584 -20.2827 304.224C-22.7344 308.83 -27.4935 311.442 -34.5603 312.06ZM25.8793 287.057C21.2407 287.463 17.5184 286.33 14.7124 283.658C11.9036 280.955 10.2936 277.253 9.88233 272.552C9.46834 267.82 10.4111 263.895 12.7105 260.776C15.01 257.658 18.479 255.896 23.1175 255.49C27.756 255.084 31.4783 256.217 34.2844 258.889C37.1215 261.558 38.7471 265.259 39.1611 269.991C39.5724 274.691 38.6141 278.618 36.2862 281.77C33.9868 284.889 30.5178 286.651 25.8793 287.057ZM72.3993 301.95L65.2089 219.764L90.4251 217.557C94.6278 217.19 97.8876 217.877 100.205 219.619C102.519 221.33 104.185 223.882 105.203 227.275C106.25 230.634 106.976 234.633 107.382 239.272C107.774 243.754 107.512 247.385 106.594 250.163C105.708 252.938 103.737 254.977 100.683 256.28C103.313 256.583 105.232 257.717 106.439 259.681C107.674 261.612 108.434 264.197 108.717 267.434L111.438 298.534L95.2339 299.952L92.4191 267.778C92.2094 265.381 91.5819 263.946 90.5367 263.472C89.5199 262.965 87.9219 262.807 85.7427 262.998L89.0233 300.495L72.3993 301.95ZM84.59 248.747L88.5592 248.4C90.8318 248.201 91.7516 245.627 91.3185 240.677C91.038 237.47 90.6051 235.391 90.0198 234.438C89.4346 233.486 88.4571 233.069 87.0873 233.189L83.2582 233.524L84.59 248.747ZM138.609 296.91C132.041 297.485 126.84 295.948 123.008 292.299C119.203 288.617 116.973 283.024 116.317 275.521L112.901 236.483C112.286 229.447 113.531 223.959 116.637 220.017C119.774 216.072 124.657 213.81 131.288 213.23C137.919 212.649 143.106 214.031 146.849 217.373C150.624 220.713 152.818 225.901 153.434 232.937L156.849 271.975C157.506 279.478 156.265 285.374 153.127 289.664C150.017 293.92 145.178 296.335 138.609 296.91ZM137.426 281.768C139.916 281.55 140.951 279.028 140.528 274.203L137.019 234.091C136.665 230.044 135.274 228.126 132.846 228.339C130.106 228.578 128.917 230.769 129.28 234.909L132.785 274.975C133.008 277.527 133.48 279.337 134.201 280.403C134.919 281.438 135.994 281.893 137.426 281.768ZM185.609 292.798C179.663 293.318 174.706 291.885 170.74 288.499C166.805 285.111 164.546 280.085 163.963 273.423L160.645 235.506C159.948 227.536 160.986 221.297 163.76 216.788C166.565 212.276 171.532 209.709 178.661 209.085C182.553 208.744 186.071 209.158 189.216 210.326C192.392 211.491 194.977 213.429 196.971 216.141C198.962 218.821 200.147 222.325 200.525 226.652L201.767 240.848L185.424 242.278L184.361 230.137C184.146 227.678 183.691 226.055 182.994 225.269C182.296 224.452 181.292 224.1 179.985 224.215C178.459 224.348 177.481 224.998 177.05 226.165C176.616 227.301 176.479 228.788 176.64 230.624L180.239 271.764C180.438 274.037 180.905 275.611 181.641 276.488C182.407 277.362 183.413 277.745 184.659 277.636C186.059 277.513 186.99 276.851 187.449 275.65C187.94 274.447 188.105 272.927 187.944 271.09L186.649 256.287L203.18 254.841L204.54 270.391C205.172 277.613 203.81 283.018 200.454 286.606C197.095 290.162 192.146 292.226 185.609 292.798ZM212.743 289.671L205.553 207.485L221.803 206.063L224.683 238.984L229.461 205.393L245.992 203.947L240.086 242.389L255.097 285.966L238.053 287.457L225.606 248.456L229.087 288.241L212.743 289.671ZM265.953 285.016L260.144 218.613L250.384 219.467L249.003 203.684L284.959 200.538L286.34 216.321L276.581 217.175L282.39 283.578L265.953 285.016ZM294.227 282.542L294.975 199.662L322.853 197.223L337.842 278.726L322.292 280.087L319.964 266.927L310.064 267.793L310.197 281.145L294.227 282.542ZM310.084 254.569L317.555 253.916L310.303 212.437L309.556 212.502L310.084 254.569ZM349.351 277.719L332.024 196.373L347.667 195.005L358.585 250.42L359.061 194.008L374.705 192.639L371.766 275.758L349.351 277.719ZM387.665 274.367L380.475 192.181L413.349 189.305L414.738 205.182L398.581 206.596L399.982 222.613L415.486 221.256L416.838 236.713L401.335 238.069L402.981 256.888L420.212 255.38L421.613 271.397L387.665 274.367ZM447.618 269.875C440.115 270.532 434.535 269.138 430.877 265.693C427.25 262.246 425.08 256.445 424.367 248.288L423.664 240.256L439.914 238.835L440.813 249.108C440.979 251.007 441.39 252.477 442.046 253.517C442.73 254.524 443.788 254.965 445.22 254.839C446.714 254.709 447.704 254.183 448.188 253.262C448.703 252.339 448.873 250.881 448.699 248.889C448.479 246.367 448.046 244.287 447.4 242.65C446.753 240.981 445.739 239.439 444.361 238.022C443.01 236.572 441.156 234.915 438.797 233.051L430.806 226.692C424.841 221.975 421.565 216.27 420.98 209.577C420.367 202.572 421.519 197.092 424.435 193.135C427.382 189.175 431.938 186.926 438.102 186.387C445.636 185.728 451.15 187.269 454.646 191.009C458.173 194.747 460.294 200.71 461.011 208.898L444.293 210.36L443.799 204.71C443.701 203.589 443.298 202.746 442.589 202.181C441.912 201.613 441.029 201.376 439.939 201.472C438.632 201.586 437.7 202.044 437.142 202.846C436.613 203.613 436.399 204.573 436.5 205.725C436.601 206.877 437.021 208.095 437.761 209.379C438.501 210.663 439.865 212.097 441.854 213.679L452.13 221.956C454.187 223.595 456.098 225.357 457.863 227.242C459.625 229.095 461.106 231.318 462.305 233.911C463.502 236.473 464.267 239.668 464.602 243.498C465.278 251.218 464.375 257.398 461.895 262.038C459.444 266.645 454.685 269.257 447.618 269.875ZM508.057 244.872C503.419 245.278 499.697 244.145 496.891 241.473C494.082 238.77 492.472 235.068 492.06 230.367C491.646 225.635 492.589 221.71 494.889 218.591C497.188 215.473 500.657 213.711 505.296 213.305C509.934 212.899 513.656 214.032 516.463 216.704C519.3 219.373 520.925 223.073 521.339 227.805C521.751 232.506 520.792 236.433 518.464 239.585C516.165 242.704 512.696 244.466 508.057 244.872ZM554.577 259.765L547.387 177.578L572.416 175.389L583.711 224.89L586.192 174.183L611.455 171.973L618.645 254.159L603.609 255.475L598.429 196.263L594.176 256.3L579.42 257.591L564.247 199.254L569.427 258.465L554.577 259.765ZM626.139 253.504L618.949 171.318L634.826 169.929L642.016 252.115L626.139 253.504ZM649.51 251.459L642.319 169.273L664.921 167.296C670.836 166.778 675.432 168.039 678.709 171.077C681.984 174.084 683.897 178.748 684.45 185.067L687.817 223.545C688.497 231.328 687.653 237.456 685.284 241.93C682.946 246.401 678.368 248.934 671.551 249.531L649.51 251.459ZM664.77 235.49L667.618 235.241C670.638 234.977 672.02 233.381 671.764 230.455L668.054 188.055C667.815 185.315 667.287 183.589 666.472 182.876C665.685 182.129 664.171 181.854 661.93 182.05L660.108 182.209L664.77 235.49ZM697.63 247.249L690.439 165.063L707.344 163.584L718.352 202.287L714.908 162.922L730.785 161.533L737.976 243.719L721.912 245.125L710.098 204.751L713.693 245.844L697.63 247.249ZM745.47 243.064L738.279 160.878L754.156 159.489L761.346 241.675L745.47 243.064ZM785.856 240.283C774.12 241.31 767.516 233.418 766.046 216.607L762.945 181.164C761.602 165.817 767.655 157.555 781.104 156.378C786.645 155.893 790.992 156.642 794.146 158.625C797.297 160.576 799.619 163.636 801.113 167.803C802.607 171.969 803.622 177.119 804.159 183.252L788.095 184.658L787.458 177.373C787.302 175.598 786.924 174.141 786.322 173.002C785.749 171.829 784.7 171.309 783.175 171.442C781.276 171.609 780.071 172.357 779.56 173.688C779.08 175.016 778.907 176.443 779.04 177.968L782.525 217.8C782.718 220.011 783.156 221.792 783.839 223.144C784.551 224.462 785.747 225.047 787.428 224.9C789.171 224.748 790.263 223.962 790.704 222.543C791.173 221.09 791.308 219.228 791.109 216.955L790.083 205.234L785.694 205.618L784.452 191.423L804.532 189.666L808.719 237.53L802.135 238.106L798.728 231.44C796.311 236.796 792.02 239.744 785.856 240.283ZM816.213 236.874L809.023 154.688L825.367 153.258L827.936 182.631L835.688 181.952L833.118 152.58L849.462 151.15L856.652 233.336L840.309 234.766L837.048 197.502L829.297 198.181L832.557 235.444L816.213 236.874ZM871.945 231.998L866.135 165.596L856.375 166.45L854.995 150.666L890.951 147.521L892.332 163.304L882.572 164.158L888.382 230.56L871.945 231.998ZM938.567 207.207C933.928 207.613 930.206 206.48 927.4 203.808C924.591 201.105 922.981 197.403 922.57 192.702C922.156 187.97 923.099 184.045 925.398 180.927C927.697 177.808 931.166 176.046 935.805 175.64C940.444 175.234 944.166 176.367 946.972 179.039C949.809 181.708 951.435 185.409 951.849 190.141C952.26 194.842 951.302 198.768 948.974 201.92C946.674 205.039 943.205 206.801 938.567 207.207ZM982.845 222.296L983.593 139.415L1011.47 136.976L1026.46 218.48L1010.91 219.841L1008.58 206.681L998.683 207.547L998.815 220.899L982.845 222.296ZM998.702 194.323L1006.17 193.669L998.921 152.191L998.174 152.256L998.702 194.323ZM1032.46 217.955L1025.27 135.769L1050.49 133.563C1054.69 133.195 1057.95 133.883 1060.26 135.625C1062.58 137.336 1064.25 139.888 1065.26 143.281C1066.31 146.64 1067.04 150.639 1067.44 155.277C1067.83 159.76 1067.57 163.39 1066.65 166.169C1065.77 168.944 1063.8 170.983 1060.74 172.285C1063.37 172.588 1065.29 173.722 1066.5 175.687C1067.73 177.618 1068.49 180.202 1068.78 183.44L1071.5 214.54L1055.29 215.957L1052.48 183.783C1052.27 181.386 1051.64 179.951 1050.6 179.478C1049.58 178.971 1047.98 178.813 1045.8 179.003L1049.08 216.501L1032.46 217.955ZM1044.65 164.753L1048.62 164.406C1050.89 164.207 1051.81 161.632 1051.38 156.683C1051.1 153.476 1050.67 151.396 1050.08 150.444C1049.49 149.491 1048.52 149.075 1047.15 149.195L1043.32 149.53L1044.65 164.753ZM1078.99 213.884L1071.8 131.698L1094.08 129.749C1100.05 129.226 1104.52 130.31 1107.49 132.999C1110.48 135.655 1112.27 140.329 1112.86 147.022L1113.17 150.618C1113.51 154.478 1113.08 157.668 1111.89 160.188C1110.73 162.705 1108.77 164.46 1106 165.455C1109.79 166.065 1112.45 168.044 1114 171.39C1115.58 174.703 1116.58 178.834 1117.01 183.784C1117.48 189.107 1117.39 193.805 1116.74 197.877C1116.09 201.949 1114.56 205.204 1112.14 207.644C1109.71 210.083 1106.09 211.513 1101.27 211.935L1078.99 213.884ZM1090.57 161.253L1093.94 160.958C1095.46 160.825 1096.39 160.148 1096.72 158.927C1097.05 157.706 1097.15 156.27 1097 154.62L1096.28 146.355C1096.05 143.709 1094.77 142.488 1092.43 142.692L1088.98 142.994L1090.57 161.253ZM1095.42 197.86C1099.69 197.487 1101.64 195.277 1101.29 191.23L1100.39 180.956C1100.19 178.622 1099.67 176.816 1098.83 175.54C1098.03 174.23 1096.66 173.66 1094.73 173.829L1091.7 174.094L1093.78 197.909C1094.47 197.912 1095.02 197.895 1095.42 197.86ZM1124.96 209.862L1117.77 127.676L1133.65 126.287L1140.84 208.473L1124.96 209.862ZM1155.39 207.201L1149.58 140.798L1139.82 141.652L1138.44 125.868L1174.39 122.723L1175.77 138.506L1166.01 139.36L1171.82 205.763L1155.39 207.201ZM1206.7 203.464C1199.2 204.12 1193.62 202.727 1189.96 199.282C1186.33 195.835 1184.16 190.034 1183.45 181.877L1182.75 173.845L1199 172.424L1199.89 182.697C1200.06 184.596 1200.47 186.066 1201.13 187.106C1201.81 188.113 1202.87 188.554 1204.3 188.428C1205.8 188.298 1206.79 187.772 1207.27 186.851C1207.78 185.928 1207.96 184.47 1207.78 182.477C1207.56 179.956 1207.13 177.876 1206.48 176.239C1205.83 174.57 1204.82 173.028 1203.44 171.611C1202.09 170.161 1200.24 168.504 1197.88 166.64L1189.89 160.281C1183.92 155.564 1180.65 149.859 1180.06 143.166C1179.45 136.161 1180.6 130.681 1183.52 126.724C1186.46 122.764 1191.02 120.515 1197.18 119.976C1204.72 119.317 1210.23 120.857 1213.73 124.598C1217.25 128.336 1219.38 134.299 1220.09 142.487L1203.37 143.949L1202.88 138.299C1202.78 137.178 1202.38 136.335 1201.67 135.77C1200.99 135.202 1200.11 134.965 1199.02 135.061C1197.71 135.175 1196.78 135.633 1196.22 136.435C1195.7 137.202 1195.48 138.162 1195.58 139.314C1195.68 140.466 1196.1 141.684 1196.84 142.968C1197.58 144.252 1198.95 145.686 1200.94 147.268L1211.21 155.545C1213.27 157.184 1215.18 158.946 1216.94 160.831C1218.71 162.684 1220.19 164.907 1221.39 167.5C1222.58 170.062 1223.35 173.257 1223.68 177.087C1224.36 184.807 1223.46 190.987 1220.98 195.627C1218.53 200.234 1213.77 202.846 1206.7 203.464ZM1267.14 178.461C1262.5 178.866 1258.78 177.733 1255.97 175.062C1253.16 172.359 1251.55 168.657 1251.14 163.956C1250.73 159.224 1251.67 155.299 1253.97 152.18C1256.27 149.062 1259.74 147.3 1264.38 146.894C1269.02 146.488 1272.74 147.621 1275.54 150.293C1278.38 152.962 1280.01 156.662 1280.42 161.394C1280.83 166.095 1279.87 170.022 1277.55 173.174C1275.25 176.293 1271.78 178.055 1267.14 178.461ZM1313.66 193.353L1306.47 111.167L1331.68 108.961C1335.89 108.594 1339.15 109.281 1341.46 111.023C1343.78 112.734 1345.44 115.286 1346.46 118.679C1347.51 122.038 1348.24 126.037 1348.64 130.675C1349.03 135.158 1348.77 138.789 1347.85 141.567C1346.97 144.342 1345 146.381 1341.94 147.683C1344.57 147.987 1346.49 149.121 1347.7 151.085C1348.93 153.016 1349.69 155.6 1349.98 158.838L1352.7 189.938L1336.49 191.356L1333.68 159.182C1333.47 156.785 1332.84 155.349 1331.8 154.876C1330.78 154.369 1329.18 154.211 1327 154.402L1330.28 191.899L1313.66 193.353ZM1325.85 140.151L1329.82 139.804C1332.09 139.605 1333.01 137.031 1332.58 132.081C1332.3 128.874 1331.86 126.795 1331.28 125.842C1330.69 124.889 1329.72 124.473 1328.35 124.593L1324.52 124.928L1325.85 140.151ZM1379.87 188.314C1373.3 188.888 1368.1 187.351 1364.27 183.703C1360.46 180.02 1358.23 174.428 1357.58 166.925L1354.16 127.887C1353.55 120.851 1354.79 115.362 1357.9 111.421C1361.03 107.476 1365.92 105.213 1372.55 104.633C1379.18 104.053 1384.37 105.435 1388.11 108.777C1391.88 112.117 1394.08 117.305 1394.69 124.341L1398.11 163.379C1398.77 170.882 1397.52 176.778 1394.39 181.068C1391.28 185.324 1386.44 187.739 1379.87 188.314ZM1378.69 173.172C1381.18 172.954 1382.21 170.432 1381.79 165.607L1378.28 125.495C1377.92 121.447 1376.53 119.53 1374.11 119.743C1371.37 119.982 1370.18 122.172 1370.54 126.313L1374.04 166.378C1374.27 168.931 1374.74 170.741 1375.46 171.807C1376.18 172.842 1377.25 173.297 1378.69 173.172ZM1426.87 184.202C1420.92 184.722 1415.97 183.289 1412 179.903C1408.06 176.515 1405.81 171.489 1405.22 164.827L1401.91 126.909C1401.21 118.94 1402.25 112.701 1405.02 108.192C1407.83 103.68 1412.79 101.112 1419.92 100.489C1423.81 100.148 1427.33 100.562 1430.48 101.73C1433.65 102.895 1436.24 104.833 1438.23 107.545C1440.22 110.225 1441.41 113.729 1441.79 118.056L1443.03 132.252L1426.68 133.682L1425.62 121.541C1425.41 119.081 1424.95 117.459 1424.25 116.673C1423.56 115.855 1422.55 115.504 1421.24 115.618C1419.72 115.752 1418.74 116.402 1418.31 117.569C1417.88 118.705 1417.74 120.191 1417.9 122.028L1421.5 163.168C1421.7 165.44 1422.17 167.015 1422.9 167.892C1423.67 168.766 1424.67 169.148 1425.92 169.039C1427.32 168.917 1428.25 168.255 1428.71 167.054C1429.2 165.851 1429.36 164.33 1429.2 162.494L1427.91 147.691L1444.44 146.245L1445.8 161.795C1446.43 169.017 1445.07 174.422 1441.71 178.009C1438.35 181.566 1433.41 183.63 1426.87 184.202ZM1454 181.075L1446.81 98.8889L1463.06 97.4672L1465.94 130.388L1470.72 96.7972L1487.25 95.3509L1481.35 133.793L1496.36 177.369L1479.31 178.861L1466.87 139.86L1470.35 179.645L1454 181.075ZM1507.21 176.42L1501.4 110.017L1491.64 110.871L1490.26 95.0875L1526.22 91.9417L1527.6 107.725L1517.84 108.579L1523.65 174.982L1507.21 176.42ZM1535.49 173.946L1536.23 91.0655L1564.11 88.6265L1579.1 170.13L1563.55 171.491L1561.22 158.331L1551.32 159.197L1551.46 172.549L1535.49 173.946ZM1551.34 145.973L1558.82 145.32L1551.56 103.841L1550.82 103.906L1551.34 145.973ZM1590.61 169.123L1573.28 87.7771L1588.93 86.4085L1599.85 141.824L1600.32 85.4116L1615.96 84.043L1613.03 167.162L1590.61 169.123ZM1628.92 165.771L1621.73 83.5852L1654.61 80.7091L1656 96.5859L1639.84 97.9995L1641.24 114.016L1656.75 112.66L1658.1 128.117L1642.59 129.473L1644.24 148.292L1661.47 146.784L1662.87 162.801L1628.92 165.771ZM1688.88 161.279C1681.38 161.935 1675.79 160.541 1672.14 157.097C1668.51 153.65 1666.34 147.848 1665.63 139.692L1664.92 131.66L1681.17 130.238L1682.07 140.512C1682.24 142.411 1682.65 143.881 1683.31 144.921C1683.99 145.928 1685.05 146.369 1686.48 146.243C1687.97 146.112 1688.96 145.587 1689.45 144.666C1689.96 143.743 1690.13 142.285 1689.96 140.292C1689.74 137.771 1689.31 135.691 1688.66 134.054C1688.01 132.385 1687 130.842 1685.62 129.426C1684.27 127.976 1682.42 126.319 1680.06 124.455L1672.07 118.096C1666.1 113.379 1662.83 107.674 1662.24 100.981C1661.63 93.976 1662.78 88.4954 1665.69 84.5387C1668.64 80.5793 1673.2 78.3299 1679.36 77.7906C1686.9 77.1315 1692.41 78.6724 1695.91 82.4132C1699.43 86.1513 1701.55 92.1141 1702.27 100.302L1685.55 101.764L1685.06 96.1138C1684.96 94.9931 1684.56 94.15 1683.85 93.5846C1683.17 93.0165 1682.29 92.7801 1681.2 92.8754C1679.89 92.9898 1678.96 93.4478 1678.4 94.2494C1677.87 95.0172 1677.66 95.977 1677.76 97.1288C1677.86 98.2807 1678.28 99.4987 1679.02 100.783C1679.76 102.067 1681.13 103.5 1683.11 105.083L1693.39 113.36C1695.45 114.999 1697.36 116.761 1699.12 118.646C1700.88 120.499 1702.37 122.722 1703.56 125.315C1704.76 127.877 1705.53 131.072 1705.86 134.901C1706.54 142.622 1705.64 148.802 1703.16 153.442C1700.7 158.048 1695.94 160.661 1688.88 161.279ZM1749.32 136.276C1744.68 136.681 1740.96 135.548 1738.15 132.876C1735.34 130.174 1733.73 126.472 1733.32 121.771C1732.91 117.039 1733.85 113.114 1736.15 109.995C1738.45 106.877 1741.92 105.114 1746.56 104.709C1751.19 104.303 1754.92 105.436 1757.72 108.108C1760.56 110.777 1762.19 114.477 1762.6 119.209C1763.01 123.91 1762.05 127.837 1759.72 130.989C1757.42 134.108 1753.96 135.87 1749.32 136.276ZM1795.84 151.168L1788.65 68.9823L1813.68 66.7925L1824.97 116.293L1827.45 65.5873L1852.71 63.3771L1859.9 145.563L1844.87 146.879L1839.69 87.6673L1835.44 147.704L1820.68 148.995L1805.51 90.6579L1810.69 149.869L1795.84 151.168ZM1867.4 144.908L1860.21 62.7214L1876.09 61.3324L1883.28 143.518L1867.4 144.908ZM1890.77 142.863L1883.58 60.6768L1906.18 58.6994C1912.1 58.1819 1916.69 59.4424 1919.97 62.4808C1923.24 65.4881 1925.16 70.1516 1925.71 76.4712L1929.08 114.949C1929.76 122.732 1928.91 128.86 1926.54 133.334C1924.21 137.804 1919.63 140.338 1912.81 140.935L1890.77 142.863ZM1906.03 126.894L1908.88 126.645C1911.9 126.381 1913.28 124.785 1913.02 121.859L1909.31 79.4584C1909.07 76.7189 1908.55 74.9927 1907.73 74.2798C1906.95 73.533 1905.43 73.2577 1903.19 73.4538L1901.37 73.6131L1906.03 126.894ZM1938.89 138.653L1931.7 56.4668L1948.6 54.9879L1959.61 93.6913L1956.17 54.3261L1972.05 52.937L1979.24 135.123L1963.17 136.528L1951.36 96.1545L1954.95 137.248L1938.89 138.653ZM1986.73 134.467L1979.54 52.2814L1995.42 50.8923L2002.61 133.078L1986.73 134.467ZM2027.12 131.687C2015.38 132.714 2008.78 124.822 2007.31 108.011L2004.2 72.5682C2002.86 57.2206 2008.91 48.9585 2022.36 47.7819C2027.9 47.2971 2032.25 48.046 2035.41 50.0287C2038.56 51.9803 2040.88 55.0395 2042.37 59.2064C2043.87 63.3733 2044.88 68.5232 2045.42 74.656L2029.35 76.0614L2028.72 68.7767C2028.56 67.0023 2028.18 65.5453 2027.58 64.4059C2027.01 63.2327 2025.96 62.7128 2024.43 62.8462C2022.54 63.0123 2021.33 63.7608 2020.82 65.0917C2020.34 66.4198 2020.17 67.8466 2020.3 69.372L2023.78 109.204C2023.98 111.415 2024.42 113.196 2025.1 114.548C2025.81 115.866 2027.01 116.451 2028.69 116.304C2030.43 116.151 2031.52 115.366 2031.96 113.947C2032.43 112.494 2032.57 110.632 2032.37 108.359L2031.34 96.6383L2026.95 97.0223L2025.71 82.8265L2045.79 81.0698L2049.98 128.934L2043.39 129.51L2039.99 122.844C2037.57 128.2 2033.28 131.148 2027.12 131.687ZM2057.47 128.278L2050.28 46.0921L2066.63 44.6622L2069.2 74.0344L2076.95 73.3562L2074.38 43.9841L2090.72 42.5542L2097.91 124.74L2081.57 126.17L2078.31 88.9062L2070.56 89.5844L2073.82 126.848L2057.47 128.278ZM2113.2 123.402L2107.4 56.9997L2097.64 57.8536L2096.25 42.0701L2132.21 38.9243L2133.59 54.7078L2123.83 55.5616L2129.64 121.964L2113.2 123.402Z" fill="#363636"/>
<rect x="5.12305" y="29.3945" width="2072.73" height="160.92" transform="rotate(5 5.12305 29.3945)" fill="#180706"/>
<path d="M-169.091 136.077L-153.963 54.5859L-126.085 57.0249L-125.477 139.893L-141.027 138.533L-141.034 125.169L-150.934 124.303L-153.121 137.475L-169.091 136.077ZM-148.618 111.283L-141.147 111.937L-141.086 69.8287L-141.833 69.7633L-148.618 111.283ZM-119.477 140.418L-112.287 58.2321L-87.0706 60.4382C-82.8679 60.8059 -79.777 62.0488 -77.7978 64.1668C-75.8159 66.2537 -74.6181 69.0563 -74.2044 72.5745C-73.7569 76.0643 -73.736 80.1284 -74.1418 84.767C-74.534 89.2498 -75.4232 92.7795 -76.8092 95.356C-78.1642 97.9353 -80.4587 99.601 -83.6928 100.353C-81.1553 101.109 -79.4627 102.558 -78.6151 104.703C-77.7337 106.819 -77.4346 109.496 -77.7179 112.734L-80.4388 143.834L-96.6425 142.416L-93.8276 110.242C-93.6179 107.845 -93.9867 106.323 -94.9338 105.675C-95.8471 104.999 -97.3934 104.566 -99.5726 104.375L-102.853 141.873L-119.477 140.418ZM-98.2331 90.1409L-94.2639 90.4881C-91.9913 90.6869 -90.6385 88.3114 -90.2055 83.3616C-89.9249 80.1551 -89.9901 78.0319 -90.4011 76.9922C-90.812 75.9524 -91.7024 75.3726 -93.0721 75.2528L-96.9013 74.9178L-98.2331 90.1409ZM-72.9449 144.489L-65.7545 62.3031L-43.4803 64.2519C-37.5031 64.7748 -33.2883 66.6179 -30.8359 69.7812C-28.3497 72.916 -27.3994 77.8301 -27.9849 84.5233L-28.2995 88.1189C-28.6372 91.9792 -29.6114 95.0465 -31.222 97.3211C-32.8015 99.5983 -35.0404 100.987 -37.9387 101.486C-34.3158 102.744 -32.0329 105.155 -31.09 108.72C-30.1132 112.256 -29.8413 116.499 -30.2744 121.449C-30.7401 126.772 -31.6454 131.383 -32.9902 135.28C-34.3351 139.178 -36.4117 142.117 -39.22 144.099C-42.0284 146.08 -45.8453 146.86 -50.6706 146.438L-72.9449 144.489ZM-52.3995 94.6684L-49.0374 94.9625C-47.512 95.096 -46.4796 94.5903 -45.9403 93.4454C-45.4009 92.3006 -45.0591 90.9032 -44.9147 89.2532L-44.1916 80.9879C-43.9601 78.3418 -45.0118 76.9166 -47.3466 76.7123L-50.8021 76.41L-52.3995 94.6684ZM-53.9804 131.562C-49.7154 131.935 -47.4059 130.098 -47.0519 126.051L-46.1531 115.777C-45.9488 113.443 -46.1461 111.575 -46.745 110.173C-47.31 108.744 -48.5576 107.944 -50.4878 107.775L-53.523 107.51L-55.6066 131.325C-54.9272 131.447 -54.3851 131.526 -53.9804 131.562ZM-26.973 148.511L-19.7826 66.3251L-3.90579 67.7142L-11.0961 149.9L-26.973 148.511ZM3.44891 151.173L9.25839 84.7702L-0.501205 83.9163L0.879669 68.1329L36.8361 71.2786L35.4552 87.0621L25.6956 86.2082L19.8861 152.611L3.44891 151.173ZM54.6322 156.404C47.1296 155.747 41.8762 153.405 38.872 149.378C35.8989 145.354 34.7692 139.263 35.4828 131.107L36.1855 123.075L52.4359 124.497L51.5371 134.77C51.371 136.669 51.5204 138.188 51.9854 139.327C52.4843 140.437 53.4498 141.055 54.8818 141.18C56.3761 141.311 57.4416 140.965 58.0782 140.142C58.7459 139.322 59.167 137.916 59.3413 135.924C59.5619 133.402 59.4967 131.279 59.1457 129.554C58.7974 127.798 58.0673 126.103 56.9555 124.469C55.8776 122.806 54.3389 120.852 52.3395 118.607L45.5743 110.957C40.5189 105.276 38.284 99.0888 38.8696 92.3956C39.4824 85.3911 41.5683 80.1937 45.1274 76.8035C48.7175 73.416 53.5946 71.9919 59.7585 72.5312C67.2922 73.1903 72.4555 75.6654 75.2484 79.9564C78.0725 84.2501 79.1263 90.4907 78.41 98.6782L61.6926 97.2156L62.1869 91.5653C62.285 90.4446 62.0344 89.5443 61.4351 88.8645C60.867 88.1874 60.0381 87.8012 58.9485 87.7059C57.641 87.5915 56.6432 87.8806 55.9553 88.5733C55.3011 89.2376 54.9237 90.1456 54.8229 91.2975C54.7221 92.4493 54.9245 93.7218 55.43 95.1149C55.9355 96.508 57.0304 98.1566 58.7146 100.061L67.3973 109.996C69.1384 111.968 70.7142 114.035 72.1248 116.197C73.5382 118.328 74.6103 120.775 75.3412 123.537C76.0747 126.267 76.274 129.547 75.939 133.376C75.2635 141.097 73.3017 147.026 70.0537 151.165C66.8394 155.276 61.6989 157.022 54.6322 156.404ZM118.495 142.275C113.857 141.869 110.388 140.107 108.088 136.989C105.792 133.839 104.849 129.914 105.26 125.213C105.674 120.481 107.284 116.779 110.09 114.107C112.896 111.436 116.619 110.303 121.257 110.708C125.896 111.114 129.365 112.876 131.664 115.995C133.995 119.116 134.953 123.043 134.539 127.775C134.128 132.475 132.502 136.176 129.662 138.876C126.856 141.548 123.134 142.681 118.495 142.275ZM161.722 165.02L168.913 82.8338L194.129 85.04C198.332 85.4077 201.423 86.6505 203.402 88.7686C205.384 90.8555 206.582 93.6581 206.995 97.1763C207.443 100.666 207.464 104.73 207.058 109.369C206.666 113.852 205.776 117.381 204.39 119.958C203.035 122.537 200.741 124.203 197.507 124.955C200.044 125.71 201.737 127.16 202.585 129.305C203.466 131.421 203.765 134.098 203.482 137.335L200.761 168.435L184.557 167.018L187.372 134.844C187.582 132.447 187.213 130.924 186.266 130.277C185.352 129.601 183.806 129.168 181.627 128.977L178.346 166.474L161.722 165.02ZM182.967 114.743L186.936 115.09C189.208 115.289 190.561 112.913 190.994 107.963C191.275 104.757 191.21 102.634 190.799 101.594C190.388 100.554 189.497 99.9744 188.127 99.8545L184.298 99.5195L182.967 114.743ZM227.802 171.554C221.233 170.979 216.379 168.563 213.238 164.304C210.131 160.017 208.906 154.122 209.562 146.619L212.977 107.581C213.593 100.545 215.772 95.3562 219.515 92.0135C223.29 88.6734 228.492 87.2935 235.123 87.8736C241.754 88.4538 246.622 90.7148 249.728 94.6567C252.865 98.6014 254.126 104.092 253.51 111.127L250.095 150.166C249.438 157.668 247.192 163.259 243.357 166.939C239.556 170.59 234.371 172.129 227.802 171.554ZM229.266 156.437C231.756 156.654 233.213 154.351 233.635 149.525L237.144 109.413C237.498 105.366 236.461 103.236 234.033 103.024C231.293 102.784 229.742 104.734 229.38 108.875L225.875 148.941C225.652 151.493 225.802 153.357 226.327 154.533C226.854 155.677 227.834 156.311 229.266 156.437ZM274.801 175.666C268.855 175.146 264.223 172.874 260.905 168.851C257.618 164.83 256.266 159.489 256.848 152.827L260.166 114.909C260.863 106.94 262.969 100.975 266.484 97.0167C270.029 93.0607 275.367 91.3945 282.496 92.0182C286.387 92.3587 289.78 93.377 292.675 95.0732C295.6 96.7722 297.809 99.1299 299.302 102.147C300.798 105.132 301.356 108.788 300.977 113.116L299.735 127.311L283.392 125.881L284.454 113.74C284.669 111.281 284.502 109.604 283.953 108.709C283.407 107.783 282.48 107.262 281.172 107.148C279.647 107.014 278.57 107.485 277.943 108.559C277.319 109.603 276.926 111.043 276.765 112.879L273.166 154.019C272.967 156.292 273.154 157.924 273.726 158.915C274.329 159.909 275.253 160.46 276.498 160.569C277.899 160.691 278.93 160.201 279.591 159.098C280.284 157.998 280.71 156.53 280.871 154.693L282.166 139.89L298.697 141.337L297.336 156.887C296.704 164.109 294.424 169.195 290.496 172.145C286.57 175.064 281.339 176.238 274.801 175.666ZM302.066 177.298L309.257 95.1123L325.507 96.5341L322.627 129.455L333.165 97.2041L349.696 98.6503L337.204 135.483L344.42 181.004L327.376 179.513L321.891 138.943L318.41 178.728L302.066 177.298ZM355.276 181.954L361.086 115.551L351.326 114.697L352.707 98.9138L388.663 102.06L387.283 117.843L377.523 116.989L371.713 183.392L355.276 181.954ZM383.55 184.427L398.679 102.936L426.557 105.375L427.165 188.243L411.615 186.883L411.608 173.519L401.708 172.653L399.52 185.825L383.55 184.427ZM404.023 159.633L411.495 160.287L411.556 118.179L410.809 118.113L404.023 159.633ZM438.675 189.25L435.736 106.131L451.379 107.499L452.509 163.969L462.773 108.496L478.417 109.865L461.089 191.211L438.675 189.25ZM476.988 192.602L484.179 110.416L517.053 113.292L515.664 129.169L499.507 127.755L498.106 143.772L513.609 145.129L512.257 160.585L496.753 159.229L495.107 178.048L512.338 179.555L510.937 195.572L476.988 192.602ZM536.81 198.589C529.308 197.932 524.054 195.591 521.05 191.563C518.077 187.539 516.947 181.449 517.661 173.292L518.364 165.26L534.614 166.682L533.715 176.955C533.549 178.854 533.699 180.373 534.164 181.512C534.663 182.622 535.628 183.24 537.06 183.365C538.554 183.496 539.62 183.15 540.256 182.327C540.924 181.507 541.345 180.101 541.519 178.109C541.74 175.587 541.675 173.464 541.324 171.739C540.976 169.984 540.246 168.288 539.134 166.654C538.056 164.991 536.517 163.037 534.518 160.792L527.752 153.142C522.697 147.461 520.462 141.274 521.048 134.581C521.661 127.576 523.747 122.379 527.306 118.989C530.896 115.601 535.773 114.177 541.937 114.716C549.47 115.375 554.634 117.851 557.427 122.142C560.251 126.435 561.304 132.676 560.588 140.863L543.871 139.401L544.365 133.75C544.463 132.63 544.213 131.729 543.613 131.05C543.045 130.373 542.216 129.986 541.127 129.891C539.819 129.777 538.821 130.066 538.133 130.758C537.479 131.423 537.102 132.331 537.001 133.483C536.9 134.634 537.103 135.907 537.608 137.3C538.114 138.693 539.209 140.342 540.893 142.246L549.575 152.181C551.317 154.153 552.892 156.22 554.303 158.382C555.716 160.513 556.788 162.96 557.519 165.722C558.253 168.452 558.452 171.732 558.117 175.561C557.442 183.282 555.48 189.211 552.232 193.35C549.018 197.461 543.877 199.207 536.81 198.589ZM600.673 184.46C596.035 184.055 592.566 182.292 590.266 179.174C587.97 176.024 587.027 172.099 587.438 167.398C587.852 162.666 589.462 158.964 592.268 156.292C595.074 153.621 598.797 152.488 603.435 152.893C608.074 153.299 611.543 155.061 613.842 158.18C616.173 161.301 617.131 165.228 616.717 169.96C616.306 174.661 614.68 178.361 611.84 181.061C609.034 183.733 605.312 184.866 600.673 184.46ZM643.901 207.205L651.091 125.019L676.12 127.209L678.648 177.919L689.896 128.414L715.159 130.624L707.968 212.81L692.932 211.495L698.112 152.283L683.499 210.669L668.743 209.378L663.93 149.293L658.75 208.504L643.901 207.205ZM715.462 213.466L722.653 131.28L738.529 132.669L731.339 214.855L715.462 213.466ZM738.833 215.511L746.023 133.324L768.625 135.302C774.539 135.819 778.847 137.859 781.547 141.42C784.249 144.95 785.324 149.875 784.771 156.195L781.405 194.673C780.724 202.456 778.829 208.344 775.719 212.338C772.64 216.335 767.692 218.035 760.874 217.439L738.833 215.511ZM756.634 202.434L759.483 202.683C762.502 202.948 764.14 201.616 764.396 198.69L768.106 156.29C768.346 153.55 768.126 151.758 767.447 150.915C766.802 150.043 765.358 149.509 763.117 149.313L761.296 149.153L756.634 202.434ZM786.953 219.72L794.143 137.534L811.047 139.013L815.168 179.04L818.612 139.675L834.489 141.064L827.299 223.25L811.235 221.845L806.612 180.033L803.017 221.126L786.953 219.72ZM834.793 223.906L841.983 141.72L857.86 143.109L850.67 225.295L834.793 223.906ZM875.049 228.181C863.312 227.154 858.18 218.235 859.65 201.424L862.751 165.982C864.094 150.634 871.49 143.548 884.938 144.725C890.48 145.21 894.631 146.702 897.392 149.203C900.156 151.672 901.912 155.088 902.66 159.451C903.407 163.814 903.513 169.062 902.976 175.194L886.913 173.789L887.55 166.504C887.705 164.73 887.586 163.229 887.191 162.003C886.83 160.748 885.887 160.054 884.362 159.92C882.463 159.754 881.146 160.282 880.412 161.504C879.709 162.728 879.29 164.103 879.157 165.629L875.672 205.461C875.479 207.671 875.601 209.502 876.039 210.951C876.51 212.373 877.587 213.157 879.268 213.304C881.011 213.457 882.223 212.873 882.903 211.552C883.617 210.203 884.074 208.392 884.272 206.119L885.298 194.399L880.908 194.015L882.15 179.819L902.23 181.576L898.042 229.44L891.458 228.864L889.261 221.707C885.95 226.562 881.213 228.72 875.049 228.181ZM905.536 230.095L912.727 147.909L929.07 149.339L926.501 178.711L934.252 179.389L936.822 150.017L953.166 151.447L945.976 233.633L929.632 232.203L932.892 194.939L925.14 194.261L921.88 231.525L905.536 230.095ZM961.268 234.971L967.077 168.568L957.318 167.715L958.698 151.931L994.655 155.077L993.274 170.86L983.514 170.007L977.705 236.409L961.268 234.971ZM1031.18 222.125C1026.54 221.719 1023.08 219.957 1020.78 216.839C1018.48 213.689 1017.54 209.764 1017.95 205.063C1018.36 200.331 1019.97 196.629 1022.78 193.957C1025.58 191.285 1029.31 190.152 1033.94 190.558C1038.58 190.964 1042.05 192.726 1044.35 195.845C1046.68 198.966 1047.64 202.892 1047.23 207.624C1046.82 212.325 1045.19 216.026 1042.35 218.726C1039.54 221.398 1035.82 222.531 1031.18 222.125ZM1072.17 244.674L1087.3 163.182L1115.18 165.621L1115.78 248.489L1100.23 247.129L1100.23 233.765L1090.33 232.899L1088.14 246.071L1072.17 244.674ZM1092.64 219.879L1100.11 220.533L1100.17 178.425L1099.43 178.359L1092.64 219.879ZM1121.78 249.014L1128.97 166.828L1154.19 169.034C1158.39 169.402 1161.48 170.645 1163.46 172.763C1165.44 174.85 1166.64 177.652 1167.06 181.171C1167.5 184.66 1167.52 188.725 1167.12 193.363C1166.73 197.846 1165.84 201.376 1164.45 203.952C1163.1 206.531 1160.8 208.197 1157.57 208.949C1160.1 209.705 1161.8 211.155 1162.64 213.299C1163.53 215.415 1163.83 218.092 1163.54 221.33L1160.82 252.43L1144.62 251.012L1147.43 218.838C1147.64 216.441 1147.27 214.919 1146.33 214.271C1145.41 213.595 1143.87 213.162 1141.69 212.971L1138.41 250.469L1121.78 249.014ZM1143.03 198.737L1147 199.084C1149.27 199.283 1150.62 196.908 1151.05 191.958C1151.33 188.751 1151.27 186.628 1150.86 185.588C1150.45 184.549 1149.56 183.969 1148.19 183.849L1144.36 183.514L1143.03 198.737ZM1168.31 253.085L1175.51 170.899L1197.78 172.848C1203.76 173.371 1207.97 175.214 1210.42 178.377C1212.91 181.512 1213.86 186.426 1213.27 193.119L1212.96 196.715C1212.62 200.575 1211.65 203.643 1210.04 205.917C1208.46 208.194 1206.22 209.583 1203.32 210.082C1206.94 211.34 1209.23 213.751 1210.17 217.316C1211.15 220.852 1211.42 225.095 1210.99 230.045C1210.52 235.368 1209.61 239.979 1208.27 243.876C1206.92 247.774 1204.85 250.714 1202.04 252.695C1199.23 254.677 1195.41 255.456 1190.59 255.034L1168.31 253.085ZM1188.86 203.265L1192.22 203.559C1193.75 203.692 1194.78 203.186 1195.32 202.042C1195.86 200.897 1196.2 199.499 1196.35 197.849L1197.07 189.584C1197.3 186.938 1196.25 185.513 1193.91 185.308L1190.46 185.006L1188.86 203.265ZM1187.28 240.158C1191.54 240.531 1193.85 238.694 1194.21 234.647L1195.11 224.374C1195.31 222.039 1195.11 220.171 1194.51 218.769C1193.95 217.34 1192.7 216.541 1190.77 216.372L1187.74 216.106L1185.65 239.921C1186.33 240.044 1186.87 240.122 1187.28 240.158ZM1214.29 257.107L1221.48 174.921L1237.35 176.31L1230.16 258.496L1214.29 257.107ZM1244.71 259.769L1250.52 193.366L1240.76 192.512L1242.14 176.729L1278.1 179.875L1276.72 195.658L1266.96 194.804L1261.15 261.207L1244.71 259.769ZM1295.89 265C1288.39 264.343 1283.14 262.002 1280.13 257.974C1277.16 253.95 1276.03 247.86 1276.74 239.703L1277.45 231.671L1293.7 233.093L1292.8 243.366C1292.63 245.265 1292.78 246.784 1293.25 247.923C1293.74 249.033 1294.71 249.651 1296.14 249.776C1297.64 249.907 1298.7 249.561 1299.34 248.738C1300.01 247.918 1300.43 246.512 1300.6 244.52C1300.82 241.998 1300.76 239.875 1300.41 238.15C1300.06 236.395 1299.33 234.699 1298.22 233.065C1297.14 231.402 1295.6 229.448 1293.6 227.203L1286.83 219.553C1281.78 213.872 1279.54 207.685 1280.13 200.992C1280.74 193.987 1282.83 188.79 1286.39 185.4C1289.98 182.012 1294.85 180.588 1301.02 181.127C1308.55 181.787 1313.72 184.262 1316.51 188.553C1319.33 192.846 1320.39 199.087 1319.67 207.274L1302.95 205.812L1303.45 200.161C1303.54 199.041 1303.29 198.14 1302.69 197.461C1302.13 196.784 1301.3 196.397 1300.21 196.302C1298.9 196.188 1297.9 196.477 1297.22 197.169C1296.56 197.834 1296.18 198.742 1296.08 199.894C1295.98 201.045 1296.18 202.318 1296.69 203.711C1297.2 205.104 1298.29 206.753 1299.97 208.657L1308.66 218.592C1310.4 220.564 1311.97 222.631 1313.38 224.793C1314.8 226.925 1315.87 229.371 1316.6 232.133C1317.33 234.863 1317.53 238.143 1317.2 241.972C1316.52 249.693 1314.56 255.622 1311.31 259.761C1308.1 263.872 1302.96 265.618 1295.89 265ZM1359.76 250.871C1355.12 250.466 1351.65 248.703 1349.35 245.585C1347.05 242.435 1346.11 238.51 1346.52 233.809C1346.93 229.077 1348.54 225.375 1351.35 222.704C1354.16 220.032 1357.88 218.899 1362.52 219.304C1367.16 219.71 1370.62 221.472 1372.92 224.591C1375.25 227.712 1376.21 231.639 1375.8 236.371C1375.39 241.072 1373.76 244.772 1370.92 247.472C1368.12 250.144 1364.39 251.277 1359.76 250.871ZM1402.98 273.616L1410.17 191.43L1435.39 193.636C1439.59 194.004 1442.68 195.247 1444.66 197.365C1446.64 199.452 1447.84 202.254 1448.26 205.772C1448.7 209.262 1448.72 213.326 1448.32 217.965C1447.93 222.448 1447.04 225.977 1445.65 228.554C1444.3 231.133 1442 232.799 1438.77 233.551C1441.3 234.306 1443 235.756 1443.84 237.901C1444.73 240.017 1445.02 242.694 1444.74 245.932L1442.02 277.031L1425.82 275.614L1428.63 243.44C1428.84 241.043 1428.47 239.52 1427.53 238.873C1426.61 238.197 1425.07 237.764 1422.89 237.573L1419.61 275.07L1402.98 273.616ZM1424.23 223.339L1428.2 223.686C1430.47 223.885 1431.82 221.509 1432.25 216.56C1432.53 213.353 1432.47 211.23 1432.06 210.19C1431.65 209.15 1430.76 208.571 1429.39 208.451L1425.56 208.116L1424.23 223.339ZM1469.06 280.15C1462.49 279.575 1457.64 277.159 1454.5 272.9C1451.39 268.613 1450.17 262.718 1450.82 255.216L1454.24 216.177C1454.85 209.142 1457.03 203.952 1460.78 200.61C1464.55 197.27 1469.75 195.89 1476.38 196.47C1483.01 197.05 1487.88 199.311 1490.99 203.253C1494.12 207.198 1495.39 212.688 1494.77 219.723L1491.35 258.762C1490.7 266.264 1488.45 271.855 1484.62 275.535C1480.82 279.187 1475.63 280.725 1469.06 280.15ZM1470.53 265.033C1473.02 265.251 1474.47 262.947 1474.89 258.122L1478.4 218.009C1478.76 213.962 1477.72 211.832 1475.29 211.62C1472.55 211.38 1471 213.331 1470.64 217.471L1467.13 257.537C1466.91 260.09 1467.06 261.953 1467.59 263.129C1468.11 264.273 1469.09 264.907 1470.53 265.033ZM1516.06 284.262C1510.12 283.742 1505.48 281.47 1502.16 277.447C1498.88 273.426 1497.53 268.085 1498.11 261.423L1501.43 223.505C1502.12 215.536 1504.23 209.572 1507.74 205.613C1511.29 201.657 1516.63 199.991 1523.76 200.614C1527.65 200.955 1531.04 201.973 1533.93 203.669C1536.86 205.368 1539.07 207.726 1540.56 210.743C1542.06 213.728 1542.62 217.384 1542.24 221.712L1541 235.907L1524.65 234.478L1525.71 222.336C1525.93 219.877 1525.76 218.2 1525.21 217.305C1524.67 216.379 1523.74 215.858 1522.43 215.744C1520.91 215.611 1519.83 216.081 1519.2 217.156C1518.58 218.199 1518.19 219.639 1518.03 221.476L1514.43 262.615C1514.23 264.888 1514.41 266.52 1514.99 267.511C1515.59 268.505 1516.51 269.056 1517.76 269.165C1519.16 269.288 1520.19 268.797 1520.85 267.695C1521.54 266.595 1521.97 265.126 1522.13 263.289L1523.43 248.487L1539.96 249.933L1538.6 265.483C1537.96 272.705 1535.68 277.791 1531.76 280.742C1527.83 283.661 1522.6 284.834 1516.06 284.262ZM1543.33 285.895L1550.52 203.709L1566.77 205.13L1563.89 238.051L1574.43 205.8L1590.96 207.246L1578.46 244.079L1585.68 289.6L1568.64 288.109L1563.15 247.539L1559.67 287.324L1543.33 285.895ZM1596.54 290.55L1602.35 224.147L1592.59 223.293L1593.97 207.51L1629.92 210.656L1628.54 226.439L1618.78 225.585L1612.97 291.988L1596.54 290.55ZM1624.81 293.023L1639.94 211.532L1667.82 213.971L1668.42 296.839L1652.87 295.479L1652.87 282.115L1642.97 281.249L1640.78 294.421L1624.81 293.023ZM1645.28 268.229L1652.75 268.883L1652.82 226.775L1652.07 226.709L1645.28 268.229ZM1679.93 297.846L1677 214.727L1692.64 216.096L1693.77 272.565L1704.03 217.092L1719.68 218.461L1702.35 299.807L1679.93 297.846ZM1718.25 301.198L1725.44 219.012L1758.31 221.888L1756.92 237.765L1740.77 236.352L1739.37 252.369L1754.87 253.725L1753.52 269.182L1738.01 267.825L1736.37 286.644L1753.6 288.151L1752.2 304.168L1718.25 301.198ZM1778.07 307.185C1770.57 306.528 1765.31 304.187 1762.31 300.16C1759.34 296.135 1758.21 290.045 1758.92 281.888L1759.62 273.857L1775.87 275.278L1774.98 285.552C1774.81 287.451 1774.96 288.969 1775.42 290.108C1775.92 291.218 1776.89 291.836 1778.32 291.961C1779.81 292.092 1780.88 291.746 1781.52 290.923C1782.18 290.103 1782.61 288.697 1782.78 286.705C1783 284.183 1782.93 282.06 1782.58 280.335C1782.24 278.58 1781.51 276.885 1780.39 275.25C1779.32 273.587 1777.78 271.633 1775.78 269.388L1769.01 261.738C1763.96 256.057 1761.72 249.87 1762.31 243.177C1762.92 236.172 1765.01 230.975 1768.57 227.585C1772.16 224.197 1777.03 222.773 1783.2 223.313C1790.73 223.972 1795.89 226.447 1798.69 230.738C1801.51 235.031 1802.56 241.272 1801.85 249.459L1785.13 247.997L1785.63 242.347C1785.72 241.226 1785.47 240.326 1784.87 239.646C1784.31 238.969 1783.48 238.582 1782.39 238.487C1781.08 238.373 1780.08 238.662 1779.39 239.355C1778.74 240.019 1778.36 240.927 1778.26 242.079C1778.16 243.231 1778.36 244.503 1778.87 245.896C1779.37 247.289 1780.47 248.938 1782.15 250.842L1790.84 260.777C1792.58 262.749 1794.15 264.816 1795.56 266.978C1796.98 269.11 1798.05 271.556 1798.78 274.318C1799.51 277.048 1799.71 280.328 1799.38 284.157C1798.7 291.878 1796.74 297.808 1793.49 301.947C1790.28 306.057 1785.14 307.803 1778.07 307.185ZM1841.93 293.057C1837.29 292.651 1833.83 290.889 1831.53 287.77C1829.23 284.62 1828.29 280.695 1828.7 275.994C1829.11 271.262 1830.72 267.561 1833.53 264.889C1836.33 262.217 1840.06 261.084 1844.7 261.49C1849.33 261.895 1852.8 263.658 1855.1 266.776C1857.43 269.897 1858.39 273.824 1857.98 278.556C1857.57 283.257 1855.94 286.957 1853.1 289.657C1850.29 292.329 1846.57 293.462 1841.93 293.057ZM1885.16 315.801L1892.35 233.615L1917.38 235.805L1919.91 286.515L1931.16 237.01L1956.42 239.22L1949.23 321.406L1934.19 320.091L1939.37 260.88L1924.76 319.266L1910 317.975L1905.19 257.889L1900.01 317.1L1885.16 315.801ZM1956.72 322.062L1963.91 239.876L1979.79 241.265L1972.6 323.451L1956.72 322.062ZM1980.09 324.107L1987.28 241.921L2009.88 243.898C2015.8 244.415 2020.11 246.455 2022.81 250.016C2025.51 253.546 2026.58 258.471 2026.03 264.791L2022.66 303.269C2021.98 311.052 2020.09 316.94 2016.98 320.934C2013.9 324.931 2008.95 326.632 2002.13 326.035L1980.09 324.107ZM1997.89 311.03L2000.74 311.28C2003.76 311.544 2005.4 310.213 2005.66 307.286L2009.37 264.886C2009.61 262.146 2009.39 260.355 2008.71 259.511C2008.06 258.639 2006.62 258.105 2004.38 257.909L2002.56 257.749L1997.89 311.03ZM2028.21 328.317L2035.4 246.131L2052.31 247.61L2056.43 287.637L2059.87 248.271L2075.75 249.66L2068.56 331.846L2052.5 330.441L2047.87 288.629L2044.28 329.722L2028.21 328.317ZM2076.05 332.502L2083.24 250.316L2099.12 251.705L2091.93 333.891L2076.05 332.502ZM2116.31 336.777C2104.57 335.75 2099.44 326.831 2100.91 310.021L2104.01 274.578C2105.35 259.23 2112.75 252.145 2126.2 253.321C2131.74 253.806 2135.89 255.299 2138.65 257.799C2141.42 260.268 2143.17 263.684 2143.92 268.047C2144.67 272.41 2144.77 277.658 2144.24 283.791L2128.17 282.385L2128.81 275.101C2128.97 273.326 2128.85 271.826 2128.45 270.599C2128.09 269.344 2127.15 268.65 2125.62 268.516C2123.72 268.35 2122.41 268.878 2121.67 270.1C2120.97 271.325 2120.55 272.7 2120.42 274.225L2116.93 314.057C2116.74 316.268 2116.86 318.098 2117.3 319.548C2117.77 320.969 2118.85 321.753 2120.53 321.901C2122.27 322.053 2123.48 321.469 2124.16 320.148C2124.88 318.799 2125.33 316.988 2125.53 314.716L2126.56 302.995L2122.17 302.611L2123.41 288.415L2143.49 290.172L2139.3 338.036L2132.72 337.46L2130.52 330.303C2127.21 335.158 2122.47 337.316 2116.31 336.777ZM2146.8 338.691L2153.99 256.505L2170.33 257.935L2167.76 287.307L2175.51 287.986L2178.08 258.613L2194.43 260.043L2187.24 342.229L2170.89 340.799L2174.15 303.536L2166.4 302.857L2163.14 340.121L2146.8 338.691ZM2202.53 343.567L2208.34 277.165L2198.58 276.311L2199.96 260.527L2235.91 263.673L2234.53 279.457L2224.77 278.603L2218.96 345.005L2202.53 343.567Z" fill="#363636"/>
</svg>
