<svg width="1824" height="476" viewBox="0 0 1824 476" fill="none" xmlns="http://www.w3.org/2000/svg">
<path d="M559.637 74.1508C559.552 74.7481 559.509 75.6015 559.509 76.7108C559.509 77.9908 559.594 79.7401 559.765 81.9588C559.936 84.3481 560.021 86.1401 560.021 87.3348C560.618 86.9081 561.77 86.2681 563.477 85.4148C567.061 83.5375 569.877 81.7455 571.925 80.0388C573.973 78.3321 574.997 76.4121 574.997 74.2788C574.997 73.8521 574.954 73.5108 574.869 73.2548C574.528 71.3775 573.632 69.7135 572.181 68.2628C570.73 66.8121 569.322 65.7455 567.957 65.0628C566.592 64.2948 564.33 63.1001 561.173 61.4788C560.576 65.6601 560.064 69.8841 559.637 74.1508ZM575.125 76.4548L575.509 75.8148L575.125 76.4548ZM575.637 74.1508L575.765 74.9188L575.637 74.1508ZM594.325 91.3028C595.008 91.1321 595.477 91.0468 595.733 91.0468C598.037 91.0468 599.189 93.5641 599.189 98.5988C599.189 101.244 598.976 103.761 598.549 106.151C598.208 108.54 598.037 109.863 598.037 110.119C597.44 114.471 596.629 118.311 595.605 121.639C594.581 124.967 593.045 128.039 590.997 130.855C588.266 134.524 585.578 136.359 582.933 136.359C580.714 136.359 578.112 135.121 575.125 132.647L562.581 122.279L556.821 117.415C556.394 119.292 555.456 121.809 554.005 124.967C552.64 128.039 550.976 130.812 549.013 133.287C547.05 135.676 545.002 136.871 542.869 136.871C542.357 136.871 541.76 136.743 541.077 136.487C539.37 135.804 538.517 133.457 538.517 129.447C538.517 125.692 539.157 120.999 540.437 115.367L541.077 111.399C541.162 110.545 541.461 108.412 541.973 104.999C542.485 101.585 542.869 98.4281 543.125 95.5268C543.381 92.6255 543.509 89.9375 543.509 87.4628C543.509 84.7321 543.424 82.6841 543.253 81.3188C542.912 78.5028 542.613 76.4975 542.357 75.3028C541.504 69.8415 541.077 65.6175 541.077 62.6308C541.077 59.1321 541.589 56.0601 542.613 53.4148C544.32 48.8921 546.794 45.6068 550.037 43.5588C553.365 41.4255 557.077 40.3588 561.173 40.3588C566.037 40.3588 570.944 41.6388 575.893 44.1988C580.842 46.6735 584.682 49.7028 587.413 53.2868C589.802 56.3588 590.997 59.9001 590.997 63.9108C590.997 68.0921 589.717 72.3588 587.157 76.7108C584.682 81.0628 581.525 85.1161 577.685 88.8708C573.93 92.6255 570.048 95.6975 566.037 98.0868C569.365 100.561 572.565 103.121 575.637 105.767C579.221 108.668 581.909 110.801 583.701 112.167C583.701 100.647 587.242 93.6921 594.325 91.3028ZM665.071 116.391C668.314 116.817 669.935 118.524 669.935 121.511C669.935 122.62 669.679 123.857 669.167 125.223C668.74 126.503 668.143 127.697 667.375 128.807C665.754 131.196 663.876 132.817 661.743 133.671C659.695 134.524 657.007 135.036 653.679 135.207C646.938 135.463 642.116 135.591 639.215 135.591C630.852 135.847 625.05 136.06 621.807 136.231C615.151 136.487 609.306 137.34 604.271 138.791C602.223 139.303 600.815 139.559 600.047 139.559C599.108 139.559 598.383 139.26 597.871 138.663C597.359 138.065 597.103 136.999 597.103 135.463C597.103 133.841 597.402 132.177 597.999 130.471C598.682 128.679 599.706 126.289 601.071 123.303C602.266 120.999 603.204 118.865 603.887 116.903C604.058 116.305 604.442 115.111 605.039 113.319C605.722 111.527 606.191 109.905 606.447 108.455C606.532 108.028 606.575 107.516 606.575 106.919C606.575 106.407 606.49 105.809 606.319 105.127C606.148 104.359 606.02 103.633 605.935 102.951C605.85 101.585 606.02 100.263 606.447 98.9828C606.959 97.6175 607.684 96.0815 608.623 94.3748C610.074 91.3881 610.927 89.2548 611.183 87.9748C612.719 80.6361 613.572 75.0895 613.743 71.3348L613.871 67.3668C613.871 64.8068 613.615 62.9295 613.103 61.7348C612.676 60.7108 611.908 59.6868 610.799 58.6628C609.775 57.6388 609.092 56.7855 608.751 56.1028C608.324 55.3348 608.111 54.3108 608.111 53.0308C608.111 51.5801 608.452 50.0441 609.135 48.4228C609.903 46.7161 610.842 45.1801 611.951 43.8148C613.914 41.2548 616.26 39.9748 618.991 39.9748C621.039 39.9748 623.087 40.5721 625.135 41.7668C627.268 42.9615 629.828 44.7108 632.815 47.0148C635.034 48.7215 636.698 49.9161 637.807 50.5988C641.818 52.9881 645.188 54.8228 647.919 56.1028C650.65 57.3828 653.551 58.3215 656.623 58.9188C658.074 59.1748 659.439 59.3028 660.719 59.3028C662.084 59.3028 663.45 59.1748 664.815 58.9188C665.327 58.8335 666.138 58.5775 667.247 58.1508C668.442 57.6388 669.338 57.3828 669.935 57.3828C670.532 57.3828 671.044 57.5535 671.471 57.8948C672.324 58.4921 672.751 59.4735 672.751 60.8388C672.751 62.2041 672.324 63.7401 671.471 65.4468C670.703 67.0681 669.892 68.4335 669.039 69.5428C666.394 72.7855 662.639 74.7481 657.775 75.4308C656.239 75.6868 654.66 75.8148 653.039 75.8148C648.687 75.8148 644.42 75.0895 640.239 73.6388C636.058 72.1028 631.279 69.9695 625.903 67.2388C625.391 73.8095 624.41 80.6361 622.959 87.7188L627.311 86.6948C631.834 85.5855 635.503 84.7748 638.319 84.2628C641.22 83.6655 644.036 83.3668 646.767 83.3668C647.962 83.3668 648.858 83.4095 649.455 83.4948C652.442 83.7508 653.935 85.2441 653.935 87.9748C653.935 89.2548 653.594 90.6628 652.911 92.1988C652.314 93.7348 651.546 95.1428 650.607 96.4228C648.9 98.7268 646.81 100.22 644.335 100.903C641.86 101.585 638.66 101.969 634.735 102.055L630.383 102.311C627.311 102.652 624.964 102.951 623.343 103.207C621.722 103.377 620.698 103.591 620.271 103.847C619.93 104.017 619.588 104.401 619.247 104.999C618.991 105.596 618.692 106.151 618.351 106.663C617.754 107.687 617.199 109.009 616.687 110.631C616.175 112.252 615.748 113.873 615.407 115.495C614.895 117.884 614.468 119.591 614.127 120.615C618.906 119.505 625.86 118.481 634.991 117.543C644.207 116.519 651.972 116.007 658.287 116.007C661.018 116.007 663.279 116.135 665.071 116.391ZM742.304 124.967C742.389 126.161 742.603 127.953 742.944 130.343C743.456 133.244 743.712 135.377 743.712 136.743C743.712 139.388 743.115 141.692 741.92 143.655C740.896 145.447 739.488 147.153 737.696 148.775C735.904 150.481 734.155 151.335 732.448 151.335C728.608 151.335 726.688 146.855 726.688 137.895L726.816 132.007C727.072 124.412 727.925 116.647 729.376 108.711C727.499 108.796 726.347 109.052 725.92 109.479C725.493 109.905 725.152 110.801 724.896 112.167C724.896 113.105 724.725 114.129 724.384 115.239C723.531 118.652 721.995 121.937 719.776 125.095C717.813 127.911 715.424 130.3 712.608 132.263C709.792 134.14 706.72 135.42 703.392 136.103C701.088 136.529 699.083 136.743 697.376 136.743C691.147 136.743 685.813 134.865 681.376 131.111C676.939 127.271 674.464 122.151 673.952 115.751C673.867 115.068 673.824 114.001 673.824 112.551C673.824 106.919 674.763 101.031 676.64 94.8868C678.517 88.6575 681.035 82.1295 684.192 75.3028C690.677 61.2228 698.272 50.5561 706.976 43.3028C709.621 41.0841 712.523 39.2921 715.68 37.9268C718.837 36.5615 721.867 35.8788 724.768 35.8788C727.328 35.8788 729.632 36.4761 731.68 37.6708C733.813 38.8655 735.52 40.7428 736.8 43.3028C738.507 46.6308 739.36 50.3428 739.36 54.4388C739.36 58.4495 738.592 62.5881 737.056 66.8548C735.52 71.0361 733.472 75.0041 730.912 78.7588C729.717 80.5508 728.053 82.4708 725.92 84.5188C723.872 86.4815 721.995 87.4628 720.288 87.4628C719.264 87.4628 718.453 87.0361 717.856 86.1828C717.259 85.5001 716.96 84.6468 716.96 83.6228C716.96 81.5748 718.368 78.8441 721.184 75.4308L722.976 72.8708C724.085 70.9935 724.64 68.9455 724.64 66.7268C724.64 63.6548 723.659 60.9241 721.696 58.5348C719.819 56.1455 717.515 54.9508 714.784 54.9508C712.821 54.9508 710.859 55.6761 708.896 57.1268C704.544 60.2841 700.875 65.2761 697.888 72.1028C694.901 78.8441 692.768 85.5855 691.488 92.3268C691.061 94.6308 690.848 96.5935 690.848 98.2148C690.848 103.676 692.427 108.071 695.584 111.399C698.741 114.641 703.307 116.177 709.28 116.007C708.683 114.129 708.085 112.849 707.488 112.167C706.891 111.484 705.824 111.015 704.288 110.759C703.776 110.673 702.965 110.759 701.856 111.015C700.832 111.271 700.064 111.399 699.552 111.399C696.736 111.143 695.328 109.905 695.328 107.687C695.328 106.833 695.541 105.681 695.968 104.231C696.907 101.329 698.272 99.1535 700.064 97.7028C701.941 96.1668 703.947 95.1428 706.08 94.6308C708.299 94.1188 711.115 93.6921 714.528 93.3508L718.368 92.8388C718.965 92.7535 720.416 92.4548 722.72 91.9428C723.232 91.8575 724.896 91.5161 727.712 90.9188C730.613 90.3215 733.301 90.0228 735.776 90.0228C740.725 90.0228 743.541 91.6015 744.224 94.7588C744.395 95.7828 744.48 96.5081 744.48 96.9348C744.48 98.6415 744.181 100.689 743.584 103.079C743.243 105.212 743.029 106.62 742.944 107.303C742.432 111.484 742.176 115.751 742.176 120.103C742.176 122.321 742.219 123.943 742.304 124.967ZM756.608 48.2948C755.157 47.2708 754.432 45.6495 754.432 43.4308C754.432 43.0041 754.517 42.2788 754.688 41.2548C755.285 38.6948 756.437 36.3055 758.144 34.0868C759.936 31.7828 761.984 29.9481 764.288 28.5828C766.08 27.5588 767.872 27.0468 769.664 27.0468C771.541 27.0468 772.992 27.6868 774.016 28.9668C774.784 29.9908 775.168 31.2281 775.168 32.6788C775.168 33.9588 774.784 35.5801 774.016 37.5428C773.163 39.9321 771.84 42.1081 770.048 44.0708C768.341 46.0335 766.379 47.5268 764.16 48.5508C762.368 49.4041 760.789 49.7028 759.424 49.4468C758.144 49.2761 757.205 48.8921 756.608 48.2948ZM767.488 122.151C767.488 122.748 767.36 123.431 767.104 124.199C766.933 124.967 766.805 125.521 766.72 125.863L766.464 126.631C765.611 129.788 764.075 132.775 761.856 135.591C759.637 138.407 756.864 139.815 753.536 139.815C753.195 139.815 752.939 139.772 752.768 139.687C751.403 139.516 750.293 139.004 749.44 138.151C748.16 136.615 747.52 134.225 747.52 130.983C747.52 129.788 747.605 128.423 747.776 126.887C747.691 126.631 747.691 126.375 747.776 126.119C747.776 125.777 747.776 125.564 747.776 125.479C748.032 119.42 748.928 111.185 750.464 100.775L750.976 96.8068C751.829 91.0041 752.384 86.6521 752.64 83.7508L753.152 77.9908C753.152 77.3935 753.195 76.9241 753.28 76.5828C753.451 75.3881 753.493 74.6201 753.408 74.2788C753.323 74.1935 753.28 74.1081 753.28 74.0228C753.28 73.8521 753.237 73.7241 753.152 73.6388C752.64 72.9561 752.384 72.0601 752.384 70.9508C752.384 69.5855 752.512 68.2201 752.768 66.8548C752.853 66.5988 752.896 66.1721 752.896 65.5748C753.493 61.6495 755.157 58.2788 757.888 55.4628C760.704 52.6468 763.349 51.2388 765.824 51.2388C766.763 51.2388 767.659 51.4521 768.512 51.8788C770.645 52.9881 771.712 55.3348 771.712 58.9188C771.541 61.3081 771.456 63.1001 771.456 64.2948L771.328 67.6228L770.944 74.6628C770.859 79.1001 770.603 83.6228 770.176 88.2308C770.091 89.9375 769.579 95.5695 768.64 105.127L768.256 109.095L768 111.655L767.232 118.695C767.147 119.036 767.104 119.335 767.104 119.591C767.189 119.761 767.232 119.975 767.232 120.231C767.403 120.657 767.445 120.999 767.36 121.255L767.488 122.151ZM842.453 112.295C842.88 112.807 843.861 113.916 845.397 115.623C847.018 117.329 848.298 119.079 849.237 120.871C850.261 122.577 850.773 124.241 850.773 125.863C850.773 127.911 850.005 129.831 848.469 131.623C846.592 133.927 844.288 135.079 841.557 135.079C840.362 135.079 839.04 134.908 837.589 134.567C836.138 134.225 835.2 134.012 834.773 133.927C828.032 132.561 820.181 131.879 811.221 131.879C804.309 131.879 796.97 132.22 789.205 132.903C788.522 132.988 787.541 133.073 786.261 133.159C784.981 133.244 783.829 133.287 782.805 133.287C779.733 133.287 777.258 132.817 775.381 131.879C773.589 130.855 772.693 129.02 772.693 126.375C772.693 124.839 772.992 123.217 773.589 121.511C774.186 119.719 775.082 117.585 776.277 115.111L777.429 112.423C778.709 109.265 780.117 106.876 781.653 105.255C783.189 103.548 785.365 102.695 788.181 102.695C790.485 102.695 792.277 103.463 793.557 104.999C794.922 106.449 795.605 108.284 795.605 110.503C795.605 112.039 795.221 113.575 794.453 115.111C799.829 114.769 805.93 114.599 812.757 114.599C816.768 114.599 819.797 114.641 821.845 114.727C813.994 104.828 808.149 97.3615 804.309 92.3268L795.477 81.1908C794.112 79.4841 792.96 78.1615 792.021 77.2228C788.864 73.5535 786.474 70.4388 784.853 67.8788C783.232 65.2335 782.421 62.5455 782.421 59.8148C782.421 57.2548 783.317 55.2068 785.109 53.6708C786.986 52.0495 789.162 50.8548 791.637 50.0868C794.197 49.2335 797.397 48.4228 801.237 47.6548L806.613 46.5028C813.354 44.7961 820.309 43.2601 827.477 41.8948C828.074 41.8095 829.269 41.5961 831.061 41.2548C833.962 40.4868 836.522 40.1028 838.741 40.1028C841.557 40.1028 843.69 40.8708 845.141 42.4068C846.677 44.0281 847.445 45.6921 847.445 47.3988C847.445 49.0201 846.933 50.6415 845.909 52.2628C844.97 53.8841 843.434 56.0175 841.301 58.6628C838.741 61.7348 837.12 63.9961 836.437 65.4468C835.328 67.8361 834.133 69.8415 832.853 71.4628C831.658 73.0841 830.293 73.8948 828.757 73.8948C827.648 73.8948 826.538 73.4681 825.429 72.6148C824.234 71.6761 823.637 70.3961 823.637 68.7748C823.637 67.5801 823.893 66.3428 824.405 65.0628C825.002 63.6975 825.557 62.4601 826.069 61.3508C826.666 60.2415 827.05 59.5588 827.221 59.3028C822.869 60.0708 816.426 61.5641 807.893 63.7828C806.869 64.1241 804.778 64.6788 801.621 65.4468L816.981 83.1108C830.122 98.0441 838.613 107.772 842.453 112.295ZM921.623 37.0308C923.5 37.1161 924.439 38.0548 924.439 39.8468C924.439 41.2975 923.97 42.9615 923.031 44.8388C922.092 46.7161 921.154 48.2095 920.215 49.3188C918.423 51.5375 916.375 53.0308 914.071 53.7988C911.767 54.5668 909.122 54.9508 906.135 54.9508C905.111 54.9508 903.49 54.8655 901.271 54.6948C898.54 54.5241 896.492 54.4815 895.127 54.5668C894.444 54.5668 893.634 54.5668 892.695 54.5668C891.842 54.5668 891.244 54.7375 890.903 55.0788C890.647 55.4201 890.306 56.1881 889.879 57.3828C889.623 58.2361 889.452 59.3455 889.367 60.7108C889.367 62.0761 889.367 63.0575 889.367 63.6548L888.471 77.8628C888.215 82.8121 888.044 87.1641 887.959 90.9188C887.874 94.5881 887.788 97.6601 887.703 100.135C887.703 103.463 887.66 105.937 887.575 107.559C888.258 107.388 888.727 107.303 888.983 107.303C890.86 107.303 891.799 108.753 891.799 111.655C891.799 113.703 891.458 115.879 890.775 118.183C890.178 120.487 889.41 123.047 888.471 125.863C887.959 127.313 886.85 129.276 885.143 131.751C883.522 134.14 881.687 136.231 879.639 138.023C877.591 139.815 875.799 140.711 874.263 140.711C872.3 140.711 870.978 139.175 870.295 136.103C869.612 133.116 869.271 129.532 869.271 125.351C869.271 120.657 869.74 114.727 870.679 107.559L871.575 98.3428C872.855 81.7028 874.434 68.1348 876.311 57.6388C875.799 57.8095 874.391 58.2788 872.087 59.0468C869.868 59.7295 867.82 60.5401 865.943 61.4788C864.066 62.4175 862.615 63.3988 861.591 64.4228C860.482 65.6175 859.5 67.1535 858.647 69.0308C857.538 70.9081 856.556 72.3588 855.703 73.3828C854.935 74.4068 853.783 75.2175 852.247 75.8148C851.308 76.2415 850.37 76.4548 849.431 76.4548C847.639 76.4548 846.743 75.3455 846.743 73.1268C846.743 71.6761 847.084 69.9695 847.767 68.0068C848.45 66.0441 849.175 64.4655 849.943 63.2708C855.66 53.8841 864.45 47.1428 876.311 43.0468C888.172 38.8655 900.716 36.7748 913.943 36.7748C915.82 36.7748 918.38 36.8601 921.623 37.0308ZM945.442 74.1508C945.357 74.7481 945.314 75.6015 945.314 76.7108C945.314 77.9908 945.399 79.7401 945.57 81.9588C945.741 84.3481 945.826 86.1401 945.826 87.3348C946.423 86.9081 947.575 86.2681 949.282 85.4148C952.866 83.5375 955.682 81.7455 957.73 80.0388C959.778 78.3321 960.802 76.4121 960.802 74.2788C960.802 73.8521 960.759 73.5108 960.674 73.2548C960.333 71.3775 959.437 69.7135 957.986 68.2628C956.535 66.8121 955.127 65.7455 953.762 65.0628C952.397 64.2948 950.135 63.1001 946.978 61.4788C946.381 65.6601 945.869 69.8841 945.442 74.1508ZM960.93 76.4548L961.314 75.8148L960.93 76.4548ZM961.442 74.1508L961.57 74.9188L961.442 74.1508ZM980.13 91.3028C980.813 91.1321 981.282 91.0468 981.538 91.0468C983.842 91.0468 984.994 93.5641 984.994 98.5988C984.994 101.244 984.781 103.761 984.354 106.151C984.013 108.54 983.842 109.863 983.842 110.119C983.245 114.471 982.434 118.311 981.41 121.639C980.386 124.967 978.85 128.039 976.802 130.855C974.071 134.524 971.383 136.359 968.738 136.359C966.519 136.359 963.917 135.121 960.93 132.647L948.386 122.279L942.626 117.415C942.199 119.292 941.261 121.809 939.81 124.967C938.445 128.039 936.781 130.812 934.818 133.287C932.855 135.676 930.807 136.871 928.674 136.871C928.162 136.871 927.565 136.743 926.882 136.487C925.175 135.804 924.322 133.457 924.322 129.447C924.322 125.692 924.962 120.999 926.242 115.367L926.882 111.399C926.967 110.545 927.266 108.412 927.778 104.999C928.29 101.585 928.674 98.4281 928.93 95.5268C929.186 92.6255 929.314 89.9375 929.314 87.4628C929.314 84.7321 929.229 82.6841 929.058 81.3188C928.717 78.5028 928.418 76.4975 928.162 75.3028C927.309 69.8415 926.882 65.6175 926.882 62.6308C926.882 59.1321 927.394 56.0601 928.418 53.4148C930.125 48.8921 932.599 45.6068 935.842 43.5588C939.17 41.4255 942.882 40.3588 946.978 40.3588C951.842 40.3588 956.749 41.6388 961.698 44.1988C966.647 46.6735 970.487 49.7028 973.218 53.2868C975.607 56.3588 976.802 59.9001 976.802 63.9108C976.802 68.0921 975.522 72.3588 972.962 76.7108C970.487 81.0628 967.33 85.1161 963.49 88.8708C959.735 92.6255 955.853 95.6975 951.842 98.0868C955.17 100.561 958.37 103.121 961.442 105.767C965.026 108.668 967.714 110.801 969.506 112.167C969.506 100.647 973.047 93.6921 980.13 91.3028ZM1029.43 93.3508C1030.8 93.8628 1032.33 94.5881 1034.04 95.5268C1031.48 86.3108 1029.52 78.4601 1028.15 71.9748C1024.82 78.6308 1020.43 86.7375 1014.97 96.2948C1014.54 97.2335 1013.82 98.5561 1012.79 100.263C1016.21 94.9721 1020.09 92.3268 1024.44 92.3268C1026.15 92.3268 1027.81 92.6681 1029.43 93.3508ZM1049.91 75.1748C1053.41 87.0361 1057.55 98.0868 1062.33 108.327L1063.74 111.143C1064.93 113.191 1065.83 114.94 1066.42 116.391C1067.02 117.756 1067.32 119.164 1067.32 120.615C1067.32 122.833 1066.38 125.137 1064.5 127.527C1062.63 129.831 1060.58 131.537 1058.36 132.647C1056.99 133.415 1055.54 133.799 1054.01 133.799C1051.45 133.799 1048.89 133.031 1046.33 131.495C1043.85 129.873 1040.87 127.569 1037.37 124.583C1034.89 122.535 1033.02 121.084 1031.74 120.231C1030.88 119.633 1029.09 118.695 1026.36 117.415C1021.58 115.025 1017.87 112.892 1015.22 111.015C1012.66 109.137 1011.38 106.919 1011.38 104.359C1011.38 103.676 1011.68 102.652 1012.28 101.287C1010.66 104.188 1008.4 108.625 1005.5 114.599C1001.91 121.852 999.864 125.905 999.352 126.759C998.328 128.636 996.664 130.727 994.36 133.031C992.056 135.249 989.923 136.359 987.96 136.359C986.936 136.359 986.04 135.975 985.272 135.207C984.675 134.609 984.376 133.671 984.376 132.391C984.376 128.807 987.107 122.449 992.568 113.319C992.909 112.636 993.464 111.655 994.232 110.375L997.048 104.999C1002.85 94.0761 1007.07 85.8415 1009.72 80.2948C1011.26 77.0521 1013.47 72.1881 1016.38 65.7028L1020.98 55.3348C1022.86 51.3241 1024.74 47.9961 1026.62 45.3508C1028.49 42.6201 1030.84 40.5295 1033.66 39.0788C1035.11 38.3108 1036.47 37.9268 1037.75 37.9268C1039.46 37.9268 1040.7 38.7375 1041.46 40.3588C1042.23 41.8948 1042.91 44.1988 1043.51 47.2708C1045.05 56.0601 1047.18 65.3615 1049.91 75.1748ZM1135.09 37.0308C1136.97 37.1161 1137.9 38.0548 1137.9 39.8468C1137.9 41.2975 1137.43 42.9615 1136.5 44.8388C1135.56 46.7161 1134.62 48.2095 1133.68 49.3188C1131.89 51.5375 1129.84 53.0308 1127.54 53.7988C1125.23 54.5668 1122.59 54.9508 1119.6 54.9508C1118.58 54.9508 1116.95 54.8655 1114.74 54.6948C1112.01 54.5241 1109.96 54.4815 1108.59 54.5668C1107.91 54.5668 1107.1 54.5668 1106.16 54.5668C1105.31 54.5668 1104.71 54.7375 1104.37 55.0788C1104.11 55.4201 1103.77 56.1881 1103.34 57.3828C1103.09 58.2361 1102.92 59.3455 1102.83 60.7108C1102.83 62.0761 1102.83 63.0575 1102.83 63.6548L1101.94 77.8628C1101.68 82.8121 1101.51 87.1641 1101.42 90.9188C1101.34 94.5881 1101.25 97.6601 1101.17 100.135C1101.17 103.463 1101.13 105.937 1101.04 107.559C1101.72 107.388 1102.19 107.303 1102.45 107.303C1104.33 107.303 1105.26 108.753 1105.26 111.655C1105.26 113.703 1104.92 115.879 1104.24 118.183C1103.64 120.487 1102.87 123.047 1101.94 125.863C1101.42 127.313 1100.31 129.276 1098.61 131.751C1096.99 134.14 1095.15 136.231 1093.1 138.023C1091.06 139.815 1089.26 140.711 1087.73 140.711C1085.77 140.711 1084.44 139.175 1083.76 136.103C1083.08 133.116 1082.74 129.532 1082.74 125.351C1082.74 120.657 1083.21 114.727 1084.14 107.559L1085.04 98.3428C1086.32 81.7028 1087.9 68.1348 1089.78 57.6388C1089.26 57.8095 1087.86 58.2788 1085.55 59.0468C1083.33 59.7295 1081.29 60.5401 1079.41 61.4788C1077.53 62.4175 1076.08 63.3988 1075.06 64.4228C1073.95 65.6175 1072.97 67.1535 1072.11 69.0308C1071 70.9081 1070.02 72.3588 1069.17 73.3828C1068.4 74.4068 1067.25 75.2175 1065.71 75.8148C1064.77 76.2415 1063.83 76.4548 1062.9 76.4548C1061.1 76.4548 1060.21 75.3455 1060.21 73.1268C1060.21 71.6761 1060.55 69.9695 1061.23 68.0068C1061.91 66.0441 1062.64 64.4655 1063.41 63.2708C1069.13 53.8841 1077.91 47.1428 1089.78 43.0468C1101.64 38.8655 1114.18 36.7748 1127.41 36.7748C1129.29 36.7748 1131.85 36.8601 1135.09 37.0308ZM1147.04 48.2948C1145.59 47.2708 1144.86 45.6495 1144.86 43.4308C1144.86 43.0041 1144.95 42.2788 1145.12 41.2548C1145.72 38.6948 1146.87 36.3055 1148.57 34.0868C1150.37 31.7828 1152.41 29.9481 1154.72 28.5828C1156.51 27.5588 1158.3 27.0468 1160.09 27.0468C1161.97 27.0468 1163.42 27.6868 1164.45 28.9668C1165.21 29.9908 1165.6 31.2281 1165.6 32.6788C1165.6 33.9588 1165.21 35.5801 1164.45 37.5428C1163.59 39.9321 1162.27 42.1081 1160.48 44.0708C1158.77 46.0335 1156.81 47.5268 1154.59 48.5508C1152.8 49.4041 1151.22 49.7028 1149.85 49.4468C1148.57 49.2761 1147.64 48.8921 1147.04 48.2948ZM1157.92 122.151C1157.92 122.748 1157.79 123.431 1157.53 124.199C1157.36 124.967 1157.24 125.521 1157.15 125.863L1156.89 126.631C1156.04 129.788 1154.5 132.775 1152.29 135.591C1150.07 138.407 1147.29 139.815 1143.97 139.815C1143.62 139.815 1143.37 139.772 1143.2 139.687C1141.83 139.516 1140.72 139.004 1139.87 138.151C1138.59 136.615 1137.95 134.225 1137.95 130.983C1137.95 129.788 1138.04 128.423 1138.21 126.887C1138.12 126.631 1138.12 126.375 1138.21 126.119C1138.21 125.777 1138.21 125.564 1138.21 125.479C1138.46 119.42 1139.36 111.185 1140.89 100.775L1141.41 96.8068C1142.26 91.0041 1142.81 86.6521 1143.07 83.7508L1143.58 77.9908C1143.58 77.3935 1143.62 76.9241 1143.71 76.5828C1143.88 75.3881 1143.92 74.6201 1143.84 74.2788C1143.75 74.1935 1143.71 74.1081 1143.71 74.0228C1143.71 73.8521 1143.67 73.7241 1143.58 73.6388C1143.07 72.9561 1142.81 72.0601 1142.81 70.9508C1142.81 69.5855 1142.94 68.2201 1143.2 66.8548C1143.28 66.5988 1143.33 66.1721 1143.33 65.5748C1143.92 61.6495 1145.59 58.2788 1148.32 55.4628C1151.13 52.6468 1153.78 51.2388 1156.25 51.2388C1157.19 51.2388 1158.09 51.4521 1158.94 51.8788C1161.08 52.9881 1162.14 55.3348 1162.14 58.9188C1161.97 61.3081 1161.89 63.1001 1161.89 64.2948L1161.76 67.6228L1161.37 74.6628C1161.29 79.1001 1161.03 83.6228 1160.61 88.2308C1160.52 89.9375 1160.01 95.5695 1159.07 105.127L1158.69 109.095L1158.43 111.655L1157.66 118.695C1157.58 119.036 1157.53 119.335 1157.53 119.591C1157.62 119.761 1157.66 119.975 1157.66 120.231C1157.83 120.657 1157.88 120.999 1157.79 121.255L1157.92 122.151ZM1203.44 34.5988C1205.75 34.0868 1207.88 33.8308 1209.84 33.8308C1217.27 33.8308 1222.81 37.0308 1226.48 43.4308C1230.15 49.7455 1231.99 57.9801 1231.99 68.1348C1231.99 78.7161 1230.11 89.6388 1226.36 100.903C1222.69 112.081 1217.61 121.383 1211.12 128.807C1204.72 136.231 1197.6 139.943 1189.75 139.943C1186.08 139.943 1182.49 139.089 1179 137.383C1174.73 135.249 1171.53 131.623 1169.4 126.503C1167.35 121.383 1166.32 115.239 1166.32 108.071C1166.32 98.3428 1168.03 88.0175 1171.44 77.0948C1174.94 66.0868 1179.55 56.6148 1185.27 48.6788C1190.98 40.7428 1197.04 36.0495 1203.44 34.5988ZM1201.14 55.3348C1196.7 55.4201 1192.65 57.7241 1188.98 62.2468C1185.4 66.6841 1182.54 72.2735 1180.4 79.0148C1178.36 85.6708 1177.33 92.1988 1177.33 98.5988C1177.33 105.084 1178.48 110.375 1180.79 114.471C1183.09 118.481 1186.55 120.487 1191.16 120.487C1193.03 120.487 1194.91 120.188 1196.79 119.591C1200.71 118.311 1204.34 115.409 1207.67 110.887C1211.08 106.364 1213.77 101.073 1215.73 95.0148C1217.69 88.8708 1218.68 82.9401 1218.68 77.2228C1218.68 70.5668 1217.22 65.2335 1214.32 61.2228C1211.51 57.1268 1207.11 55.1641 1201.14 55.3348ZM1250.05 34.4708C1251.33 33.4468 1252.74 32.8068 1254.27 32.5508H1254.66C1256.02 32.5508 1256.92 33.1481 1257.34 34.3428C1257.86 35.2815 1258.2 36.5615 1258.37 38.1828C1258.54 39.0361 1258.62 39.6335 1258.62 39.9748C1259.82 44.1561 1260.88 47.8255 1261.82 50.9828C1262.85 54.0548 1263.7 56.6575 1264.38 58.7908C1265.07 61.0948 1266.13 64.5935 1267.58 69.2868C1269.03 73.8948 1270.27 77.9908 1271.3 81.5748C1271.64 82.6841 1271.85 83.4095 1271.94 83.7508C1271.94 81.3615 1271.85 77.7775 1271.68 72.9988L1271.55 67.6228L1271.42 64.2948C1271.34 60.7961 1271.17 57.8948 1270.91 55.5908C1270.74 53.2868 1270.36 51.0255 1269.76 48.8068C1269.76 46.5881 1270.1 44.6255 1270.78 42.9188L1272.32 39.5908C1273.26 37.7988 1274.67 36.0068 1276.54 34.2148C1277.91 33.0201 1279.4 32.2948 1281.02 32.0388C1282.47 32.0388 1283.58 32.6788 1284.35 33.9588C1285.63 37.2868 1286.36 40.9135 1286.53 44.8388C1286.53 47.2281 1286.57 48.9775 1286.66 50.0868C1286.66 54.5241 1286.7 57.8095 1286.78 59.9428C1286.78 64.6361 1286.7 71.5908 1286.53 80.8068C1286.53 85.5001 1286.27 92.4548 1285.76 101.671L1285.63 104.359C1285.55 105.297 1285.42 106.919 1285.25 109.223C1285.16 111.527 1284.99 113.575 1284.74 115.367C1283.97 121.084 1283.03 125.607 1281.92 128.935C1280.98 131.409 1280.13 133.329 1279.36 134.695C1278.51 136.316 1277.06 138.065 1275.01 139.943C1273.56 141.223 1272.15 141.863 1270.78 141.863C1270.27 141.863 1269.76 141.735 1269.25 141.479C1267.88 140.796 1266.73 139.004 1265.79 136.103C1265.02 133.713 1264.26 130.897 1263.49 127.655C1262.98 125.265 1262.63 123.473 1262.46 122.279C1261.52 117.5 1260.84 114.257 1260.42 112.551C1259.48 107.772 1257.9 100.689 1255.68 91.3028C1252.86 108.711 1248.51 123.132 1242.62 134.567C1242.03 135.847 1241.17 137.041 1240.06 138.151C1239.04 139.26 1237.97 140.071 1236.86 140.583C1236.27 140.924 1235.58 141.095 1234.82 141.095C1234.13 141.095 1233.62 141.009 1233.28 140.839C1232.17 140.071 1231.62 138.748 1231.62 136.871C1231.62 136.103 1231.66 135.548 1231.74 135.207C1232.17 133.073 1232.85 131.196 1233.79 129.575L1234.05 129.063C1235.58 125.564 1236.95 121.724 1238.14 117.543C1239.51 111.825 1240.58 105.937 1241.34 99.8788C1242.11 93.8201 1242.79 86.9081 1243.39 79.1428C1243.56 74.8761 1243.65 71.7615 1243.65 69.7988L1243.52 63.1428C1243.52 61.6068 1243.48 60.4121 1243.39 59.5588C1243.39 58.9615 1243.35 58.2361 1243.26 57.3828C1243.26 56.4441 1243.31 55.3775 1243.39 54.1828C1243.39 51.2815 1243.43 49.0201 1243.52 47.3988C1243.69 45.6921 1244.07 44.0708 1244.67 42.5348C1246.04 39.0361 1247.83 36.3481 1250.05 34.4708Z" fill="white"/>
<rect x="820.84" y="18.2031" width="179" height="32" transform="rotate(-5.83681 820.84 18.2031)" fill="#A12E25"/>
<g filter="url(#filter0_d_87_2444)">
<path d="M856.804 36.3697C857.017 36.4122 857.14 36.5926 857.173 36.911C857.202 37.1975 857.133 37.5423 856.965 37.9455C856.813 38.347 856.608 38.7057 856.351 39.0215C856.092 39.3214 855.82 39.4859 855.533 39.5152C855.485 39.5201 855.396 39.5131 855.266 39.4943C853.792 39.082 852.06 38.9776 850.071 39.181C848.495 39.3421 846.55 39.742 844.235 40.3807C844.188 40.4015 844.118 40.4168 844.022 40.4266C843.672 40.4624 843.478 40.2972 843.441 39.9311C843.413 39.6605 843.46 39.3341 843.582 38.9517C843.704 38.5693 843.826 38.2674 843.948 38.0458L851.632 24.9564C851.156 24.8604 850.695 24.8351 850.25 24.8807C849.39 24.9686 848.498 25.2849 847.572 25.8299C846.873 26.2231 846.229 26.691 845.641 27.2336C845.051 27.7602 844.713 28.3094 844.627 28.8812C844.569 29.257 844.41 29.6674 844.15 30.1121C843.89 30.5569 843.603 30.8194 843.29 30.8997C843.04 30.9735 842.845 30.9532 842.704 30.8389C842.578 30.707 842.503 30.5217 842.479 30.283C842.462 30.1238 842.47 29.9622 842.501 29.7981C842.687 28.6212 843.216 27.4252 844.089 26.2101C844.962 24.995 846.023 23.9698 847.272 23.1344C848.536 22.2814 849.813 21.7891 851.102 21.6573C852.2 21.545 853.207 21.7155 854.122 22.1688C854.243 22.2529 854.332 22.3403 854.39 22.4309C854.447 22.5216 854.482 22.6226 854.493 22.734C854.5 22.7977 854.495 22.9107 854.48 23.0731C854.445 23.3661 854.356 23.6728 854.212 23.9931C854.084 24.3118 853.919 24.594 853.719 24.8396C850.595 30.1449 848.259 34.123 846.713 36.774C848.28 36.3726 849.716 36.1051 851.021 35.9717C853.186 35.7504 855.114 35.8831 856.804 36.3697ZM859.729 22.1264C860.178 21.4854 860.712 20.9644 861.331 20.5634C861.947 20.1465 862.598 19.9031 863.282 19.8331C864.428 19.716 865.525 20.0622 866.573 20.8719C868.13 22.0959 869.021 23.8142 869.247 26.0267C869.346 26.9976 869.304 27.9991 869.12 29.0312C868.95 30.0457 868.671 31.0151 868.283 31.9393C868.171 32.2564 867.967 32.6954 867.67 33.2565L868.197 33.9264C868.255 34.017 868.29 34.126 868.303 34.2533C868.334 34.5558 868.244 34.9349 868.033 35.3907C867.838 35.8448 867.599 36.2553 867.315 36.6221C867.029 36.973 866.775 37.1598 866.552 37.1826C866.44 37.194 866.347 37.1472 866.272 37.0423C866.214 36.9517 866.14 36.8548 866.049 36.7515C865.957 36.6323 865.854 36.498 865.743 36.3486C864.379 38.1124 863.092 39.0561 861.883 39.1798C861.469 39.2221 861.086 39.1728 860.734 39.0319C859.478 38.5491 858.726 37.09 858.477 34.6547C858.43 34.1931 858.393 33.4409 858.367 32.3982C858.298 30.1535 858.378 28.1832 858.607 26.4871L858.293 26.0126L857.425 24.6055C857.387 24.5451 857.361 24.4512 857.348 24.3239C857.317 24.0215 857.407 23.6424 857.618 23.1866C857.827 22.7148 858.075 22.3035 858.36 21.9527C858.661 21.5842 858.914 21.3894 859.121 21.3683C859.216 21.3585 859.293 21.399 859.35 21.4896C859.41 21.5961 859.469 21.7027 859.528 21.8092C859.603 21.9141 859.67 22.0198 859.729 22.1264ZM862.453 35.551C863.004 35.2855 863.545 34.8282 864.073 34.1791C863.111 32.9426 862.149 31.6336 861.187 30.2522C861.198 30.6693 861.199 30.9989 861.192 31.2409C861.225 31.8808 861.259 32.3759 861.295 32.7261C861.372 33.4742 861.503 34.1282 861.689 34.6882C861.761 34.9221 861.827 35.1002 861.888 35.2227C861.965 35.3435 862.074 35.4691 862.216 35.5993C862.215 35.5834 862.238 35.5809 862.288 35.592C862.336 35.5871 862.39 35.5734 862.453 35.551ZM861.534 24.9093C862.894 26.8932 864.354 28.8992 865.912 30.9272C866.384 29.721 866.567 28.6006 866.461 27.5659C866.398 26.9452 866.233 26.3589 865.968 25.807C865.659 25.147 865.165 24.5622 864.486 24.0526C863.806 23.5431 863.18 23.3176 862.607 23.3762C862.257 23.412 861.953 23.5878 861.696 23.9036L861.645 24.3431C861.646 24.359 861.64 24.3757 861.626 24.3933L861.623 24.3694C861.623 24.3694 861.618 24.3941 861.607 24.4435C861.61 24.4753 861.6 24.5326 861.576 24.6155L861.534 24.9093ZM874.284 20.6385C874.733 19.9975 875.267 19.4765 875.885 19.0755C876.502 18.6587 877.153 18.4152 877.837 18.3453C878.983 18.2281 880.08 18.5744 881.128 19.384C882.684 20.6081 883.576 22.3263 883.802 24.5388C883.901 25.5097 883.859 26.5112 883.675 27.5433C883.505 28.5578 883.226 29.5272 882.838 30.4514C882.726 30.7685 882.521 31.2076 882.225 31.7686L882.752 32.4385C882.809 32.5291 882.845 32.6381 882.858 32.7655C882.889 33.0679 882.799 33.447 882.588 33.9028C882.393 34.357 882.154 34.7674 881.869 35.1342C881.584 35.4851 881.329 35.672 881.106 35.6947C880.995 35.7061 880.902 35.6594 880.827 35.5545C880.769 35.4638 880.695 35.3669 880.604 35.2636C880.511 35.1444 880.409 35.0101 880.297 34.8607C878.934 36.6245 877.647 37.5683 876.437 37.6919C876.024 37.7342 875.641 37.6849 875.288 37.544C874.033 37.0612 873.28 35.6021 873.032 33.1668C872.984 32.7052 872.948 31.9531 872.921 30.9103C872.853 28.6657 872.933 26.6953 873.162 24.9992L872.848 24.5247L871.98 23.1176C871.942 23.0572 871.916 22.9634 871.903 22.836C871.872 22.5336 871.962 22.1545 872.173 21.6987C872.382 21.227 872.629 20.8157 872.915 20.4648C873.215 20.0964 873.469 19.9016 873.676 19.8804C873.771 19.8707 873.848 19.9111 873.905 20.0017C873.964 20.1083 874.024 20.2148 874.083 20.3213C874.158 20.4262 874.225 20.532 874.284 20.6385ZM877.007 34.0631C877.559 33.7976 878.099 33.3403 878.628 32.6912C877.665 31.4547 876.703 30.1457 875.742 28.7644C875.752 29.1815 875.754 29.511 875.746 29.753C875.78 30.393 875.814 30.888 875.85 31.2382C875.926 31.9863 876.058 32.6403 876.244 33.2003C876.316 33.4342 876.382 33.6124 876.443 33.7348C876.52 33.8557 876.629 33.9812 876.771 34.1114C876.769 34.0955 876.793 34.0931 876.843 34.1041C876.89 34.0992 876.945 34.0856 877.007 34.0631ZM876.088 23.4214C877.449 25.4053 878.909 27.4113 880.467 29.4393C880.939 28.2331 881.122 27.1127 881.016 26.0781C880.953 25.4573 880.788 24.871 880.523 24.3191C880.214 23.6591 879.72 23.0743 879.041 22.5648C878.361 22.0552 877.735 21.8297 877.162 21.8883C876.812 21.9241 876.508 22.0999 876.251 22.4157L876.199 22.8552C876.201 22.8711 876.195 22.8879 876.18 22.9054L876.178 22.8815C876.178 22.8815 876.172 22.9062 876.161 22.9556C876.165 22.9874 876.154 23.0448 876.131 23.1276L876.088 23.4214ZM888.839 19.1506C889.288 18.5096 889.822 17.9886 890.44 17.5877C891.057 17.1708 891.708 16.9274 892.392 16.8574C893.538 16.7402 894.635 17.0865 895.683 17.8961C897.239 19.1202 898.131 20.8384 898.357 23.0509C898.456 24.0219 898.414 25.0234 898.23 26.0554C898.06 27.0699 897.781 28.0393 897.393 28.9636C897.281 29.2806 897.076 29.7197 896.78 30.2808L897.307 30.9507C897.364 31.0413 897.399 31.1503 897.412 31.2776C897.443 31.58 897.353 31.9591 897.143 32.4149C896.948 32.8691 896.708 33.2796 896.424 33.6464C896.138 33.9973 895.884 34.1841 895.661 34.2069C895.55 34.2183 895.457 34.1715 895.382 34.0666C895.324 33.976 895.25 33.879 895.159 33.7757C895.066 33.6565 894.964 33.5222 894.852 33.3728C893.489 35.1366 892.202 36.0804 890.992 36.2041C890.578 36.2464 890.195 36.1971 889.843 36.0561C888.588 35.5733 887.835 34.1143 887.586 31.6789C887.539 31.2174 887.502 30.4652 887.476 29.4224C887.408 27.1778 887.488 25.2074 887.716 23.5114L887.402 23.0368L886.535 21.6298C886.497 21.5694 886.471 21.4755 886.458 21.3481C886.427 21.0457 886.517 20.6666 886.728 20.2108C886.937 19.7391 887.184 19.3278 887.47 18.9769C887.77 18.6085 888.024 18.4137 888.23 18.3926C888.326 18.3828 888.402 18.4232 888.46 18.5138C888.519 18.6204 888.578 18.7269 888.637 18.8335C888.712 18.9384 888.78 19.0441 888.839 19.1506ZM891.562 32.5753C892.114 32.3098 892.654 31.8525 893.183 31.2033C892.22 29.9668 891.258 28.6579 890.297 27.2765C890.307 27.6936 890.309 28.0231 890.301 28.2652C890.334 28.9051 890.369 29.4001 890.405 29.7503C890.481 30.4984 890.612 31.1525 890.798 31.7125C890.871 31.9463 890.937 32.1245 890.998 32.247C891.074 32.3678 891.184 32.4933 891.326 32.6236C891.324 32.6076 891.348 32.6052 891.397 32.6162C891.445 32.6114 891.5 32.5977 891.562 32.5753ZM890.643 21.9336C892.004 23.9175 893.463 25.9234 895.022 27.9515C895.494 26.7452 895.677 25.6248 895.571 24.5902C895.507 23.9694 895.343 23.3831 895.077 22.8313C894.769 22.1712 894.275 21.5865 893.595 21.0769C892.916 20.5673 892.29 20.3419 891.717 20.4004C891.367 20.4362 891.063 20.612 890.806 20.9278L890.754 21.3673C890.756 21.3833 890.749 21.4 890.735 21.4175L890.733 21.3937C890.733 21.3937 890.727 21.4183 890.716 21.4677C890.719 21.4996 890.709 21.5569 890.685 21.6397L890.643 21.9336ZM909 26.4019C908.596 26.3789 908.383 26.2639 908.362 26.057C908.344 25.8819 908.474 25.6595 908.752 25.3899C909.03 25.1202 909.353 24.8942 909.72 24.7119C910.086 24.5137 910.39 24.4183 910.632 24.4257C911.602 24.4713 912.54 24.4478 913.447 24.355C914.53 24.2444 915.626 24.0358 916.737 23.7293C917.066 23.6473 917.279 23.6015 917.374 23.5917C917.868 23.5413 918.141 23.6983 918.194 24.0628C918.239 24.3477 918.067 24.6227 917.675 24.8878C917.3 25.1513 916.941 25.3328 916.597 25.4323C915.341 25.8824 913.956 26.1848 912.444 26.3394C911.282 26.4581 910.134 26.479 909 26.4019ZM940.827 27.7804C941.041 27.8229 941.164 28.0033 941.196 28.3217C941.225 28.6082 941.156 28.953 940.988 29.3562C940.836 29.7577 940.632 30.1164 940.375 30.4322C940.116 30.732 939.843 30.8966 939.557 30.9259C939.509 30.9308 939.42 30.9238 939.289 30.905C937.815 30.4927 936.084 30.3883 934.094 30.5917C932.518 30.7528 930.573 31.1527 928.258 31.7914C928.212 31.8122 928.141 31.8275 928.046 31.8373C927.695 31.873 927.502 31.7079 927.464 31.3418C927.436 31.0712 927.484 30.7447 927.605 30.3624C927.727 29.98 927.849 29.6781 927.971 29.4565L935.656 16.3671C935.18 16.2711 934.719 16.2458 934.273 16.2914C933.413 16.3792 932.521 16.6956 931.596 17.2406C930.896 17.6337 930.252 18.1016 929.664 18.6442C929.075 19.1709 928.737 19.7201 928.651 20.2919C928.592 20.6677 928.433 21.078 928.173 21.5228C927.913 21.9675 927.626 22.2301 927.313 22.3104C927.063 22.3842 926.868 22.3639 926.728 22.2496C926.602 22.1177 926.526 21.9324 926.502 21.6936C926.486 21.5345 926.493 21.3729 926.525 21.2088C926.71 20.0319 927.239 18.8358 928.112 17.6208C928.985 16.4057 930.046 15.3805 931.296 14.5451C932.56 13.6921 933.836 13.1997 935.125 13.0679C936.224 12.9557 937.23 13.1262 938.145 13.5795C938.266 13.6636 938.356 13.751 938.413 13.8416C938.471 13.9322 938.505 14.0332 938.517 14.1447C938.523 14.2083 938.519 14.3214 938.503 14.4838C938.469 14.7768 938.379 15.0835 938.235 15.4038C938.107 15.7225 937.943 16.0047 937.743 16.2503C934.618 21.5556 932.282 25.5337 930.736 28.1847C932.303 27.7832 933.74 27.5158 935.045 27.3824C937.209 27.1611 939.137 27.2937 940.827 27.7804ZM943.753 13.537C944.202 12.896 944.735 12.3751 945.354 11.9741C945.971 11.5572 946.621 11.3138 947.306 11.2438C948.452 11.1267 949.549 11.4729 950.596 12.2825C952.153 13.5066 953.044 15.2249 953.271 17.4373C953.37 18.4083 953.327 19.4098 953.143 20.4418C952.974 21.4564 952.695 22.4257 952.307 23.35C952.194 23.6671 951.99 24.1061 951.694 24.6672L952.22 25.3371C952.278 25.4277 952.313 25.5367 952.326 25.664C952.357 25.9664 952.267 26.3455 952.057 26.8013C951.862 27.2555 951.622 27.666 951.338 28.0328C951.052 28.3837 950.798 28.5705 950.575 28.5933C950.464 28.6047 950.37 28.5579 950.295 28.453C950.238 28.3624 950.164 28.2654 950.073 28.1621C949.98 28.0429 949.878 27.9086 949.766 27.7592C948.402 29.5231 947.116 30.4668 945.906 30.5905C945.492 30.6328 945.109 30.5835 944.757 30.4425C943.501 29.9597 942.749 28.5007 942.5 26.0654C942.453 25.6038 942.416 24.8516 942.39 23.8089C942.321 21.5642 942.401 19.5938 942.63 17.8978L942.316 17.4233L941.449 16.0162C941.41 15.9558 941.385 15.8619 941.372 15.7346C941.341 15.4321 941.431 15.053 941.641 14.5972C941.851 14.1255 942.098 13.7142 942.384 13.3633C942.684 12.9949 942.937 12.8001 943.144 12.779C943.24 12.7692 943.316 12.8096 943.374 12.9003C943.433 13.0068 943.492 13.1133 943.551 13.2199C943.626 13.3248 943.693 13.4305 943.753 13.537ZM946.476 26.9617C947.028 26.6962 947.568 26.2389 948.097 25.5897C947.134 24.3532 946.172 23.0443 945.21 21.6629C945.221 22.08 945.222 22.4096 945.215 22.6516C945.248 23.2915 945.283 23.7866 945.319 24.1367C945.395 24.8848 945.526 25.5389 945.712 26.0989C945.784 26.3328 945.851 26.5109 945.912 26.6334C945.988 26.7542 946.098 26.8797 946.24 27.01C946.238 26.9941 946.262 26.9916 946.311 27.0027C946.359 26.9978 946.414 26.9841 946.476 26.9617ZM945.557 16.32C946.918 18.3039 948.377 20.3098 949.936 22.3379C950.407 21.1317 950.59 20.0112 950.485 18.9766C950.421 18.3559 950.257 17.7695 949.991 17.2177C949.682 16.5577 949.188 15.9729 948.509 15.4633C947.83 14.9538 947.204 14.7283 946.631 14.7868C946.28 14.8226 945.977 14.9984 945.719 15.3142L945.668 15.7538C945.67 15.7697 945.663 15.7864 945.649 15.8039L945.646 15.7801C945.646 15.7801 945.641 15.8048 945.63 15.8541C945.633 15.886 945.623 15.9433 945.599 16.0261L945.557 16.32ZM969.937 24.8046C970.15 24.8472 970.273 25.0276 970.306 25.3459C970.335 25.6324 970.266 25.9773 970.098 26.3804C969.946 26.782 969.741 27.1406 969.484 27.4564C969.225 27.7563 968.953 27.9209 968.666 27.9502C968.618 27.9551 968.529 27.9481 968.399 27.9293C966.925 27.517 965.193 27.4125 963.204 27.6159C961.628 27.777 959.683 28.1769 957.368 28.8157C957.321 28.8365 957.251 28.8518 957.155 28.8615C956.805 28.8973 956.611 28.7322 956.574 28.3661C956.546 28.0955 956.593 27.769 956.715 27.3866C956.837 27.0043 956.958 26.7023 957.081 26.4807L964.765 13.3914C964.289 13.2953 963.828 13.2701 963.382 13.3156C962.523 13.4035 961.63 13.7199 960.705 14.2648C960.005 14.658 959.362 15.1259 958.774 15.6685C958.184 16.1952 957.846 16.7444 957.76 17.3161C957.702 17.692 957.543 18.1023 957.283 18.5471C957.023 18.9918 956.736 19.2543 956.422 19.3346C956.173 19.4084 955.978 19.3881 955.837 19.2738C955.711 19.142 955.636 18.9567 955.612 18.7179C955.595 18.5587 955.603 18.3971 955.634 18.2331C955.82 17.0561 956.349 15.8601 957.222 14.645C958.095 13.43 959.156 12.4047 960.405 11.5693C961.669 10.7164 962.946 10.224 964.235 10.0922C965.333 9.97994 966.34 10.1505 967.255 10.6038C967.376 10.6879 967.465 10.7753 967.523 10.8659C967.58 10.9565 967.615 11.0575 967.626 11.1689C967.633 11.2326 967.628 11.3456 967.613 11.5081C967.578 11.8011 967.489 12.1078 967.345 12.4281C967.216 12.7468 967.052 13.0289 966.852 13.2745C963.728 18.5798 961.392 22.558 959.846 25.209C961.413 24.8075 962.849 24.5401 964.154 24.4066C966.319 24.1853 968.247 24.318 969.937 24.8046ZM978.97 15.7993C979.997 15.7747 980.778 16.0166 981.312 16.5249C981.847 17.0332 982.158 17.7171 982.246 18.5766C982.355 19.643 982.146 20.8224 981.618 22.1147C981.107 23.4054 980.393 24.5238 979.477 25.4699C978.558 26.4001 977.59 26.9173 976.571 27.0214C976.062 27.0735 975.573 27.0109 975.105 26.8336C974.435 26.5804 973.842 26.1263 973.325 25.4716C972.808 24.8168 972.411 24.0853 972.135 23.2771C971.812 23.7284 971.553 23.9479 971.358 23.9356C971.147 23.909 971.028 23.7763 971.004 23.5375C970.983 23.3306 971.052 22.9858 971.212 22.503C971.33 22.0888 971.497 21.6698 971.711 21.2458C971.563 19.7973 971.783 18.1745 972.371 16.3774C972.725 15.2797 973.22 14.1435 973.856 12.9687C974.49 11.778 975.263 10.7582 976.173 9.90923C977.098 9.0427 978.09 8.60349 979.15 8.59161C979.327 8.58962 979.428 8.70801 979.452 8.94677C979.48 9.21736 979.413 9.58607 979.252 10.0529C979.104 10.5022 978.904 10.9006 978.65 11.2483C978.41 11.5784 978.178 11.7468 977.954 11.7537C977.022 11.7685 976.217 12.1484 975.537 12.8934C974.872 13.6208 974.367 14.5087 974.024 15.557C973.697 16.6037 973.547 17.576 973.574 18.4739C974.254 17.7289 975.005 17.1294 975.827 16.6755C976.664 16.204 977.543 15.921 978.467 15.8267C978.689 15.8039 978.857 15.7947 978.97 15.7993ZM979.13 23.2617C979.55 22.9615 979.873 22.5827 980.1 22.1252C980.325 21.6519 980.414 21.1924 980.369 20.7467C980.328 20.3488 980.172 20.0029 979.901 19.7089C979.628 19.3991 979.244 19.181 978.748 19.0547C978.27 18.9428 977.769 18.9136 977.244 18.9673C976.655 19.0275 976.068 19.184 975.482 19.4369C974.913 19.6881 974.406 20.0052 973.963 20.3883C974.34 21.3952 974.86 22.2427 975.526 22.9306C976.207 23.6168 976.946 23.9193 977.742 23.8379C978.203 23.7907 978.666 23.5987 979.13 23.2617Z" fill="white"/>
</g>
<path d="M0 246.967H1824" stroke="#FF4C3D" stroke-width="2"/>
<path d="M213.115 420.157C213.715 418.717 214.015 417.367 214.015 416.107C214.015 412.207 211.045 410.257 205.105 410.257C202.345 410.257 199.345 410.677 196.105 411.517C192.925 412.297 190.405 413.167 188.545 414.127C185.305 415.747 182.905 417.337 181.345 418.897C179.845 420.397 179.065 422.527 179.005 425.287C178.945 429.487 178.825 433.177 178.645 436.357C178.465 439.477 178.135 442.567 177.655 445.627C184.915 442.927 191.635 439.507 197.815 435.367C201.895 432.667 205.195 430.207 207.715 427.987C210.235 425.707 212.035 423.097 213.115 420.157ZM180.085 400.627C180.085 401.527 180.025 402.997 179.905 405.037C179.785 406.237 179.725 407.197 179.725 407.917L183.595 402.877C185.755 400.057 187.405 397.867 188.545 396.307C189.685 394.687 190.735 392.947 191.695 391.087C189.595 391.567 187.735 392.107 186.115 392.707C184.495 393.247 183.025 393.967 181.705 394.867C180.985 395.407 180.475 395.857 180.175 396.217C179.935 396.577 179.815 396.967 179.815 397.387C179.815 397.747 179.845 398.227 179.905 398.827C180.025 399.427 180.085 400.027 180.085 400.627ZM214.195 398.197C217.435 398.737 219.805 399.997 221.305 401.977C222.865 403.957 223.645 406.417 223.645 409.357C223.645 411.517 223.195 414.037 222.295 416.917C219.955 424.297 214.615 431.647 206.275 438.967C199.735 444.547 192.475 449.377 184.495 453.457C181.915 454.837 178.975 456.217 175.675 457.597C172.375 458.977 169.555 459.667 167.215 459.667C165.415 459.667 164.215 459.127 163.615 458.047C163.375 457.627 163.255 457.147 163.255 456.607C163.255 455.887 163.435 455.227 163.795 454.627C164.155 453.967 164.725 453.067 165.505 451.927C166.405 450.727 166.975 449.827 167.215 449.227C167.755 447.667 168.025 445.507 168.025 442.747V440.587C168.025 440.107 167.995 439.537 167.935 438.877C167.935 438.217 167.965 437.497 168.025 436.717C168.505 430.237 168.835 425.377 169.015 422.137C169.015 421.297 169.045 420.577 169.105 419.977C169.165 419.317 169.225 418.747 169.285 418.267C169.345 417.667 169.405 416.917 169.465 416.017C169.525 415.117 169.555 414.067 169.555 412.867C169.555 411.607 169.465 410.407 169.285 409.267C169.045 407.707 168.685 406.537 168.205 405.757C168.145 405.577 167.845 405.247 167.305 404.767C166.825 404.227 166.555 403.837 166.495 403.597C166.435 403.357 166.405 403.027 166.405 402.607C166.405 400.627 167.545 397.837 169.825 394.237C170.485 393.217 171.145 392.347 171.805 391.627C172.465 390.907 173.185 390.397 173.965 390.097C174.205 389.977 174.595 389.917 175.135 389.917C175.315 389.917 175.555 389.917 175.855 389.917C176.215 389.917 176.485 389.887 176.665 389.827C177.325 389.587 177.985 389.137 178.645 388.477C179.365 387.817 179.785 387.427 179.905 387.307C180.565 386.647 181.195 386.107 181.795 385.687C183.715 384.307 186.235 382.867 189.355 381.367C192.475 379.867 195.145 379.117 197.365 379.117C199.525 379.117 200.905 379.987 201.505 381.727C201.745 382.387 201.865 383.107 201.865 383.887C201.865 386.167 201.085 388.657 199.525 391.357C197.965 393.997 195.925 396.967 193.405 400.267C193.045 400.807 192.445 401.647 191.605 402.787C198.085 399.487 204.205 397.837 209.965 397.837C211.525 397.837 212.935 397.957 214.195 398.197ZM255.822 423.487C256.782 423.847 257.862 424.357 259.062 425.017C257.262 418.537 255.882 413.017 254.922 408.457C252.582 413.137 249.492 418.837 245.652 425.557C245.352 426.217 244.842 427.147 244.122 428.347C246.522 424.627 249.252 422.767 252.312 422.767C253.512 422.767 254.682 423.007 255.822 423.487ZM270.222 410.707C272.682 419.047 275.592 426.817 278.952 434.017L279.942 435.997C280.782 437.437 281.412 438.667 281.832 439.687C282.252 440.647 282.462 441.637 282.462 442.657C282.462 444.217 281.802 445.837 280.482 447.517C279.162 449.137 277.722 450.337 276.162 451.117C275.202 451.657 274.182 451.927 273.102 451.927C271.302 451.927 269.502 451.387 267.702 450.307C265.962 449.167 263.862 447.547 261.402 445.447C259.662 444.007 258.342 442.987 257.442 442.387C256.842 441.967 255.582 441.307 253.662 440.407C250.302 438.727 247.692 437.227 245.832 435.907C244.032 434.587 243.132 433.027 243.132 431.227C243.132 430.747 243.342 430.027 243.762 429.067C242.622 431.107 241.032 434.227 238.992 438.427C236.472 443.527 235.032 446.377 234.672 446.977C233.952 448.297 232.782 449.767 231.162 451.387C229.542 452.947 228.042 453.727 226.662 453.727C225.942 453.727 225.312 453.457 224.772 452.917C224.352 452.497 224.142 451.837 224.142 450.937C224.142 448.417 226.062 443.947 229.902 437.527C230.142 437.047 230.532 436.357 231.072 435.457L233.052 431.677C237.132 423.997 240.102 418.207 241.962 414.307C243.042 412.027 244.602 408.607 246.642 404.047L249.882 396.757C251.202 393.937 252.522 391.597 253.842 389.737C255.162 387.817 256.812 386.347 258.792 385.327C259.812 384.787 260.772 384.517 261.672 384.517C262.872 384.517 263.742 385.087 264.282 386.227C264.822 387.307 265.302 388.927 265.722 391.087C266.802 397.267 268.302 403.807 270.222 410.707ZM303.406 382.087C304.306 381.367 305.296 380.917 306.376 380.737H306.646C307.606 380.737 308.236 381.157 308.536 381.997C308.896 382.657 309.136 383.557 309.256 384.697C309.376 385.297 309.436 385.717 309.436 385.957C310.276 388.897 311.026 391.477 311.686 393.697C312.406 395.857 313.006 397.687 313.486 399.187C313.966 400.807 314.716 403.267 315.736 406.567C316.756 409.807 317.626 412.687 318.346 415.207C318.586 415.987 318.736 416.497 318.796 416.737C318.796 415.057 318.736 412.537 318.616 409.177L318.526 405.397L318.436 403.057C318.376 400.597 318.256 398.557 318.076 396.937C317.956 395.317 317.686 393.727 317.266 392.167C317.266 390.607 317.506 389.227 317.986 388.027L319.066 385.687C319.726 384.427 320.716 383.167 322.036 381.907C322.996 381.067 324.046 380.557 325.186 380.377C326.206 380.377 326.986 380.827 327.526 381.727C328.426 384.067 328.936 386.617 329.056 389.377C329.056 391.057 329.086 392.287 329.146 393.067C329.146 396.187 329.176 398.497 329.236 399.997C329.236 403.297 329.176 408.187 329.056 414.667C329.056 417.967 328.876 422.857 328.516 429.337L328.426 431.227C328.366 431.887 328.276 433.027 328.156 434.647C328.096 436.267 327.976 437.707 327.796 438.967C327.256 442.987 326.596 446.167 325.816 448.507C325.156 450.247 324.556 451.597 324.016 452.557C323.416 453.697 322.396 454.927 320.956 456.247C319.936 457.147 318.946 457.597 317.986 457.597C317.626 457.597 317.266 457.507 316.906 457.327C315.946 456.847 315.136 455.587 314.476 453.547C313.936 451.867 313.396 449.887 312.856 447.607C312.496 445.927 312.256 444.667 312.136 443.827C311.476 440.467 310.996 438.187 310.696 436.987C310.036 433.627 308.926 428.647 307.366 422.047C305.386 434.287 302.326 444.427 298.186 452.467C297.766 453.367 297.166 454.207 296.386 454.987C295.666 455.767 294.916 456.337 294.136 456.697C293.716 456.937 293.236 457.057 292.696 457.057C292.216 457.057 291.856 456.997 291.616 456.877C290.836 456.337 290.446 455.407 290.446 454.087C290.446 453.547 290.476 453.157 290.536 452.917C290.836 451.417 291.316 450.097 291.976 448.957L292.156 448.597C293.236 446.137 294.196 443.437 295.036 440.497C295.996 436.477 296.746 432.337 297.286 428.077C297.826 423.817 298.306 418.957 298.726 413.497C298.846 410.497 298.906 408.307 298.906 406.927L298.816 402.247C298.816 401.167 298.786 400.327 298.726 399.727C298.726 399.307 298.696 398.797 298.636 398.197C298.636 397.537 298.666 396.787 298.726 395.947C298.726 393.907 298.756 392.317 298.816 391.177C298.936 389.977 299.206 388.837 299.626 387.757C300.586 385.297 301.846 383.407 303.406 382.087ZM339.628 381.457C340.408 381.037 341.248 380.827 342.148 380.827C343.408 380.827 344.578 381.187 345.658 381.907C346.078 382.207 346.468 382.507 346.828 382.807C347.188 383.107 347.518 383.377 347.818 383.617C348.178 383.857 348.658 384.097 349.258 384.337C349.858 384.577 350.368 384.817 350.788 385.057C352.588 386.017 355.228 387.517 358.708 389.557L366.718 394.147C371.338 396.787 375.388 399.067 378.868 400.987L384.628 404.047C388.048 405.787 390.928 407.347 393.268 408.727C395.668 410.107 397.888 411.667 399.928 413.407C401.428 414.787 402.598 416.137 403.438 417.457C404.278 418.777 404.698 420.217 404.698 421.777L404.608 422.767C404.008 426.247 402.178 429.577 399.118 432.757C396.778 435.277 394.018 437.437 390.838 439.237C387.718 441.037 384.118 442.747 380.038 444.367C373.078 447.007 365.098 449.377 356.098 451.477C355.138 451.717 354.448 451.867 354.028 451.927L350.338 452.827L345.118 453.817C343.498 454.117 341.518 454.417 339.178 454.717C338.938 454.777 338.488 454.897 337.828 455.077C337.228 455.197 336.688 455.257 336.208 455.257C335.968 455.257 335.608 455.197 335.128 455.077C333.868 454.837 333.238 454.087 333.238 452.827C333.238 451.987 333.538 451.027 334.138 449.947C334.678 448.807 335.248 447.907 335.848 447.247C337.648 445.147 340.288 443.707 343.768 442.927C344.488 442.747 344.908 442.567 345.028 442.387C345.208 442.147 345.328 441.637 345.388 440.857C345.388 439.777 345.448 438.157 345.568 435.997C346.048 430.297 346.348 425.947 346.468 422.947C346.708 420.067 346.858 417.907 346.918 416.467C346.978 416.167 347.038 415.777 347.098 415.297C347.158 414.757 347.188 414.127 347.188 413.407C347.188 412.627 347.068 411.907 346.828 411.247C345.568 408.187 343.558 404.407 340.798 399.907C340.798 399.967 340.828 400.057 340.888 400.177C341.008 400.237 341.098 400.387 341.158 400.627C340.378 399.247 339.088 397.237 337.288 394.597C337.048 394.297 336.778 393.907 336.478 393.427C336.178 392.947 335.908 392.557 335.668 392.257C335.488 392.077 335.248 391.837 334.948 391.537C334.648 391.177 334.408 390.877 334.228 390.637C333.928 390.037 333.778 389.497 333.778 389.017C333.778 387.697 334.438 386.317 335.758 384.877C337.018 383.437 338.308 382.297 339.628 381.457ZM360.598 439.417C366.058 438.217 371.968 436.627 378.328 434.647C381.748 433.567 384.538 432.577 386.698 431.677C388.858 430.777 390.898 429.607 392.818 428.167C391.078 426.067 389.098 424.267 386.878 422.767C384.718 421.207 381.628 419.227 377.608 416.827L370.858 412.777L359.968 406.027C362.188 412.327 363.298 418.237 363.298 423.757C363.298 427.777 362.728 431.767 361.588 435.727L360.598 439.417ZM444.207 381.457C444.987 381.037 445.827 380.827 446.727 380.827C447.987 380.827 449.157 381.187 450.237 381.907C450.657 382.207 451.047 382.507 451.407 382.807C451.767 383.107 452.097 383.377 452.397 383.617C452.757 383.857 453.237 384.097 453.837 384.337C454.437 384.577 454.947 384.817 455.367 385.057C457.167 386.017 459.807 387.517 463.287 389.557L471.297 394.147C475.917 396.787 479.967 399.067 483.447 400.987L489.207 404.047C492.627 405.787 495.507 407.347 497.847 408.727C500.247 410.107 502.467 411.667 504.507 413.407C506.007 414.787 507.177 416.137 508.017 417.457C508.857 418.777 509.277 420.217 509.277 421.777L509.187 422.767C508.587 426.247 506.757 429.577 503.697 432.757C501.357 435.277 498.597 437.437 495.417 439.237C492.297 441.037 488.697 442.747 484.617 444.367C477.657 447.007 469.677 449.377 460.677 451.477C459.717 451.717 459.027 451.867 458.607 451.927L454.917 452.827L449.697 453.817C448.077 454.117 446.097 454.417 443.757 454.717C443.517 454.777 443.067 454.897 442.407 455.077C441.807 455.197 441.267 455.257 440.787 455.257C440.547 455.257 440.187 455.197 439.707 455.077C438.447 454.837 437.817 454.087 437.817 452.827C437.817 451.987 438.117 451.027 438.717 449.947C439.257 448.807 439.827 447.907 440.427 447.247C442.227 445.147 444.867 443.707 448.347 442.927C449.067 442.747 449.487 442.567 449.607 442.387C449.787 442.147 449.907 441.637 449.967 440.857C449.967 439.777 450.027 438.157 450.147 435.997C450.627 430.297 450.927 425.947 451.047 422.947C451.287 420.067 451.437 417.907 451.497 416.467C451.557 416.167 451.617 415.777 451.677 415.297C451.737 414.757 451.767 414.127 451.767 413.407C451.767 412.627 451.647 411.907 451.407 411.247C450.147 408.187 448.137 404.407 445.377 399.907C445.377 399.967 445.407 400.057 445.467 400.177C445.587 400.237 445.677 400.387 445.737 400.627C444.957 399.247 443.667 397.237 441.867 394.597C441.627 394.297 441.357 393.907 441.057 393.427C440.757 392.947 440.487 392.557 440.247 392.257C440.067 392.077 439.827 391.837 439.527 391.537C439.227 391.177 438.987 390.877 438.807 390.637C438.507 390.037 438.357 389.497 438.357 389.017C438.357 387.697 439.017 386.317 440.337 384.877C441.597 383.437 442.887 382.297 444.207 381.457ZM465.177 439.417C470.637 438.217 476.547 436.627 482.907 434.647C486.327 433.567 489.117 432.577 491.277 431.677C493.437 430.777 495.477 429.607 497.397 428.167C495.657 426.067 493.677 424.267 491.457 422.767C489.297 421.207 486.207 419.227 482.187 416.827L475.437 412.777L464.547 406.027C466.767 412.327 467.877 418.237 467.877 423.757C467.877 427.777 467.307 431.767 466.167 435.727L465.177 439.417ZM559.462 439.687C561.742 439.987 562.882 441.187 562.882 443.287C562.882 444.067 562.702 444.937 562.342 445.897C562.042 446.797 561.622 447.637 561.082 448.417C559.942 450.097 558.622 451.237 557.122 451.837C555.682 452.437 553.792 452.797 551.452 452.917C546.712 453.097 543.322 453.187 541.282 453.187C535.402 453.367 531.322 453.517 529.042 453.637C524.362 453.817 520.252 454.417 516.712 455.437C515.272 455.797 514.282 455.977 513.742 455.977C513.082 455.977 512.572 455.767 512.212 455.347C511.852 454.927 511.672 454.177 511.672 453.097C511.672 451.957 511.882 450.787 512.302 449.587C512.782 448.327 513.502 446.647 514.462 444.547C515.302 442.927 515.962 441.427 516.442 440.047C516.562 439.627 516.832 438.787 517.252 437.527C517.732 436.267 518.062 435.127 518.242 434.107C518.302 433.807 518.332 433.447 518.332 433.027C518.332 432.667 518.272 432.247 518.152 431.767C518.032 431.227 517.942 430.717 517.882 430.237C517.822 429.277 517.942 428.347 518.242 427.447C518.602 426.487 519.112 425.407 519.772 424.207C520.792 422.107 521.392 420.607 521.572 419.707C522.652 414.547 523.252 410.647 523.372 408.007L523.462 405.217C523.462 403.417 523.282 402.097 522.922 401.257C522.622 400.537 522.082 399.817 521.302 399.097C520.582 398.377 520.102 397.777 519.862 397.297C519.562 396.757 519.412 396.037 519.412 395.137C519.412 394.117 519.652 393.037 520.132 391.897C520.672 390.697 521.332 389.617 522.112 388.657C523.492 386.857 525.142 385.957 527.062 385.957C528.502 385.957 529.942 386.377 531.382 387.217C532.882 388.057 534.682 389.287 536.782 390.907C538.342 392.107 539.512 392.947 540.292 393.427C543.112 395.107 545.482 396.397 547.402 397.297C549.322 398.197 551.362 398.857 553.522 399.277C554.542 399.457 555.502 399.547 556.402 399.547C557.362 399.547 558.322 399.457 559.282 399.277C559.642 399.217 560.212 399.037 560.992 398.737C561.832 398.377 562.462 398.197 562.882 398.197C563.302 398.197 563.662 398.317 563.962 398.557C564.562 398.977 564.862 399.667 564.862 400.627C564.862 401.587 564.562 402.667 563.962 403.867C563.422 405.007 562.852 405.967 562.252 406.747C560.392 409.027 557.752 410.407 554.332 410.887C553.252 411.067 552.142 411.157 551.002 411.157C547.942 411.157 544.942 410.647 542.002 409.627C539.062 408.547 535.702 407.047 531.922 405.127C531.562 409.747 530.872 414.547 529.852 419.527L532.912 418.807C536.092 418.027 538.672 417.457 540.652 417.097C542.692 416.677 544.672 416.467 546.592 416.467C547.432 416.467 548.062 416.497 548.482 416.557C550.582 416.737 551.632 417.787 551.632 419.707C551.632 420.607 551.392 421.597 550.912 422.677C550.492 423.757 549.952 424.747 549.292 425.647C548.092 427.267 546.622 428.317 544.882 428.797C543.142 429.277 540.892 429.547 538.132 429.607L535.072 429.787C532.912 430.027 531.262 430.237 530.122 430.417C528.982 430.537 528.262 430.687 527.962 430.867C527.722 430.987 527.482 431.257 527.242 431.677C527.062 432.097 526.852 432.487 526.612 432.847C526.192 433.567 525.802 434.497 525.442 435.637C525.082 436.777 524.782 437.917 524.542 439.057C524.182 440.737 523.882 441.937 523.642 442.657C527.002 441.877 531.892 441.157 538.312 440.497C544.792 439.777 550.252 439.417 554.692 439.417C556.612 439.417 558.202 439.507 559.462 439.687ZM617.636 383.887C618.956 383.947 619.616 384.607 619.616 385.867C619.616 386.887 619.286 388.057 618.626 389.377C617.966 390.697 617.306 391.747 616.646 392.527C615.386 394.087 613.946 395.137 612.326 395.677C610.706 396.217 608.846 396.487 606.746 396.487C606.026 396.487 604.886 396.427 603.326 396.307C601.406 396.187 599.966 396.157 599.006 396.217C598.526 396.217 597.956 396.217 597.296 396.217C596.696 396.217 596.276 396.337 596.036 396.577C595.856 396.817 595.616 397.357 595.316 398.197C595.136 398.797 595.016 399.577 594.956 400.537C594.956 401.497 594.956 402.187 594.956 402.607L594.326 412.597C594.146 416.077 594.026 419.137 593.966 421.777C593.906 424.357 593.846 426.517 593.786 428.257C593.786 430.597 593.756 432.337 593.696 433.477C594.176 433.357 594.506 433.297 594.686 433.297C596.006 433.297 596.666 434.317 596.666 436.357C596.666 437.797 596.426 439.327 595.946 440.947C595.526 442.567 594.986 444.367 594.326 446.347C593.966 447.367 593.186 448.747 591.986 450.487C590.846 452.167 589.556 453.637 588.116 454.897C586.676 456.157 585.416 456.787 584.336 456.787C582.956 456.787 582.026 455.707 581.546 453.547C581.066 451.447 580.826 448.927 580.826 445.987C580.826 442.687 581.156 438.517 581.816 433.477L582.446 426.997C583.346 415.297 584.456 405.757 585.776 398.377C585.416 398.497 584.426 398.827 582.806 399.367C581.246 399.847 579.806 400.417 578.486 401.077C577.166 401.737 576.146 402.427 575.426 403.147C574.646 403.987 573.956 405.067 573.356 406.387C572.576 407.707 571.886 408.727 571.286 409.447C570.746 410.167 569.936 410.737 568.856 411.157C568.196 411.457 567.536 411.607 566.876 411.607C565.616 411.607 564.986 410.827 564.986 409.267C564.986 408.247 565.226 407.047 565.706 405.667C566.186 404.287 566.696 403.177 567.236 402.337C571.256 395.737 577.436 390.997 585.776 388.117C594.116 385.177 602.936 383.707 612.236 383.707C613.556 383.707 615.356 383.767 617.636 383.887ZM638.417 423.487C639.377 423.847 640.457 424.357 641.657 425.017C639.857 418.537 638.477 413.017 637.517 408.457C635.177 413.137 632.087 418.837 628.247 425.557C627.947 426.217 627.437 427.147 626.717 428.347C629.117 424.627 631.847 422.767 634.907 422.767C636.107 422.767 637.277 423.007 638.417 423.487ZM652.817 410.707C655.277 419.047 658.187 426.817 661.547 434.017L662.537 435.997C663.377 437.437 664.007 438.667 664.427 439.687C664.847 440.647 665.057 441.637 665.057 442.657C665.057 444.217 664.397 445.837 663.077 447.517C661.757 449.137 660.317 450.337 658.757 451.117C657.797 451.657 656.777 451.927 655.697 451.927C653.897 451.927 652.097 451.387 650.297 450.307C648.557 449.167 646.457 447.547 643.997 445.447C642.257 444.007 640.937 442.987 640.037 442.387C639.437 441.967 638.177 441.307 636.257 440.407C632.897 438.727 630.287 437.227 628.427 435.907C626.627 434.587 625.727 433.027 625.727 431.227C625.727 430.747 625.937 430.027 626.357 429.067C625.217 431.107 623.627 434.227 621.587 438.427C619.067 443.527 617.627 446.377 617.267 446.977C616.547 448.297 615.377 449.767 613.757 451.387C612.137 452.947 610.637 453.727 609.257 453.727C608.537 453.727 607.907 453.457 607.367 452.917C606.947 452.497 606.737 451.837 606.737 450.937C606.737 448.417 608.657 443.947 612.497 437.527C612.737 437.047 613.127 436.357 613.667 435.457L615.647 431.677C619.727 423.997 622.697 418.207 624.557 414.307C625.637 412.027 627.197 408.607 629.237 404.047L632.477 396.757C633.797 393.937 635.117 391.597 636.437 389.737C637.757 387.817 639.407 386.347 641.387 385.327C642.407 384.787 643.367 384.517 644.267 384.517C645.467 384.517 646.337 385.087 646.877 386.227C647.417 387.307 647.897 388.927 648.317 391.087C649.397 397.267 650.897 403.807 652.817 410.707ZM676.281 391.807C675.261 391.087 674.751 389.947 674.751 388.387C674.751 388.087 674.811 387.577 674.931 386.857C675.351 385.057 676.161 383.377 677.361 381.817C678.621 380.197 680.061 378.907 681.681 377.947C682.941 377.227 684.201 376.867 685.461 376.867C686.781 376.867 687.801 377.317 688.521 378.217C689.061 378.937 689.331 379.807 689.331 380.827C689.331 381.727 689.061 382.867 688.521 384.247C687.921 385.927 686.991 387.457 685.731 388.837C684.531 390.217 683.151 391.267 681.591 391.987C680.331 392.587 679.221 392.797 678.261 392.617C677.361 392.497 676.701 392.227 676.281 391.807ZM683.931 443.737C683.931 444.157 683.841 444.637 683.661 445.177C683.541 445.717 683.451 446.107 683.391 446.347L683.211 446.887C682.611 449.107 681.531 451.207 679.971 453.187C678.411 455.167 676.461 456.157 674.121 456.157C673.881 456.157 673.701 456.127 673.581 456.067C672.621 455.947 671.841 455.587 671.241 454.987C670.341 453.907 669.891 452.227 669.891 449.947C669.891 449.107 669.951 448.147 670.071 447.067C670.011 446.887 670.011 446.707 670.071 446.527C670.071 446.287 670.071 446.137 670.071 446.077C670.251 441.817 670.881 436.027 671.961 428.707L672.321 425.917C672.921 421.837 673.311 418.777 673.491 416.737L673.851 412.687C673.851 412.267 673.881 411.937 673.941 411.697C674.061 410.857 674.091 410.317 674.031 410.077C673.971 410.017 673.941 409.957 673.941 409.897C673.941 409.777 673.911 409.687 673.851 409.627C673.491 409.147 673.311 408.517 673.311 407.737C673.311 406.777 673.401 405.817 673.581 404.857C673.641 404.677 673.671 404.377 673.671 403.957C674.091 401.197 675.261 398.827 677.181 396.847C679.161 394.867 681.021 393.877 682.761 393.877C683.421 393.877 684.051 394.027 684.651 394.327C686.151 395.107 686.901 396.757 686.901 399.277C686.781 400.957 686.721 402.217 686.721 403.057L686.631 405.397L686.361 410.347C686.301 413.467 686.121 416.647 685.821 419.887C685.761 421.087 685.401 425.047 684.741 431.767L684.471 434.557L684.291 436.357L683.751 441.307C683.691 441.547 683.661 441.757 683.661 441.937C683.721 442.057 683.751 442.207 683.751 442.387C683.871 442.687 683.901 442.927 683.841 443.107L683.931 443.737ZM730.97 446.707C730.67 447.067 729.95 448.027 728.81 449.587C727.73 451.147 726.53 452.497 725.21 453.637C723.95 454.717 722.78 455.257 721.7 455.257C721.04 455.257 720.41 455.047 719.81 454.627C719.27 454.267 718.88 453.667 718.64 452.827C718.4 451.987 718.16 450.847 717.92 449.407C717.56 447.247 717.08 445.657 716.48 444.637C715.94 443.557 714.98 443.137 713.6 443.377C712.7 443.557 711.68 444.157 710.54 445.177C709.4 446.197 708.38 447.187 707.48 448.147C706.58 449.107 705.95 449.767 705.59 450.127L703.79 451.837C702.89 452.797 702.11 453.577 701.45 454.177C700.79 454.777 700.07 455.257 699.29 455.617C698.39 456.037 697.58 456.247 696.86 456.247C695.3 456.247 694.52 454.987 694.52 452.467C694.52 451.207 694.64 449.857 694.88 448.417C695.12 446.977 695.27 446.137 695.33 445.897C697.97 425.857 700.1 410.347 701.72 399.367C702.38 395.227 703.25 391.597 704.33 388.477C705.47 385.357 707.33 383.437 709.91 382.717C710.51 382.597 710.9 382.537 711.08 382.537C712.04 382.537 712.73 382.897 713.15 383.617C713.57 384.277 713.78 385.177 713.78 386.317C713.78 387.397 713.6 388.507 713.24 389.647C712.88 390.787 712.46 391.687 711.98 392.347V393.517C711.98 394.417 711.86 395.437 711.62 396.577C711.44 397.717 711.32 398.527 711.26 399.007L709.64 410.707L705.95 437.437C708.29 435.337 710.48 433.597 712.52 432.217C714.56 430.837 716.57 430.147 718.55 430.147C721.25 430.147 723.26 431.287 724.58 433.567C725.9 435.847 727.04 438.757 728 442.297C728.9 441.337 729.74 440.857 730.52 440.857C731.06 440.857 731.48 441.097 731.78 441.577C732.08 442.057 732.23 442.657 732.23 443.377C732.23 444.697 731.81 445.807 730.97 446.707ZM788.113 436.807C788.413 437.167 789.103 437.947 790.183 439.147C791.323 440.347 792.223 441.577 792.883 442.837C793.603 444.037 793.963 445.207 793.963 446.347C793.963 447.787 793.423 449.137 792.343 450.397C791.023 452.017 789.403 452.827 787.483 452.827C786.643 452.827 785.713 452.707 784.693 452.467C783.673 452.227 783.013 452.077 782.713 452.017C777.973 451.057 772.453 450.577 766.153 450.577C761.293 450.577 756.133 450.817 750.673 451.297C750.193 451.357 749.503 451.417 748.603 451.477C747.703 451.537 746.893 451.567 746.173 451.567C744.013 451.567 742.273 451.237 740.953 450.577C739.693 449.857 739.063 448.567 739.063 446.707C739.063 445.627 739.273 444.487 739.693 443.287C740.113 442.027 740.743 440.527 741.583 438.787L742.393 436.897C743.293 434.677 744.283 432.997 745.363 431.857C746.443 430.657 747.973 430.057 749.953 430.057C751.573 430.057 752.833 430.597 753.733 431.677C754.693 432.697 755.173 433.987 755.173 435.547C755.173 436.627 754.903 437.707 754.363 438.787C758.143 438.547 762.433 438.427 767.233 438.427C770.053 438.427 772.183 438.457 773.623 438.517C768.103 431.557 763.993 426.307 761.293 422.767L755.083 414.937C754.123 413.737 753.313 412.807 752.653 412.147C750.433 409.567 748.753 407.377 747.613 405.577C746.473 403.717 745.903 401.827 745.903 399.907C745.903 398.107 746.533 396.667 747.793 395.587C749.113 394.447 750.643 393.607 752.383 393.067C754.183 392.467 756.433 391.897 759.133 391.357L762.913 390.547C767.653 389.347 772.543 388.267 777.583 387.307C778.003 387.247 778.843 387.097 780.103 386.857C782.143 386.317 783.943 386.047 785.503 386.047C787.483 386.047 788.983 386.587 790.003 387.667C791.083 388.807 791.623 389.977 791.623 391.177C791.623 392.317 791.263 393.457 790.543 394.597C789.883 395.737 788.803 397.237 787.303 399.097C785.503 401.257 784.363 402.847 783.883 403.867C783.103 405.547 782.263 406.957 781.363 408.097C780.523 409.237 779.563 409.807 778.483 409.807C777.703 409.807 776.923 409.507 776.143 408.907C775.303 408.247 774.883 407.347 774.883 406.207C774.883 405.367 775.063 404.497 775.423 403.597C775.843 402.637 776.233 401.767 776.593 400.987C777.013 400.207 777.283 399.727 777.403 399.547C774.343 400.087 769.813 401.137 763.813 402.697C763.093 402.937 761.623 403.327 759.403 403.867L770.203 416.287C779.443 426.787 785.413 433.627 788.113 436.807Z" fill="white"/>
<path d="M93.8468 459.351C92.0744 459.351 90.6841 457.956 90.6841 456.211V430.325L80.2922 420.697C76.3302 421.22 72.1594 419.58 68.5102 415.917L87.6257 396.694C91.3099 400.357 92.839 404.474 92.2829 408.486L124.606 443.408C125.926 444.838 126.135 446.827 124.501 448.466L128.95 454.223C129.367 454.781 129.402 455.583 128.776 456.211L127.768 457.258C127.177 457.851 126.378 457.886 125.753 457.397L120.018 452.897C118.454 454.537 116.438 454.328 115.048 453.002L97.0095 436.256V456.211C97.0095 457.956 95.6195 459.351 93.8468 459.351ZM121.026 446.268L90.3715 413.614C89.7804 414.626 89.0855 415.568 88.2165 416.51C87.3822 417.382 86.4092 418.185 85.5055 418.743L117.828 449.478L121.026 446.268ZM84.1501 393.171L64.9999 412.393C58.8829 406.323 58.6394 398.543 64.5132 392.682C70.3523 386.891 78.0331 387.031 84.1501 393.171Z" fill="#E35448"/>
<path d="M1065.44 437.528C1065.44 438.83 1065.95 439.651 1067.08 440.189C1070.23 441.746 1071.98 443.529 1073.93 447.379C1074.53 448.426 1075.41 448.964 1076.57 448.964H1124.32C1125.45 448.964 1126.33 448.426 1126.92 447.379C1128.87 443.529 1130.63 441.746 1133.8 440.189C1134.93 439.651 1135.44 438.83 1135.44 437.528V411.431C1135.44 410.1 1134.93 409.279 1133.8 408.77C1130.63 407.213 1128.87 405.401 1126.92 401.58C1126.33 400.505 1125.45 399.967 1124.32 399.967H1076.57C1075.41 399.967 1074.53 400.505 1073.93 401.58C1071.98 405.401 1070.23 407.213 1067.08 408.77C1065.95 409.279 1065.44 410.1 1065.44 411.431V437.528ZM1070 436.877V412.082C1073.42 410.666 1075.63 408.374 1077.41 404.524H1123.47C1125.22 408.374 1127.46 410.666 1130.88 412.082V436.877C1127.46 438.293 1125.22 440.585 1123.47 444.407H1077.41C1075.63 440.585 1073.42 438.293 1070 436.877ZM1077.78 436.991C1077.78 438.491 1078.8 439.482 1080.27 439.482H1120.58C1122.08 439.482 1123.07 438.491 1123.07 436.991V411.968C1123.07 410.497 1122.08 409.477 1120.58 409.477H1080.27C1078.8 409.477 1077.78 410.497 1077.78 411.968V436.991ZM1081.21 435.434V430.622H1084.94V436.056H1081.86C1081.43 436.056 1081.21 435.858 1081.21 435.434ZM1081.21 427.197V421.79H1084.94V427.197H1081.21ZM1081.21 418.365V413.525C1081.21 413.129 1081.43 412.902 1081.86 412.902H1084.94V418.365H1081.21ZM1115.94 418.365V412.902H1119.02C1119.45 412.902 1119.65 413.129 1119.65 413.525V418.365H1115.94ZM1115.94 427.197V421.79H1119.65V427.197H1115.94ZM1115.94 436.056V430.622H1119.65V435.434C1119.65 435.858 1119.45 436.056 1119.02 436.056H1115.94ZM1088.37 436.056V412.902H1112.51V436.056H1088.37Z" fill="#B53227"/>
<path d="M1189.12 405.217L1189.3 405.127L1189.12 405.217ZM1205.77 428.527C1206.31 428.287 1206.88 428.167 1207.48 428.167C1208.92 428.167 1210.06 429.037 1210.9 430.777C1211.8 432.517 1212.25 434.407 1212.25 436.447C1212.25 437.527 1212.1 438.457 1211.8 439.237C1210.9 441.577 1209.43 443.707 1207.39 445.627C1205.35 447.547 1202.89 449.497 1200.01 451.477C1197.19 453.337 1193.86 455.047 1190.02 456.607C1186.24 458.107 1182.73 458.857 1179.49 458.857C1174.63 458.857 1171.39 456.937 1169.77 453.097C1168.81 450.937 1168.33 448.207 1168.33 444.907C1168.33 440.767 1168.99 436.507 1170.31 432.127C1171.69 427.687 1173.55 422.437 1175.89 416.377C1178.23 410.437 1181.02 404.797 1184.26 399.457C1187.5 394.057 1191.07 391.357 1194.97 391.357C1195.99 391.357 1196.92 391.567 1197.76 391.987C1198.42 387.427 1199.95 384.067 1202.35 381.907C1203.85 380.647 1205.14 380.017 1206.22 380.017C1207.48 380.017 1208.44 380.767 1209.1 382.267C1209.52 383.347 1209.73 384.727 1209.73 386.407C1209.73 387.247 1209.67 388.387 1209.55 389.827L1209.46 392.527C1209.34 396.907 1209.07 401.287 1208.65 405.667C1208.29 409.627 1207.42 413.407 1206.04 417.007C1204.66 420.607 1202.47 422.557 1199.47 422.857C1197.97 423.037 1196.74 422.257 1195.78 420.517C1194.88 418.777 1193.92 416.227 1192.9 412.867C1192.24 410.707 1191.67 409.087 1191.19 408.007C1190.77 406.867 1190.29 406.027 1189.75 405.487C1186.33 411.547 1183.81 418.177 1182.19 425.377L1181.74 427.177C1181.26 429.337 1180.87 431.137 1180.57 432.577C1180.33 433.957 1180.21 435.337 1180.21 436.717C1180.21 439.777 1180.99 441.877 1182.55 443.017C1183.63 443.917 1185.16 444.367 1187.14 444.367C1188.46 444.367 1189.9 444.157 1191.46 443.737C1193.02 443.377 1194.67 442.807 1196.41 442.027C1196.95 441.787 1197.76 441.367 1198.84 440.767C1199.32 440.707 1199.56 440.527 1199.56 440.227C1199.56 439.987 1199.41 439.747 1199.11 439.507C1199.23 438.967 1199.35 438.217 1199.47 437.257C1199.59 436.357 1199.74 435.607 1199.92 435.007C1200.1 434.407 1200.4 433.777 1200.82 433.117C1202.38 430.837 1204.03 429.307 1205.77 428.527ZM1247.09 382.177C1248.71 381.817 1250.21 381.637 1251.59 381.637C1256.81 381.637 1260.71 383.887 1263.29 388.387C1265.87 392.827 1267.16 398.617 1267.16 405.757C1267.16 413.197 1265.84 420.877 1263.2 428.797C1260.62 436.657 1257.05 443.197 1252.49 448.417C1247.99 453.637 1242.98 456.247 1237.46 456.247C1234.88 456.247 1232.36 455.647 1229.9 454.447C1226.9 452.947 1224.65 450.397 1223.15 446.797C1221.71 443.197 1220.99 438.877 1220.99 433.837C1220.99 426.997 1222.19 419.737 1224.59 412.057C1227.05 404.317 1230.29 397.657 1234.31 392.077C1238.33 386.497 1242.59 383.197 1247.09 382.177ZM1245.47 396.757C1242.35 396.817 1239.5 398.437 1236.92 401.617C1234.4 404.737 1232.39 408.667 1230.89 413.407C1229.45 418.087 1228.73 422.677 1228.73 427.177C1228.73 431.737 1229.54 435.457 1231.16 438.337C1232.78 441.157 1235.21 442.567 1238.45 442.567C1239.77 442.567 1241.09 442.357 1242.41 441.937C1245.17 441.037 1247.72 438.997 1250.06 435.817C1252.46 432.637 1254.35 428.917 1255.73 424.657C1257.11 420.337 1257.8 416.167 1257.8 412.147C1257.8 407.467 1256.78 403.717 1254.74 400.897C1252.76 398.017 1249.67 396.637 1245.47 396.757ZM1284.35 382.087C1285.25 381.367 1286.24 380.917 1287.32 380.737H1287.59C1288.55 380.737 1289.18 381.157 1289.48 381.997C1289.84 382.657 1290.08 383.557 1290.2 384.697C1290.32 385.297 1290.38 385.717 1290.38 385.957C1291.22 388.897 1291.97 391.477 1292.63 393.697C1293.35 395.857 1293.95 397.687 1294.43 399.187C1294.91 400.807 1295.66 403.267 1296.68 406.567C1297.7 409.807 1298.57 412.687 1299.29 415.207C1299.53 415.987 1299.68 416.497 1299.74 416.737C1299.74 415.057 1299.68 412.537 1299.56 409.177L1299.47 405.397L1299.38 403.057C1299.32 400.597 1299.2 398.557 1299.02 396.937C1298.9 395.317 1298.63 393.727 1298.21 392.167C1298.21 390.607 1298.45 389.227 1298.93 388.027L1300.01 385.687C1300.67 384.427 1301.66 383.167 1302.98 381.907C1303.94 381.067 1304.99 380.557 1306.13 380.377C1307.15 380.377 1307.93 380.827 1308.47 381.727C1309.37 384.067 1309.88 386.617 1310 389.377C1310 391.057 1310.03 392.287 1310.09 393.067C1310.09 396.187 1310.12 398.497 1310.18 399.997C1310.18 403.297 1310.12 408.187 1310 414.667C1310 417.967 1309.82 422.857 1309.46 429.337L1309.37 431.227C1309.31 431.887 1309.22 433.027 1309.1 434.647C1309.04 436.267 1308.92 437.707 1308.74 438.967C1308.2 442.987 1307.54 446.167 1306.76 448.507C1306.1 450.247 1305.5 451.597 1304.96 452.557C1304.36 453.697 1303.34 454.927 1301.9 456.247C1300.88 457.147 1299.89 457.597 1298.93 457.597C1298.57 457.597 1298.21 457.507 1297.85 457.327C1296.89 456.847 1296.08 455.587 1295.42 453.547C1294.88 451.867 1294.34 449.887 1293.8 447.607C1293.44 445.927 1293.2 444.667 1293.08 443.827C1292.42 440.467 1291.94 438.187 1291.64 436.987C1290.98 433.627 1289.87 428.647 1288.31 422.047C1286.33 434.287 1283.27 444.427 1279.13 452.467C1278.71 453.367 1278.11 454.207 1277.33 454.987C1276.61 455.767 1275.86 456.337 1275.08 456.697C1274.66 456.937 1274.18 457.057 1273.64 457.057C1273.16 457.057 1272.8 456.997 1272.56 456.877C1271.78 456.337 1271.39 455.407 1271.39 454.087C1271.39 453.547 1271.42 453.157 1271.48 452.917C1271.78 451.417 1272.26 450.097 1272.92 448.957L1273.1 448.597C1274.18 446.137 1275.14 443.437 1275.98 440.497C1276.94 436.477 1277.69 432.337 1278.23 428.077C1278.77 423.817 1279.25 418.957 1279.67 413.497C1279.79 410.497 1279.85 408.307 1279.85 406.927L1279.76 402.247C1279.76 401.167 1279.73 400.327 1279.67 399.727C1279.67 399.307 1279.64 398.797 1279.58 398.197C1279.58 397.537 1279.61 396.787 1279.67 395.947C1279.67 393.907 1279.7 392.317 1279.76 391.177C1279.88 389.977 1280.15 388.837 1280.57 387.757C1281.53 385.297 1282.79 383.407 1284.35 382.087ZM1366.93 383.887C1368.25 383.947 1368.91 384.607 1368.91 385.867C1368.91 386.887 1368.58 388.057 1367.92 389.377C1367.26 390.697 1366.6 391.747 1365.94 392.527C1364.68 394.087 1363.24 395.137 1361.62 395.677C1360 396.217 1358.14 396.487 1356.04 396.487C1355.32 396.487 1354.18 396.427 1352.62 396.307C1350.7 396.187 1349.26 396.157 1348.3 396.217C1347.82 396.217 1347.25 396.217 1346.59 396.217C1345.99 396.217 1345.57 396.337 1345.33 396.577C1345.15 396.817 1344.91 397.357 1344.61 398.197C1344.43 398.797 1344.31 399.577 1344.25 400.537C1344.25 401.497 1344.25 402.187 1344.25 402.607L1343.62 412.597C1343.44 416.077 1343.32 419.137 1343.26 421.777C1343.2 424.357 1343.14 426.517 1343.08 428.257C1343.08 430.597 1343.05 432.337 1342.99 433.477C1343.47 433.357 1343.8 433.297 1343.98 433.297C1345.3 433.297 1345.96 434.317 1345.96 436.357C1345.96 437.797 1345.72 439.327 1345.24 440.947C1344.82 442.567 1344.28 444.367 1343.62 446.347C1343.26 447.367 1342.48 448.747 1341.28 450.487C1340.14 452.167 1338.85 453.637 1337.41 454.897C1335.97 456.157 1334.71 456.787 1333.63 456.787C1332.25 456.787 1331.32 455.707 1330.84 453.547C1330.36 451.447 1330.12 448.927 1330.12 445.987C1330.12 442.687 1330.45 438.517 1331.11 433.477L1331.74 426.997C1332.64 415.297 1333.75 405.757 1335.07 398.377C1334.71 398.497 1333.72 398.827 1332.1 399.367C1330.54 399.847 1329.1 400.417 1327.78 401.077C1326.46 401.737 1325.44 402.427 1324.72 403.147C1323.94 403.987 1323.25 405.067 1322.65 406.387C1321.87 407.707 1321.18 408.727 1320.58 409.447C1320.04 410.167 1319.23 410.737 1318.15 411.157C1317.49 411.457 1316.83 411.607 1316.17 411.607C1314.91 411.607 1314.28 410.827 1314.28 409.267C1314.28 408.247 1314.52 407.047 1315 405.667C1315.48 404.287 1315.99 403.177 1316.53 402.337C1320.55 395.737 1326.73 390.997 1335.07 388.117C1343.41 385.177 1352.23 383.707 1361.53 383.707C1362.85 383.707 1364.65 383.767 1366.93 383.887ZM1387.71 423.487C1388.67 423.847 1389.75 424.357 1390.95 425.017C1389.15 418.537 1387.77 413.017 1386.81 408.457C1384.47 413.137 1381.38 418.837 1377.54 425.557C1377.24 426.217 1376.73 427.147 1376.01 428.347C1378.41 424.627 1381.14 422.767 1384.2 422.767C1385.4 422.767 1386.57 423.007 1387.71 423.487ZM1402.11 410.707C1404.57 419.047 1407.48 426.817 1410.84 434.017L1411.83 435.997C1412.67 437.437 1413.3 438.667 1413.72 439.687C1414.14 440.647 1414.35 441.637 1414.35 442.657C1414.35 444.217 1413.69 445.837 1412.37 447.517C1411.05 449.137 1409.61 450.337 1408.05 451.117C1407.09 451.657 1406.07 451.927 1404.99 451.927C1403.19 451.927 1401.39 451.387 1399.59 450.307C1397.85 449.167 1395.75 447.547 1393.29 445.447C1391.55 444.007 1390.23 442.987 1389.33 442.387C1388.73 441.967 1387.47 441.307 1385.55 440.407C1382.19 438.727 1379.58 437.227 1377.72 435.907C1375.92 434.587 1375.02 433.027 1375.02 431.227C1375.02 430.747 1375.23 430.027 1375.65 429.067C1374.51 431.107 1372.92 434.227 1370.88 438.427C1368.36 443.527 1366.92 446.377 1366.56 446.977C1365.84 448.297 1364.67 449.767 1363.05 451.387C1361.43 452.947 1359.93 453.727 1358.55 453.727C1357.83 453.727 1357.2 453.457 1356.66 452.917C1356.24 452.497 1356.03 451.837 1356.03 450.937C1356.03 448.417 1357.95 443.947 1361.79 437.527C1362.03 437.047 1362.42 436.357 1362.96 435.457L1364.94 431.677C1369.02 423.997 1371.99 418.207 1373.85 414.307C1374.93 412.027 1376.49 408.607 1378.53 404.047L1381.77 396.757C1383.09 393.937 1384.41 391.597 1385.73 389.737C1387.05 387.817 1388.7 386.347 1390.68 385.327C1391.7 384.787 1392.66 384.517 1393.56 384.517C1394.76 384.517 1395.63 385.087 1396.17 386.227C1396.71 387.307 1397.19 388.927 1397.61 391.087C1398.69 397.267 1400.19 403.807 1402.11 410.707ZM1443.84 405.217L1444.02 405.127L1443.84 405.217ZM1460.49 428.527C1461.03 428.287 1461.6 428.167 1462.2 428.167C1463.64 428.167 1464.78 429.037 1465.62 430.777C1466.52 432.517 1466.97 434.407 1466.97 436.447C1466.97 437.527 1466.82 438.457 1466.52 439.237C1465.62 441.577 1464.15 443.707 1462.11 445.627C1460.07 447.547 1457.61 449.497 1454.73 451.477C1451.91 453.337 1448.58 455.047 1444.74 456.607C1440.96 458.107 1437.45 458.857 1434.21 458.857C1429.35 458.857 1426.11 456.937 1424.49 453.097C1423.53 450.937 1423.05 448.207 1423.05 444.907C1423.05 440.767 1423.71 436.507 1425.03 432.127C1426.41 427.687 1428.27 422.437 1430.61 416.377C1432.95 410.437 1435.74 404.797 1438.98 399.457C1442.22 394.057 1445.79 391.357 1449.69 391.357C1450.71 391.357 1451.64 391.567 1452.48 391.987C1453.14 387.427 1454.67 384.067 1457.07 381.907C1458.57 380.647 1459.86 380.017 1460.94 380.017C1462.2 380.017 1463.16 380.767 1463.82 382.267C1464.24 383.347 1464.45 384.727 1464.45 386.407C1464.45 387.247 1464.39 388.387 1464.27 389.827L1464.18 392.527C1464.06 396.907 1463.79 401.287 1463.37 405.667C1463.01 409.627 1462.14 413.407 1460.76 417.007C1459.38 420.607 1457.19 422.557 1454.19 422.857C1452.69 423.037 1451.46 422.257 1450.5 420.517C1449.6 418.777 1448.64 416.227 1447.62 412.867C1446.96 410.707 1446.39 409.087 1445.91 408.007C1445.49 406.867 1445.01 406.027 1444.47 405.487C1441.05 411.547 1438.53 418.177 1436.91 425.377L1436.46 427.177C1435.98 429.337 1435.59 431.137 1435.29 432.577C1435.05 433.957 1434.93 435.337 1434.93 436.717C1434.93 439.777 1435.71 441.877 1437.27 443.017C1438.35 443.917 1439.88 444.367 1441.86 444.367C1443.18 444.367 1444.62 444.157 1446.18 443.737C1447.74 443.377 1449.39 442.807 1451.13 442.027C1451.67 441.787 1452.48 441.367 1453.56 440.767C1454.04 440.707 1454.28 440.527 1454.28 440.227C1454.28 439.987 1454.13 439.747 1453.83 439.507C1453.95 438.967 1454.07 438.217 1454.19 437.257C1454.31 436.357 1454.46 435.607 1454.64 435.007C1454.82 434.407 1455.12 433.777 1455.54 433.117C1457.1 430.837 1458.75 429.307 1460.49 428.527ZM1522.96 383.887C1524.28 383.947 1524.94 384.607 1524.94 385.867C1524.94 386.887 1524.61 388.057 1523.95 389.377C1523.29 390.697 1522.63 391.747 1521.97 392.527C1520.71 394.087 1519.27 395.137 1517.65 395.677C1516.03 396.217 1514.17 396.487 1512.07 396.487C1511.35 396.487 1510.21 396.427 1508.65 396.307C1506.73 396.187 1505.29 396.157 1504.33 396.217C1503.85 396.217 1503.28 396.217 1502.62 396.217C1502.02 396.217 1501.6 396.337 1501.36 396.577C1501.18 396.817 1500.94 397.357 1500.64 398.197C1500.46 398.797 1500.34 399.577 1500.28 400.537C1500.28 401.497 1500.28 402.187 1500.28 402.607L1499.65 412.597C1499.47 416.077 1499.35 419.137 1499.29 421.777C1499.23 424.357 1499.17 426.517 1499.11 428.257C1499.11 430.597 1499.08 432.337 1499.02 433.477C1499.5 433.357 1499.83 433.297 1500.01 433.297C1501.33 433.297 1501.99 434.317 1501.99 436.357C1501.99 437.797 1501.75 439.327 1501.27 440.947C1500.85 442.567 1500.31 444.367 1499.65 446.347C1499.29 447.367 1498.51 448.747 1497.31 450.487C1496.17 452.167 1494.88 453.637 1493.44 454.897C1492 456.157 1490.74 456.787 1489.66 456.787C1488.28 456.787 1487.35 455.707 1486.87 453.547C1486.39 451.447 1486.15 448.927 1486.15 445.987C1486.15 442.687 1486.48 438.517 1487.14 433.477L1487.77 426.997C1488.67 415.297 1489.78 405.757 1491.1 398.377C1490.74 398.497 1489.75 398.827 1488.13 399.367C1486.57 399.847 1485.13 400.417 1483.81 401.077C1482.49 401.737 1481.47 402.427 1480.75 403.147C1479.97 403.987 1479.28 405.067 1478.68 406.387C1477.9 407.707 1477.21 408.727 1476.61 409.447C1476.07 410.167 1475.26 410.737 1474.18 411.157C1473.52 411.457 1472.86 411.607 1472.2 411.607C1470.94 411.607 1470.31 410.827 1470.31 409.267C1470.31 408.247 1470.55 407.047 1471.03 405.667C1471.51 404.287 1472.02 403.177 1472.56 402.337C1476.58 395.737 1482.76 390.997 1491.1 388.117C1499.44 385.177 1508.26 383.707 1517.56 383.707C1518.88 383.707 1520.68 383.767 1522.96 383.887ZM1559.9 391.807C1558.88 391.087 1558.37 389.947 1558.37 388.387C1558.37 388.087 1558.43 387.577 1558.55 386.857C1558.97 385.057 1559.78 383.377 1560.98 381.817C1562.24 380.197 1563.68 378.907 1565.3 377.947C1566.56 377.227 1567.82 376.867 1569.08 376.867C1570.4 376.867 1571.42 377.317 1572.14 378.217C1572.68 378.937 1572.95 379.807 1572.95 380.827C1572.95 381.727 1572.68 382.867 1572.14 384.247C1571.54 385.927 1570.61 387.457 1569.35 388.837C1568.15 390.217 1566.77 391.267 1565.21 391.987C1563.95 392.587 1562.84 392.797 1561.88 392.617C1560.98 392.497 1560.32 392.227 1559.9 391.807ZM1567.55 443.737C1567.55 444.157 1567.46 444.637 1567.28 445.177C1567.16 445.717 1567.07 446.107 1567.01 446.347L1566.83 446.887C1566.23 449.107 1565.15 451.207 1563.59 453.187C1562.03 455.167 1560.08 456.157 1557.74 456.157C1557.5 456.157 1557.32 456.127 1557.2 456.067C1556.24 455.947 1555.46 455.587 1554.86 454.987C1553.96 453.907 1553.51 452.227 1553.51 449.947C1553.51 449.107 1553.57 448.147 1553.69 447.067C1553.63 446.887 1553.63 446.707 1553.69 446.527C1553.69 446.287 1553.69 446.137 1553.69 446.077C1553.87 441.817 1554.5 436.027 1555.58 428.707L1555.94 425.917C1556.54 421.837 1556.93 418.777 1557.11 416.737L1557.47 412.687C1557.47 412.267 1557.5 411.937 1557.56 411.697C1557.68 410.857 1557.71 410.317 1557.65 410.077C1557.59 410.017 1557.56 409.957 1557.56 409.897C1557.56 409.777 1557.53 409.687 1557.47 409.627C1557.11 409.147 1556.93 408.517 1556.93 407.737C1556.93 406.777 1557.02 405.817 1557.2 404.857C1557.26 404.677 1557.29 404.377 1557.29 403.957C1557.71 401.197 1558.88 398.827 1560.8 396.847C1562.78 394.867 1564.64 393.877 1566.38 393.877C1567.04 393.877 1567.67 394.027 1568.27 394.327C1569.77 395.107 1570.52 396.757 1570.52 399.277C1570.4 400.957 1570.34 402.217 1570.34 403.057L1570.25 405.397L1569.98 410.347C1569.92 413.467 1569.74 416.647 1569.44 419.887C1569.38 421.087 1569.02 425.047 1568.36 431.767L1568.09 434.557L1567.91 436.357L1567.37 441.307C1567.31 441.547 1567.28 441.757 1567.28 441.937C1567.34 442.057 1567.37 442.207 1567.37 442.387C1567.49 442.687 1567.52 442.927 1567.46 443.107L1567.55 443.737ZM1591.27 382.087C1592.17 381.367 1593.16 380.917 1594.24 380.737H1594.51C1595.47 380.737 1596.1 381.157 1596.4 381.997C1596.76 382.657 1597 383.557 1597.12 384.697C1597.24 385.297 1597.3 385.717 1597.3 385.957C1598.14 388.897 1598.89 391.477 1599.55 393.697C1600.27 395.857 1600.87 397.687 1601.35 399.187C1601.83 400.807 1602.58 403.267 1603.6 406.567C1604.62 409.807 1605.49 412.687 1606.21 415.207C1606.45 415.987 1606.6 416.497 1606.66 416.737C1606.66 415.057 1606.6 412.537 1606.48 409.177L1606.39 405.397L1606.3 403.057C1606.24 400.597 1606.12 398.557 1605.94 396.937C1605.82 395.317 1605.55 393.727 1605.13 392.167C1605.13 390.607 1605.37 389.227 1605.85 388.027L1606.93 385.687C1607.59 384.427 1608.58 383.167 1609.9 381.907C1610.86 381.067 1611.91 380.557 1613.05 380.377C1614.07 380.377 1614.85 380.827 1615.39 381.727C1616.29 384.067 1616.8 386.617 1616.92 389.377C1616.92 391.057 1616.95 392.287 1617.01 393.067C1617.01 396.187 1617.04 398.497 1617.1 399.997C1617.1 403.297 1617.04 408.187 1616.92 414.667C1616.92 417.967 1616.74 422.857 1616.38 429.337L1616.29 431.227C1616.23 431.887 1616.14 433.027 1616.02 434.647C1615.96 436.267 1615.84 437.707 1615.66 438.967C1615.12 442.987 1614.46 446.167 1613.68 448.507C1613.02 450.247 1612.42 451.597 1611.88 452.557C1611.28 453.697 1610.26 454.927 1608.82 456.247C1607.8 457.147 1606.81 457.597 1605.85 457.597C1605.49 457.597 1605.13 457.507 1604.77 457.327C1603.81 456.847 1603 455.587 1602.34 453.547C1601.8 451.867 1601.26 449.887 1600.72 447.607C1600.36 445.927 1600.12 444.667 1600 443.827C1599.34 440.467 1598.86 438.187 1598.56 436.987C1597.9 433.627 1596.79 428.647 1595.23 422.047C1593.25 434.287 1590.19 444.427 1586.05 452.467C1585.63 453.367 1585.03 454.207 1584.25 454.987C1583.53 455.767 1582.78 456.337 1582 456.697C1581.58 456.937 1581.1 457.057 1580.56 457.057C1580.08 457.057 1579.72 456.997 1579.48 456.877C1578.7 456.337 1578.31 455.407 1578.31 454.087C1578.31 453.547 1578.34 453.157 1578.4 452.917C1578.7 451.417 1579.18 450.097 1579.84 448.957L1580.02 448.597C1581.1 446.137 1582.06 443.437 1582.9 440.497C1583.86 436.477 1584.61 432.337 1585.15 428.077C1585.69 423.817 1586.17 418.957 1586.59 413.497C1586.71 410.497 1586.77 408.307 1586.77 406.927L1586.68 402.247C1586.68 401.167 1586.65 400.327 1586.59 399.727C1586.59 399.307 1586.56 398.797 1586.5 398.197C1586.5 397.537 1586.53 396.787 1586.59 395.947C1586.59 393.907 1586.62 392.317 1586.68 391.177C1586.8 389.977 1587.07 388.837 1587.49 387.757C1588.45 385.297 1589.71 383.407 1591.27 382.087ZM1670.97 377.407C1673.43 377.227 1674.66 378.127 1674.66 380.107C1674.66 381.127 1674.33 382.297 1673.67 383.617C1673.07 384.877 1672.38 385.987 1671.6 386.947C1670.82 387.907 1670.07 388.567 1669.35 388.927C1668.69 389.227 1667.94 389.377 1667.1 389.377L1664.58 389.287C1663.74 389.287 1663.08 389.347 1662.6 389.467C1659.66 390.067 1656.54 390.847 1653.24 391.807C1653.18 391.807 1652.52 391.957 1651.26 392.257C1651.02 392.317 1650.42 392.467 1649.46 392.707C1648.56 392.887 1647.75 393.097 1647.03 393.337C1646.37 393.577 1645.89 393.877 1645.59 394.237C1644.99 394.837 1644.69 395.767 1644.69 397.027C1644.69 398.227 1644.93 399.667 1645.41 401.347C1645.95 402.967 1646.25 403.927 1646.31 404.227C1646.97 406.087 1647.33 407.407 1647.39 408.187C1649.79 407.347 1652.64 406.507 1655.94 405.667C1659.24 404.767 1662.15 404.317 1664.67 404.317C1668.21 404.317 1669.98 405.367 1669.98 407.467C1669.98 408.427 1669.59 409.657 1668.81 411.157C1667.97 412.597 1666.98 413.677 1665.84 414.397C1664.7 415.117 1663.53 415.597 1662.33 415.837C1661.13 416.017 1659.51 416.197 1657.47 416.377C1657.11 416.377 1656.57 416.407 1655.85 416.467C1655.19 416.527 1654.62 416.587 1654.14 416.647C1653.84 416.707 1653.18 416.797 1652.16 416.917C1651.14 416.977 1650.27 417.157 1649.55 417.457C1648.65 417.817 1648.08 418.087 1647.84 418.267C1647.66 418.387 1647.57 418.657 1647.57 419.077C1647.57 419.437 1647.54 419.977 1647.48 420.697C1647.36 422.377 1647.06 424.897 1646.58 428.257L1646.31 430.147C1645.71 434.227 1645.08 437.767 1644.42 440.767C1643.76 443.767 1642.83 446.647 1641.63 449.407C1640.79 451.207 1639.59 453.097 1638.03 455.077C1636.53 457.057 1635.03 458.047 1633.53 458.047C1633.11 458.047 1632.72 457.957 1632.36 457.777C1631.28 457.237 1630.74 455.587 1630.74 452.827C1630.74 451.027 1631.04 448.267 1631.64 444.547L1631.91 442.477L1633.35 429.067C1633.71 426.427 1633.95 424.447 1634.07 423.127L1632.54 424.027C1629.78 425.827 1627.8 426.727 1626.6 426.727C1626.12 426.727 1625.73 426.607 1625.43 426.367C1624.83 425.827 1624.53 425.197 1624.53 424.477C1624.53 423.217 1625.19 421.837 1626.51 420.337C1627.83 418.837 1629.12 417.637 1630.38 416.737C1630.92 416.317 1631.52 415.957 1632.18 415.657C1633.32 414.937 1634.13 414.277 1634.61 413.677C1635.15 413.017 1635.42 411.997 1635.42 410.617C1635.42 409.597 1635.21 408.457 1634.79 407.197C1634.49 406.357 1634.04 405.547 1633.44 404.767C1632.84 403.927 1632.48 403.417 1632.36 403.237C1631.52 402.037 1630.89 401.077 1630.47 400.357C1630.05 399.577 1629.84 398.737 1629.84 397.837C1629.84 397.117 1630.02 396.307 1630.38 395.407C1631.22 393.487 1632.63 391.867 1634.61 390.547C1636.65 389.227 1639.26 387.877 1642.44 386.497L1644.87 385.417C1649.73 383.137 1654.26 381.307 1658.46 379.927C1662.72 378.487 1666.89 377.647 1670.97 377.407ZM1696.51 382.177C1698.13 381.817 1699.63 381.637 1701.01 381.637C1706.23 381.637 1710.13 383.887 1712.71 388.387C1715.29 392.827 1716.58 398.617 1716.58 405.757C1716.58 413.197 1715.26 420.877 1712.62 428.797C1710.04 436.657 1706.47 443.197 1701.91 448.417C1697.41 453.637 1692.4 456.247 1686.88 456.247C1684.3 456.247 1681.78 455.647 1679.32 454.447C1676.32 452.947 1674.07 450.397 1672.57 446.797C1671.13 443.197 1670.41 438.877 1670.41 433.837C1670.41 426.997 1671.61 419.737 1674.01 412.057C1676.47 404.317 1679.71 397.657 1683.73 392.077C1687.75 386.497 1692.01 383.197 1696.51 382.177ZM1694.89 396.757C1691.77 396.817 1688.92 398.437 1686.34 401.617C1683.82 404.737 1681.81 408.667 1680.31 413.407C1678.87 418.087 1678.15 422.677 1678.15 427.177C1678.15 431.737 1678.96 435.457 1680.58 438.337C1682.2 441.157 1684.63 442.567 1687.87 442.567C1689.19 442.567 1690.51 442.357 1691.83 441.937C1694.59 441.037 1697.14 438.997 1699.48 435.817C1701.88 432.637 1703.77 428.917 1705.15 424.657C1706.53 420.337 1707.22 416.167 1707.22 412.147C1707.22 407.467 1706.2 403.717 1704.16 400.897C1702.18 398.017 1699.09 396.637 1694.89 396.757Z" fill="white"/>
<defs>
<filter id="filter0_d_87_2444" x="833.751" y="4.41545" width="157.198" height="48.9929" filterUnits="userSpaceOnUse" color-interpolation-filters="sRGB">
<feFlood flood-opacity="0" result="BackgroundImageFix"/>
<feColorMatrix in="SourceAlpha" type="matrix" values="0 0 0 0 0 0 0 0 0 0 0 0 0 0 0 0 0 0 127 0" result="hardAlpha"/>
<feOffset dy="4.49294"/>
<feGaussianBlur stdDeviation="3.93132"/>
<feComposite in2="hardAlpha" operator="out"/>
<feColorMatrix type="matrix" values="0 0 0 0 0.482353 0 0 0 0 0 0 0 0 0 0 0 0 0 1 0"/>
<feBlend mode="normal" in2="BackgroundImageFix" result="effect1_dropShadow_87_2444"/>
<feBlend mode="normal" in="SourceGraphic" in2="effect1_dropShadow_87_2444" result="shape"/>
</filter>
</defs>
</svg>
