<svg width="1920" height="249" viewBox="0 0 1920 249" fill="none" xmlns="http://www.w3.org/2000/svg">
<rect width="2146.28" height="87.8276" transform="matrix(-0.997691 -0.0679109 0.0716517 -0.99743 2095.54 249.995)" fill="#200202"/>
<path d="M-174.361 93.7687L-160.29 12.0565L-132.375 14.0245L-130.688 96.8476L-146.259 95.7499L-146.44 82.3917L-156.353 81.6928L-158.369 94.8961L-174.361 93.7687ZM-154.206 68.6397L-146.725 69.1671L-147.213 27.0758L-147.961 27.0231L-154.206 68.6397ZM-124.68 97.2712L-118.559 14.9986L-93.3092 16.7787C-89.1009 17.0753 -85.9932 18.2656 -83.986 20.3494C-81.9766 22.402 -80.742 25.1832 -80.2824 28.6929C-79.7893 32.1737 -79.7155 36.2358 -80.061 40.8792C-80.3949 45.3668 -81.2382 48.91 -82.591 51.5088C-83.9126 54.1097 -86.1859 55.8135 -89.4109 56.6199C-86.863 57.3321 -85.1512 58.7528 -84.2755 60.8822C-83.3663 62.9826 -83.0323 65.6533 -83.2735 68.8943L-85.5898 100.027L-101.815 98.8831L-99.4188 66.6753C-99.2403 64.2757 -99.6289 62.7602 -100.585 62.1289C-101.507 61.4687 -103.059 61.0617 -105.241 60.9078L-108.034 98.4447L-124.68 97.2712ZM-104.087 46.657L-100.112 46.9372C-97.8369 47.0976 -96.5147 44.7003 -96.1461 39.7452C-95.9073 36.5353 -96.0001 34.4142 -96.4247 33.3818C-96.8493 32.3494 -97.7473 31.7848 -99.1189 31.6881L-102.953 31.4178L-104.087 46.657ZM-78.0859 100.556L-71.9647 18.2834L-49.6607 19.8558C-43.6755 20.2778 -39.4359 22.0491 -36.9419 25.1697C-34.4143 28.2613 -33.3998 33.1572 -33.8983 39.8575L-34.1661 43.4569C-34.4536 47.3212 -35.388 50.4037 -36.9693 52.7044C-38.5195 55.0074 -40.7407 56.4328 -43.6331 56.9807C-39.9931 58.1772 -37.6783 60.5489 -36.6888 64.096C-35.6658 67.6142 -35.3386 71.8508 -35.7072 76.8058C-36.1037 82.1348 -36.9491 86.7587 -38.2434 90.6773C-39.5378 94.596 -41.5765 97.5693 -44.3596 99.5973C-47.1427 101.625 -50.9502 102.469 -55.7819 102.128L-78.0859 100.556ZM-58.1855 50.4099L-54.8189 50.6472C-53.2914 50.7549 -52.2654 50.232 -51.7409 49.0786C-51.2164 47.9251 -50.8927 46.5225 -50.7698 44.8708L-50.1542 36.5968C-49.9571 33.9479 -51.0275 32.541 -53.3655 32.3762L-56.8256 32.1323L-58.1855 50.4099ZM-59.2861 87.3142C-55.0155 87.6153 -52.7294 85.7402 -52.428 81.6889L-51.6629 71.4048C-51.489 69.0675 -51.7106 67.2035 -52.3279 65.813C-52.9117 64.3934 -54.1699 63.6155 -56.1026 63.4792L-59.142 63.265L-60.9157 87.1053C-60.2346 87.216 -59.6914 87.2856 -59.2861 87.3142ZM-32.0527 103.801L-25.9314 21.5287L-10.0334 22.6495L-16.1546 104.922L-32.0527 103.801ZM-1.59018 105.949L3.35551 39.4764L-6.41711 38.7874L-5.24155 22.9874L30.7628 25.5256L29.5873 41.3257L19.8147 40.6368L14.869 107.109L-1.59018 105.949ZM49.6712 110.315C42.1586 109.785 36.8737 107.533 33.8164 103.558C30.7904 99.5854 29.5811 93.5166 30.1886 85.3517L30.7868 77.3114L47.0589 78.4586L46.2937 88.7426C46.1523 90.6436 46.3216 92.1593 46.8015 93.2896C47.315 94.3909 48.2887 94.9921 49.7226 95.0932C51.2189 95.1987 52.28 94.8349 52.9061 94.0019C53.5633 93.1711 53.9661 91.7584 54.1145 89.7639C54.3023 87.2396 54.2094 85.1185 53.8359 83.4005C53.4646 81.6513 52.7124 79.9693 51.5791 78.3543C50.4793 76.7104 48.9148 74.7831 46.8858 72.5725L40.0196 65.0398C34.8892 59.4464 32.5733 53.2996 33.0718 46.5994C33.5935 39.5875 35.6121 34.3572 39.1277 30.9084C42.6744 27.4619 47.5339 25.9561 53.7061 26.3913C61.2498 26.9231 66.4464 29.3101 69.2957 33.5522C72.1762 37.7965 73.3116 44.0167 72.7018 52.2128L55.9621 51.0326L56.3829 45.3764C56.4664 44.2545 56.204 43.3588 55.5957 42.6894C55.0186 42.0222 54.1846 41.6501 53.0935 41.5732C51.7843 41.4809 50.7901 41.7867 50.111 42.4907C49.4654 43.1657 49.0997 44.0797 49.0139 45.2328C48.9281 46.3859 49.1471 47.6544 49.6709 49.0384C50.1946 50.4224 51.3112 52.0518 53.0205 53.9266L61.8344 63.7113C63.6014 65.6528 65.2045 67.6925 66.6436 69.8302C68.085 71.9368 69.1892 74.3642 69.9561 77.1124C70.7254 79.8294 70.9674 83.1045 70.6822 86.9377C70.1072 94.6663 68.2223 100.627 65.0275 104.819C61.8661 108.981 56.7474 110.814 49.6712 110.315ZM113.363 95.1156C108.718 94.7882 105.225 93.0852 102.885 90.0068C100.547 86.8972 99.5526 82.9895 99.9028 78.2838C100.255 73.5469 101.817 69.8194 104.589 67.1014C107.361 64.3833 111.069 63.188 115.714 63.5155C120.359 63.8429 123.851 65.5459 126.192 68.6243C128.563 71.705 129.573 75.6138 129.221 80.3507C128.871 85.0564 127.293 88.7828 124.488 91.5298C121.716 94.2478 118.007 95.4431 113.363 95.1156ZM156.895 117.122L163.016 34.8494L188.266 36.6295C192.474 36.9262 195.582 38.1164 197.589 40.2002C199.598 42.2528 200.833 45.034 201.292 48.5437C201.786 52.0245 201.859 56.0866 201.514 60.73C201.18 65.2176 200.337 68.7608 198.984 71.3596C197.662 73.9606 195.389 75.6643 192.164 76.4707C194.712 77.1829 196.424 78.6037 197.299 80.733C198.209 82.8334 198.543 85.5041 198.301 88.7451L195.985 119.878L179.76 118.734L182.156 86.5261C182.335 84.1265 181.946 82.611 180.99 81.9798C180.068 81.3195 178.516 80.9125 176.334 80.7586L173.541 118.296L156.895 117.122ZM177.488 66.5078L181.462 66.788C183.738 66.9484 185.06 64.5511 185.429 59.596C185.668 56.3862 185.575 54.265 185.15 53.2326C184.726 52.2002 183.828 51.6357 182.456 51.539L178.622 51.2686L177.488 66.5078ZM223.072 122.539C216.495 122.076 211.608 119.742 208.411 115.538C205.247 111.305 203.945 105.433 204.504 97.9227L207.411 58.8432C207.935 51.8002 210.048 46.5765 213.748 43.172C217.479 39.7698 222.665 38.3027 229.305 38.7708C235.944 39.2389 240.843 41.4169 244.001 45.3048C247.19 49.195 248.522 54.6615 247.998 61.7046L245.091 100.784C244.532 108.295 242.358 113.921 238.57 117.664C234.816 121.378 229.649 123.003 223.072 122.539ZM224.339 107.404C226.833 107.579 228.26 105.252 228.619 100.422L231.607 60.267C231.908 56.2157 230.843 54.1044 228.412 53.933C225.668 53.7396 224.143 55.7153 223.834 59.8601L220.85 99.9679C220.66 102.523 220.835 104.384 221.375 105.55C221.917 106.685 222.905 107.302 224.339 107.404ZM270.134 125.857C264.18 125.437 259.517 123.245 256.146 119.279C252.806 115.316 251.384 109.999 251.88 103.33L254.704 65.3727C255.298 57.3948 257.327 51.3977 260.79 47.3813C264.285 43.3672 269.602 41.6118 276.741 42.115C280.637 42.3897 284.044 43.3504 286.961 44.9972C289.909 46.6461 292.15 48.9656 293.682 51.9557C295.217 54.9147 295.823 58.5601 295.501 62.8919L294.443 77.1026L278.078 75.9488L278.982 63.7949C279.165 61.333 278.976 59.6593 278.415 58.7739C277.857 57.8574 276.923 57.353 275.614 57.2607C274.086 57.153 273.016 57.6414 272.402 58.726C271.791 59.7793 271.417 61.2254 271.281 63.064L268.217 104.247C268.047 106.522 268.255 108.15 268.84 109.131C269.456 110.114 270.388 110.65 271.635 110.738C273.038 110.837 274.063 110.329 274.709 109.216C275.388 108.105 275.795 106.63 275.932 104.791L277.034 89.9726L293.587 91.1395L292.429 106.706C291.891 113.936 289.677 119.058 285.786 122.074C281.898 125.057 276.68 126.319 270.134 125.857ZM297.426 127.029L303.547 44.7567L319.819 45.9039L317.367 78.8597L327.488 46.4445L344.04 47.6115L332.026 84.6392L339.836 130.019L322.769 128.816L316.755 88.3557L313.791 128.183L297.426 127.029ZM350.707 130.786L355.652 64.3131L345.88 63.6241L347.055 47.824L383.06 50.3623L381.884 66.1624L372.112 65.4734L367.166 131.946L350.707 130.786ZM379.018 132.782L393.089 51.0693L421.004 53.0373L422.691 135.86L407.12 134.763L406.939 121.404L397.026 120.706L395.01 133.909L379.018 132.782ZM399.173 107.652L406.654 108.18L406.166 66.0886L405.418 66.0359L399.173 107.652ZM434.216 136.673L430.194 53.6383L445.859 54.7426L447.724 111.169L457.268 55.5469L472.932 56.6512L456.661 138.255L434.216 136.673ZM472.581 139.378L478.702 57.105L511.621 59.4258L510.438 75.3193L494.26 74.1787L493.067 90.2126L508.591 91.307L507.439 106.78L491.915 105.685L490.514 124.524L507.768 125.74L506.575 141.774L472.581 139.378ZM532.493 144.353C524.98 143.824 519.695 141.571 516.638 137.597C513.612 133.624 512.403 127.555 513.01 119.39L513.608 111.35L529.881 112.497L529.115 122.781C528.974 124.682 529.143 126.198 529.623 127.328C530.137 128.429 531.11 129.031 532.544 129.132C534.041 129.237 535.102 128.873 535.728 128.04C536.385 127.21 536.788 125.797 536.936 123.802C537.124 121.278 537.031 119.157 536.658 117.439C536.286 115.69 535.534 114.008 534.401 112.393C533.301 110.749 531.737 108.822 529.707 106.611L522.841 99.0784C517.711 93.485 515.395 87.3382 515.893 80.638C516.415 73.6261 518.434 68.3958 521.949 64.947C525.496 61.5004 530.356 59.9947 536.528 60.4298C544.072 60.9617 549.268 63.3486 552.117 67.5907C554.998 71.835 556.133 78.0552 555.523 86.2513L538.784 85.0712L539.205 79.4149C539.288 78.293 539.026 77.3974 538.417 76.728C537.84 76.0607 537.006 75.6887 535.915 75.6117C534.606 75.5194 533.612 75.8253 532.933 76.5293C532.287 77.2043 531.921 78.1183 531.836 79.2714C531.75 80.4244 531.969 81.693 532.493 83.077C533.016 84.461 534.133 86.0904 535.842 87.9652L544.656 97.7498C546.423 99.6914 548.026 101.731 549.465 103.869C550.907 105.975 552.011 108.403 552.778 111.151C553.547 113.868 553.789 117.143 553.504 120.976C552.929 128.705 551.044 134.665 547.849 138.857C544.688 143.02 539.569 144.852 532.493 144.353ZM596.184 129.154C591.54 128.827 588.047 127.124 585.707 124.045C583.368 120.936 582.374 117.028 582.724 112.322C583.077 107.585 584.639 103.858 587.411 101.14C590.183 98.4219 593.891 97.2266 598.536 97.5541C603.18 97.8815 606.673 99.5845 609.013 102.663C611.385 105.744 612.395 109.652 612.042 114.389C611.692 119.095 610.114 122.821 607.309 125.568C604.537 128.286 600.829 129.482 596.184 129.154ZM659.299 153.293C652.722 152.829 647.835 150.495 644.638 146.292C641.475 142.059 640.172 136.187 640.731 128.676L643.639 89.5969C644.163 82.5539 646.275 77.3302 649.975 73.9257C653.707 70.5235 658.892 69.0564 665.532 69.5245C672.172 69.9926 677.07 72.1706 680.228 76.0586C683.417 79.9487 684.749 85.4152 684.225 92.4583L681.318 131.538C680.759 139.048 678.586 144.675 674.797 148.418C671.043 152.132 665.877 153.757 659.299 153.293ZM660.566 138.157C663.06 138.333 664.487 136.006 664.846 131.175L667.834 91.0207C668.135 86.9694 667.07 84.8581 664.639 84.6867C661.896 84.4933 660.37 86.469 660.061 90.6138L657.077 130.722C656.887 133.277 657.062 135.138 657.602 136.304C658.144 137.438 659.133 138.056 660.566 138.157ZM685.001 154.353L699.072 72.6409L726.987 74.6089L728.674 157.432L713.103 156.334L712.922 142.976L703.009 142.277L700.993 155.481L685.001 154.353ZM705.156 129.224L712.637 129.752L712.149 87.6602L711.401 87.6074L705.156 129.224ZM754.171 159.981C746.659 159.452 741.374 157.2 738.317 153.225C735.291 149.252 734.081 143.183 734.689 135.018L735.287 126.978L751.559 128.125L750.794 138.409C750.653 140.31 750.822 141.826 751.302 142.956C751.815 144.058 752.789 144.659 754.223 144.76C755.719 144.865 756.78 144.502 757.406 143.669C758.064 142.838 758.466 141.425 758.615 139.431C758.803 136.906 758.71 134.785 758.336 133.067C757.965 131.318 757.213 129.636 756.079 128.021C754.979 126.377 753.415 124.45 751.386 122.239L744.52 114.707C739.389 109.113 737.074 102.966 737.572 96.2662C738.094 89.2543 740.112 84.024 743.628 80.5752C747.175 77.1286 752.034 75.6229 758.206 76.058C765.75 76.5898 770.947 78.9768 773.796 83.2189C776.676 87.4632 777.812 93.6834 777.202 101.879L760.462 100.699L760.883 95.0431C760.967 93.9212 760.704 93.0256 760.096 92.3561C759.519 91.6889 758.685 91.3168 757.594 91.2399C756.285 91.1476 755.29 91.4534 754.611 92.1574C753.966 92.8324 753.6 93.7465 753.514 94.8995C753.428 96.0526 753.647 97.3211 754.171 98.7051C754.695 100.089 755.811 101.719 757.521 103.593L766.335 113.378C768.102 115.32 769.705 117.359 771.144 119.497C772.585 121.604 773.689 124.031 774.456 126.779C775.226 129.496 775.468 132.771 775.182 136.604C774.607 144.333 772.722 150.293 769.528 154.485C766.366 158.648 761.248 160.48 754.171 159.981ZM779.125 160.989L785.246 78.7162L801.145 79.837L795.023 162.11L779.125 160.989ZM822.017 164.764C814.504 164.235 809.219 161.983 806.162 158.008C803.136 154.035 801.927 147.966 802.534 139.801L803.132 131.761L819.404 132.908L818.639 143.192C818.498 145.093 818.667 146.609 819.147 147.739C819.661 148.841 820.634 149.442 822.068 149.543C823.564 149.648 824.626 149.285 825.252 148.452C825.909 147.621 826.312 146.208 826.46 144.214C826.648 141.689 826.555 139.568 826.181 137.85C825.81 136.101 825.058 134.419 823.925 132.804C822.825 131.16 821.26 129.233 819.231 127.022L812.365 119.49C807.235 113.896 804.919 107.749 805.417 101.049C805.939 94.0373 807.958 88.807 811.473 85.3582C815.02 81.9116 819.879 80.4059 826.052 80.8411C833.595 81.3729 838.792 83.7599 841.641 88.002C844.522 92.2463 845.657 98.4664 845.047 106.663L828.308 105.482L828.728 99.8262C828.812 98.7043 828.55 97.8086 827.941 97.1392C827.364 96.4719 826.53 96.0999 825.439 96.023C824.13 95.9307 823.136 96.2365 822.457 96.9405C821.811 97.6155 821.445 98.5295 821.36 99.6826C821.274 100.836 821.493 102.104 822.016 103.488C822.54 104.872 823.657 106.502 825.366 108.376L834.18 118.161C835.947 120.103 837.55 122.142 838.989 124.28C840.431 126.387 841.535 128.814 842.302 131.562C843.071 134.279 843.313 137.554 843.028 141.387C842.453 149.116 840.568 155.076 837.373 159.268C834.212 163.431 829.093 165.263 822.017 164.764ZM885.708 149.565C881.064 149.238 877.571 147.535 875.231 144.457C872.892 141.347 871.898 137.439 872.248 132.734C872.601 127.997 874.163 124.269 876.935 121.551C879.707 118.833 883.415 117.638 888.059 117.965C892.704 118.293 896.197 119.996 898.537 123.074C900.909 126.155 901.919 130.064 901.566 134.8C901.216 139.506 899.638 143.233 896.833 145.98C894.061 148.698 890.353 149.893 885.708 149.565ZM929.24 171.572L935.361 89.2992L957.665 90.8716C963.651 91.2935 967.89 93.0648 970.384 96.1854C972.912 99.277 973.926 104.173 973.428 110.873L973.16 114.473C972.872 118.337 971.938 121.419 970.357 123.72C968.807 126.023 966.585 127.449 963.693 127.996C967.333 129.193 969.648 131.565 970.637 135.112C971.66 138.63 971.988 142.867 971.619 147.822C971.222 153.151 970.377 157.774 969.083 161.693C967.788 165.612 965.75 168.585 962.966 170.613C960.183 172.641 956.376 173.485 951.544 173.144L929.24 171.572ZM949.141 121.426L952.507 121.663C954.035 121.771 955.061 121.248 955.585 120.094C956.11 118.941 956.433 117.538 956.556 115.887L957.172 107.613C957.369 104.964 956.299 103.557 953.961 103.392L950.5 103.148L949.141 121.426ZM948.04 158.33C952.311 158.631 954.597 156.756 954.898 152.705L955.663 142.421C955.837 140.083 955.615 138.219 954.998 136.829C954.414 135.409 953.156 134.631 951.223 134.495L948.184 134.281L946.41 158.121C947.092 158.232 947.635 158.301 948.04 158.33ZM975.273 174.817L981.395 92.5445L997.293 93.6653L991.172 175.938L975.273 174.817ZM1005.74 176.965L1010.68 110.492L1000.91 109.803L1002.08 94.0031L1038.09 96.5414L1036.91 112.341L1027.14 111.653L1022.2 178.125L1005.74 176.965ZM1057 181.33C1049.48 180.801 1044.2 178.549 1041.14 174.574C1038.12 170.601 1036.91 164.532 1037.51 156.367L1038.11 148.327L1054.38 149.474L1053.62 159.758C1053.48 161.659 1053.65 163.175 1054.13 164.305C1054.64 165.407 1055.61 166.008 1057.05 166.109C1058.54 166.214 1059.61 165.851 1060.23 165.018C1060.89 164.187 1061.29 162.774 1061.44 160.78C1061.63 158.255 1061.54 156.134 1061.16 154.416C1060.79 152.667 1060.04 150.985 1058.91 149.37C1057.81 147.726 1056.24 145.799 1054.21 143.588L1047.35 136.056C1042.22 130.462 1039.9 124.315 1040.4 117.615C1040.92 110.603 1042.94 105.373 1046.45 101.924C1050 98.4776 1054.86 96.9719 1061.03 97.407C1068.58 97.9388 1073.77 100.326 1076.62 104.568C1079.5 108.812 1080.64 115.032 1080.03 123.228L1063.29 122.048L1063.71 116.392C1063.79 115.27 1063.53 114.375 1062.92 113.705C1062.34 113.038 1061.51 112.666 1060.42 112.589C1059.11 112.497 1058.12 112.802 1057.44 113.506C1056.79 114.181 1056.43 115.095 1056.34 116.249C1056.25 117.402 1056.47 118.67 1057 120.054C1057.52 121.438 1058.64 123.068 1060.35 124.942L1069.16 134.727C1070.93 136.669 1072.53 138.708 1073.97 140.846C1075.41 142.953 1076.52 145.38 1077.28 148.128C1078.05 150.845 1078.29 154.12 1078.01 157.953C1077.43 165.682 1075.55 171.642 1072.35 175.834C1069.19 179.997 1064.07 181.829 1057 181.33ZM1106.1 184.04L1112.22 101.768L1133.97 103.301C1138.52 103.621 1142.04 104.888 1144.54 107.101C1147.07 109.315 1148.77 112.333 1149.65 116.154C1150.52 119.975 1150.77 124.472 1150.38 129.645C1150.01 134.631 1149.21 138.945 1147.96 142.585C1146.72 146.194 1144.78 148.924 1142.14 150.774C1139.52 152.626 1135.94 153.391 1131.39 153.07L1124.7 152.599L1122.28 185.181L1106.1 184.04ZM1125.8 137.827L1126.74 137.893C1129.79 138.109 1131.73 137.384 1132.54 135.718C1133.35 134.052 1133.88 131.552 1134.13 128.218C1134.36 125.101 1134.2 122.677 1133.64 120.946C1133.11 119.186 1131.6 118.218 1129.11 118.042L1127.28 117.914L1125.8 137.827ZM1151.57 187.246L1157.69 104.973L1173.59 106.094L1167.47 188.367L1151.57 187.246ZM1174.98 188.896L1181.1 106.623L1197.56 107.784L1192.48 176.033L1209.4 177.226L1208.36 191.25L1174.98 188.896ZM1211.75 191.489L1225.82 109.776L1253.74 111.744L1255.42 194.567L1239.85 193.47L1239.67 180.111L1229.76 179.413L1227.74 192.616L1211.75 191.489ZM1231.9 166.359L1239.39 166.887L1238.9 124.796L1238.15 124.743L1231.9 166.359ZM1261.43 194.991L1267.55 112.718L1284.48 113.912L1289.12 153.852L1292.05 114.446L1307.95 115.567L1301.83 197.839L1285.75 196.705L1280.58 154.989L1277.52 196.125L1261.43 194.991ZM1309.33 198.368L1315.46 116.096L1331.35 117.216L1325.23 199.489L1309.33 198.368ZM1370.73 183.759C1366.08 183.431 1362.59 181.728 1360.25 178.65C1357.91 175.54 1356.92 171.633 1357.27 166.927C1357.62 162.19 1359.18 158.463 1361.95 155.745C1364.72 153.026 1368.43 151.831 1373.08 152.159C1377.72 152.486 1381.21 154.189 1383.55 157.267C1385.93 160.348 1386.94 164.257 1386.58 168.994C1386.23 173.7 1384.66 177.426 1381.85 180.173C1379.08 182.891 1375.37 184.086 1370.73 183.759ZM1414.26 205.765L1420.38 123.493L1443.01 125.088C1448.93 125.506 1453.27 127.472 1456.01 130.986C1458.76 134.469 1459.9 139.374 1459.43 145.7L1456.57 184.219C1455.99 192.01 1454.17 197.927 1451.11 201.972C1448.08 206.019 1443.15 207.802 1436.33 207.321L1414.26 205.765ZM1431.89 192.394L1434.74 192.595C1437.77 192.808 1439.39 191.45 1439.61 188.521L1442.76 146.076C1442.97 143.333 1442.73 141.546 1442.04 140.714C1441.38 139.854 1439.93 139.344 1437.68 139.186L1435.86 139.057L1431.89 192.394ZM1470.02 209.696L1465.99 126.661L1481.66 127.766L1483.52 184.192L1493.07 128.57L1508.73 129.674L1492.46 211.278L1470.02 209.696ZM1508.38 212.401L1514.5 130.128L1539.57 131.895L1542.75 182.541L1553.36 132.868L1578.66 134.651L1572.53 216.924L1557.48 215.862L1561.89 156.588L1548.03 215.196L1533.26 214.155L1527.66 154.175L1523.25 213.449L1508.38 212.401ZM1618.78 201.246C1614.13 200.919 1610.64 199.216 1608.3 196.137C1605.96 193.028 1604.97 189.12 1605.32 184.414C1605.67 179.677 1607.23 175.95 1610 173.232C1612.77 170.514 1616.48 169.319 1621.13 169.646C1625.77 169.973 1629.26 171.676 1631.61 174.755C1633.98 177.836 1634.99 181.744 1634.63 186.481C1634.28 191.187 1632.71 194.913 1629.9 197.66C1627.13 200.378 1623.42 201.574 1618.78 201.246ZM1662.31 223.253L1668.43 140.98L1693.49 142.747L1696.68 193.393L1707.29 143.719L1732.58 145.503L1726.46 227.775L1711.41 226.714L1715.82 167.44L1701.96 226.048L1687.18 225.006L1681.59 165.027L1677.18 224.301L1662.31 223.253ZM1733.97 228.304L1740.09 146.032L1755.98 147.153L1749.86 229.425L1733.97 228.304ZM1757.37 229.954L1763.49 147.682L1786.12 149.277C1792.04 149.695 1796.38 151.661 1799.12 155.175C1801.87 158.658 1803.01 163.563 1802.54 169.889L1799.68 208.408C1799.1 216.199 1797.28 222.116 1794.22 226.161C1791.19 230.208 1786.26 231.991 1779.44 231.51L1757.37 229.954ZM1775 216.583L1777.85 216.784C1780.88 216.997 1782.5 215.639 1782.72 212.71L1785.87 170.265C1786.08 167.522 1785.84 165.735 1785.15 164.903C1784.49 164.042 1783.04 163.533 1780.79 163.375L1778.97 163.246L1775 216.583ZM1805.55 233.351L1811.67 151.078L1828.6 152.272L1833.24 192.213L1836.17 152.806L1852.07 153.927L1845.95 236.199L1829.87 235.065L1824.7 193.349L1821.64 234.485L1805.55 233.351ZM1853.46 236.728L1859.58 154.456L1875.47 155.576L1869.35 237.849L1853.46 236.728ZM1893.77 240.323C1882.02 239.494 1876.77 230.666 1878.02 213.837L1880.66 178.357C1881.81 162.993 1889.11 155.786 1902.58 156.735C1908.13 157.127 1912.3 158.549 1915.09 161.001C1917.89 163.422 1919.69 166.807 1920.5 171.156C1921.3 175.505 1921.47 180.749 1921.02 186.888L1904.93 185.754L1905.48 178.461C1905.61 176.685 1905.47 175.187 1905.06 173.968C1904.68 172.72 1903.73 172.042 1902.2 171.934C1900.3 171.8 1898.99 172.35 1898.27 173.583C1897.58 174.819 1897.18 176.201 1897.07 177.728L1894.1 217.602C1893.94 219.815 1894.08 221.642 1894.54 223.084C1895.03 224.497 1896.12 225.263 1897.8 225.381C1899.55 225.504 1900.75 224.9 1901.41 223.568C1902.11 222.208 1902.54 220.39 1902.71 218.115L1903.59 206.382L1899.19 206.072L1900.25 191.861L1920.35 193.279L1916.79 241.193L1910.2 240.728L1907.91 233.612C1904.66 238.521 1899.95 240.758 1893.77 240.323ZM1924.29 241.722L1930.41 159.45L1946.78 160.603L1944.59 190.007L1952.35 190.554L1954.54 161.151L1970.91 162.304L1964.79 244.577L1948.42 243.423L1951.2 206.12L1943.43 205.573L1940.66 242.876L1924.29 241.722ZM1980.1 245.657L1985.04 179.184L1975.27 178.495L1976.45 162.695L2012.45 165.233L2011.28 181.033L2001.5 180.344L1996.56 246.817L1980.1 245.657Z" fill="black"/>
<rect width="2010.84" height="87.8276" transform="matrix(0.997691 -0.0679109 0.0716517 0.99743 -45.7852 148.569)" fill="#2D0909"/>
<path d="M-222.008 248.404L-219.969 165.575L-192.049 163.675L-178.328 245.431L-193.901 246.491L-196.024 233.292L-205.939 233.967L-206.014 247.315L-222.008 248.404ZM-205.714 220.75L-198.231 220.24L-204.838 178.64L-205.586 178.691L-205.714 220.75ZM-172.319 245.022L-178.231 162.734L-152.977 161.015C-148.768 160.728 -145.518 161.478 -143.228 163.264C-140.94 165.019 -139.313 167.602 -138.348 171.013C-137.353 174.391 -136.689 178.402 -136.355 183.046C-136.033 187.535 -136.352 191.158 -137.313 193.918C-138.243 196.675 -140.246 198.675 -143.321 199.917C-140.695 200.271 -138.794 201.442 -137.617 203.429C-136.411 205.383 -135.692 207.98 -135.459 211.222L-133.222 242.361L-149.45 243.465L-151.765 211.251C-151.937 208.851 -152.542 207.405 -153.58 206.912C-154.589 206.385 -156.185 206.196 -158.367 206.345L-155.67 243.889L-172.319 245.022ZM-159.298 192.078L-155.323 191.808C-153.047 191.653 -152.087 189.097 -152.443 184.141C-152.674 180.931 -153.074 178.844 -153.645 177.88C-154.215 176.917 -155.187 176.482 -156.558 176.575L-160.393 176.836L-159.298 192.078ZM-125.717 241.85L-131.629 159.562L-109.321 158.043C-103.335 157.636 -98.8801 158.805 -95.9571 161.55C-93.0052 164.262 -91.2886 168.969 -90.8072 175.67L-90.5486 179.271C-90.2709 183.136 -90.7474 186.316 -91.978 188.811C-93.1774 191.305 -95.1688 193.022 -97.9523 193.963C-94.1749 194.646 -91.5384 196.675 -90.0428 200.05C-88.5182 203.391 -87.5779 207.54 -87.2218 212.496C-86.839 217.826 -87.0031 222.52 -87.7141 226.578C-88.4252 230.635 -90.0108 233.86 -92.4707 236.251C-94.9307 238.642 -98.5769 240.002 -103.41 240.331L-125.717 241.85ZM-113.314 189.465L-109.947 189.236C-108.419 189.132 -107.479 188.473 -107.128 187.259C-106.777 186.044 -106.66 184.611 -106.779 182.959L-107.373 174.684C-107.564 172.034 -108.828 170.789 -111.166 170.948L-114.627 171.184L-113.314 189.465ZM-109.034 226.149C-104.762 225.859 -102.772 223.687 -103.063 219.635L-103.802 209.349C-103.97 207.011 -104.461 205.197 -105.274 203.905C-106.059 202.581 -107.417 201.984 -109.35 202.116L-112.39 202.323L-110.677 226.167C-109.987 226.183 -109.439 226.177 -109.034 226.149ZM-79.6763 238.716L-85.5875 156.428L-69.6868 155.346L-63.7756 237.634L-79.6763 238.716ZM-49.2087 236.642L-53.9847 170.157L-63.759 170.822L-64.8942 155.019L-28.8838 152.568L-27.7485 168.371L-37.5228 169.037L-32.7468 235.521L-49.2087 236.642ZM2.17068 233.896C-5.34319 234.408 -10.9025 232.907 -14.5072 229.394C-18.0808 225.878 -20.1608 220.037 -20.7475 211.871L-21.3252 203.829L-5.05035 202.721L-4.31144 213.007C-4.17485 214.909 -3.78678 216.386 -3.14721 217.438C-2.4787 218.458 -1.42735 218.919 0.00683064 218.821C1.50337 218.719 2.50089 218.213 2.9994 217.302C3.52908 216.389 3.72227 214.935 3.57897 212.94C3.3976 210.415 2.99704 208.328 2.37728 206.679C1.75528 204.999 0.765867 203.437 -0.590964 201.995C-1.91886 200.519 -3.74792 198.827 -6.07815 196.918L-13.9711 190.408C-19.8635 185.578 -23.0504 179.813 -23.5318 173.111C-24.0356 166.098 -22.7984 160.642 -19.8201 156.744C-16.8107 152.843 -12.2193 150.682 -6.0461 150.262C1.49894 149.748 6.99037 151.395 10.4282 155.201C13.8972 159.006 15.9261 165.007 16.515 173.204L-0.227523 174.344L-0.633922 168.687C-0.714531 167.565 -1.10459 166.714 -1.80411 166.135C-2.47245 165.554 -3.35223 165.301 -4.44346 165.375C-5.75293 165.465 -6.69257 165.904 -7.26239 166.695C-7.80327 167.452 -8.03229 168.407 -7.94944 169.561C-7.86659 170.714 -7.46525 171.939 -6.74541 173.237C-6.02557 174.535 -4.68321 175.994 -2.71832 177.615L7.43027 186.085C9.46199 187.764 11.3457 189.562 13.0813 191.48C14.8146 193.366 16.2609 195.617 17.4199 198.232C18.5768 200.816 19.2929 204.024 19.5683 207.858C20.1236 215.588 19.1249 221.748 16.5723 226.338C14.0486 230.895 9.24805 233.415 2.17068 233.896ZM63.0081 210.069C58.3626 210.386 54.6575 209.181 51.8926 206.457C49.1256 203.701 47.573 199.969 47.2349 195.263C46.8945 190.525 47.8985 186.62 50.2469 183.547C52.5952 180.474 56.0922 178.78 60.7377 178.463C65.3832 178.147 69.0883 179.351 71.8531 182.076C74.6491 184.799 76.2173 188.529 76.5577 193.267C76.8958 197.973 75.8762 201.88 73.4989 204.986C71.1505 208.059 67.6536 209.753 63.0081 210.069ZM109.303 225.852L103.391 143.564L128.645 141.845C132.855 141.559 136.104 142.309 138.394 144.095C140.682 145.85 142.309 148.433 143.274 151.844C144.269 155.222 144.933 159.233 145.267 163.877C145.589 168.365 145.27 171.989 144.309 174.748C143.379 177.505 141.377 179.505 138.301 180.748C140.927 181.102 142.829 182.272 144.005 184.259C145.211 186.213 145.93 188.811 146.163 192.053L148.4 223.191L132.172 224.296L129.858 192.082C129.685 189.682 129.08 188.235 128.042 187.742C127.033 187.216 125.437 187.027 123.255 187.175L125.952 224.719L109.303 225.852ZM122.324 172.909L126.299 172.638C128.575 172.483 129.535 169.928 129.179 164.972C128.948 161.761 128.548 159.674 127.977 158.711C127.407 157.747 126.436 157.312 125.064 157.406L121.229 157.667L122.324 172.909ZM175.601 222.091C169.022 222.539 163.845 220.903 160.068 217.182C156.321 213.428 154.178 207.795 153.638 200.283L150.83 161.196C150.324 154.152 151.655 148.689 154.822 144.809C158.021 140.927 162.941 138.759 169.582 138.307C176.223 137.855 181.389 139.336 185.081 142.749C188.803 146.161 190.918 151.388 191.424 158.433L194.231 197.52C194.771 205.031 193.438 210.901 190.233 215.129C187.057 219.323 182.179 221.644 175.601 222.091ZM174.653 206.933C177.147 206.764 178.221 204.263 177.873 199.432L174.988 159.27C174.697 155.218 173.336 153.274 170.904 153.44C168.16 153.627 166.937 155.793 167.235 159.938L170.117 200.054C170.3 202.61 170.744 204.427 171.449 205.507C172.15 206.556 173.219 207.031 174.653 206.933ZM222.67 218.887C216.715 219.293 211.781 217.765 207.867 214.304C203.984 210.841 201.802 205.774 201.323 199.104L198.596 161.139C198.023 153.16 199.158 146.944 202.003 142.49C204.878 138.035 209.886 135.564 217.026 135.078C220.923 134.813 224.435 135.294 227.563 136.522C230.721 137.748 233.276 139.735 235.228 142.484C237.178 145.201 238.308 148.726 238.62 153.059L239.641 167.272L223.272 168.387L222.399 156.23C222.222 153.768 221.792 152.137 221.108 151.338C220.421 150.508 219.424 150.137 218.114 150.226C216.586 150.33 215.598 150.961 215.148 152.12C214.697 153.247 214.537 154.73 214.669 156.569L217.628 197.759C217.791 200.035 218.234 201.618 218.956 202.508C219.709 203.397 220.709 203.798 221.956 203.713C223.359 203.618 224.3 202.975 224.778 201.783C225.288 200.589 225.477 199.073 225.345 197.234L224.28 182.413L240.835 181.286L241.954 196.855C242.473 204.087 241.027 209.463 237.614 212.984C234.199 216.474 229.218 218.442 222.67 218.887ZM249.857 216.285L243.946 133.997L260.221 132.889L262.589 165.851L267.891 132.367L284.446 131.24L277.94 169.552L292.275 213.398L275.205 214.56L263.364 175.336L266.226 215.171L249.857 216.285ZM303.147 212.658L298.371 146.173L288.597 146.838L287.462 131.035L323.472 128.584L324.607 144.387L314.833 145.052L319.609 211.537L303.147 212.658ZM331.464 210.73L333.503 127.901L361.422 126.001L375.144 207.757L359.57 208.817L357.447 195.618L347.533 196.293L347.458 209.642L331.464 210.73ZM347.758 183.076L355.241 182.566L348.634 140.966L347.886 141.017L347.758 183.076ZM386.671 206.973L370.608 125.329L386.275 124.262L396.331 179.863L397.686 123.485L413.353 122.419L409.119 205.445L386.671 206.973ZM425.042 204.361L419.131 122.073L452.055 119.832L453.197 135.728L437.015 136.83L438.167 152.866L453.694 151.81L454.806 167.285L439.279 168.342L440.633 187.184L457.889 186.01L459.042 202.046L425.042 204.361ZM485.073 201.026C477.559 201.538 472 200.037 468.395 196.523C464.822 193.008 462.742 187.167 462.155 179.001L461.577 170.959L477.852 169.851L478.591 180.137C478.728 182.038 479.116 183.515 479.755 184.568C480.424 185.588 481.475 186.049 482.909 185.951C484.406 185.849 485.403 185.343 485.902 184.432C486.432 183.519 486.625 182.065 486.482 180.07C486.3 177.545 485.9 175.458 485.28 173.809C484.658 172.128 483.668 170.567 482.312 169.125C480.984 167.649 479.155 165.957 476.824 164.048L468.932 157.538C463.039 152.708 459.852 146.943 459.371 140.241C458.867 133.228 460.104 127.772 463.082 123.873C466.092 119.972 470.683 117.812 476.857 117.392C484.402 116.878 489.893 118.525 493.331 122.331C496.8 126.136 498.829 132.137 499.418 140.334L482.675 141.474L482.269 135.817C482.188 134.694 481.798 133.844 481.098 133.265C480.43 132.684 479.55 132.431 478.459 132.505C477.15 132.594 476.21 133.034 475.64 133.825C475.099 134.582 474.87 135.537 474.953 136.69C475.036 137.844 475.437 139.069 476.157 140.367C476.877 141.665 478.219 143.124 480.184 144.744L490.333 153.215C492.365 154.894 494.248 156.692 495.984 158.609C497.717 160.496 499.163 162.747 500.323 165.362C501.479 167.945 502.196 171.154 502.471 174.988C503.026 182.718 502.028 188.878 499.475 193.468C496.951 198.025 492.151 200.544 485.073 201.026ZM545.911 177.199C541.265 177.515 537.56 176.311 534.795 173.586C532.028 170.83 530.476 167.099 530.137 162.393C529.797 157.655 530.801 153.749 533.149 150.677C535.498 147.604 538.995 145.909 543.64 145.593C548.286 145.277 551.991 146.481 554.756 149.206C557.552 151.929 559.12 155.659 559.46 160.397C559.798 165.103 558.779 169.01 556.401 172.116C554.053 175.188 550.556 176.883 545.911 177.199ZM611.901 192.393C605.322 192.841 600.145 191.205 596.369 187.484C592.621 183.729 590.478 178.096 589.938 170.585L587.13 131.498C586.624 124.453 587.955 118.991 591.123 115.111C594.322 111.228 599.241 109.061 605.882 108.609C612.523 108.157 617.689 109.638 621.381 113.051C625.104 116.463 627.218 121.69 627.724 128.735L630.532 167.821C631.072 175.333 629.739 181.203 626.533 185.43C623.357 189.625 618.48 191.945 611.901 192.393ZM610.953 177.235C613.447 177.065 614.521 174.565 614.174 169.734L611.289 129.571C610.998 125.519 609.636 123.576 607.204 123.742C604.461 123.928 603.238 126.095 603.536 130.24L606.417 170.356C606.601 172.911 607.045 174.729 607.749 175.809C608.451 176.857 609.519 177.333 610.953 177.235ZM637.498 189.899L639.537 107.07L667.457 105.17L681.178 186.926L665.605 187.986L663.482 174.787L653.567 175.462L653.492 188.81L637.498 189.899ZM653.793 162.245L661.275 161.735L654.668 120.135L653.92 120.186L653.793 162.245ZM706.789 185.934C699.275 186.446 693.716 184.945 690.111 181.432C686.538 177.916 684.457 172.075 683.871 163.909L683.293 155.867L699.568 154.759L700.307 165.045C700.443 166.947 700.831 168.424 701.471 169.476C702.14 170.496 703.191 170.957 704.625 170.859C706.122 170.757 707.119 170.251 707.618 169.34C708.147 168.427 708.341 166.973 708.197 164.978C708.016 162.453 707.615 160.366 706.996 158.717C706.374 157.037 705.384 155.475 704.027 154.033C702.699 152.557 700.87 150.865 698.54 148.956L690.647 142.446C684.755 137.616 681.568 131.851 681.086 125.149C680.583 118.136 681.82 112.68 684.798 108.782C687.808 104.881 692.399 102.72 698.572 102.3C706.117 101.786 711.609 103.433 715.046 107.239C718.515 111.044 720.544 117.045 721.133 125.242L704.391 126.382L703.984 120.725C703.904 119.603 703.514 118.752 702.814 118.173C702.146 117.592 701.266 117.339 700.175 117.413C698.865 117.503 697.926 117.942 697.356 118.733C696.815 119.49 696.586 120.445 696.669 121.599C696.752 122.752 697.153 123.977 697.873 125.275C698.593 126.573 699.935 128.032 701.9 129.653L712.049 138.123C714.08 139.802 715.964 141.6 717.7 143.518C719.433 145.404 720.879 147.655 722.038 150.27C723.195 152.853 723.911 156.062 724.187 159.896C724.742 167.626 723.743 173.786 721.191 178.376C718.667 182.933 713.866 185.453 706.789 185.934ZM731.638 183.491L725.726 101.203L741.627 100.121L747.538 182.409L731.638 183.491ZM774.646 181.316C767.132 181.827 761.573 180.326 757.968 176.813C754.394 173.297 752.314 167.456 751.728 159.29L751.15 151.248L767.425 150.14L768.164 160.426C768.3 162.328 768.688 163.805 769.328 164.858C769.996 165.877 771.048 166.338 772.482 166.24C773.978 166.138 774.976 165.632 775.474 164.721C776.004 163.808 776.197 162.354 776.054 160.359C775.873 157.834 775.472 155.747 774.852 154.098C774.23 152.418 773.241 150.856 771.884 149.414C770.556 147.938 768.727 146.246 766.397 144.337L758.504 137.827C752.612 132.998 749.425 127.232 748.943 120.53C748.439 113.517 749.677 108.061 752.655 104.163C755.664 100.262 760.256 98.1013 766.429 97.6811C773.974 97.1675 779.465 98.814 782.903 102.621C786.372 106.425 788.401 112.426 788.99 120.624L772.248 121.763L771.841 116.106C771.761 114.984 771.37 114.133 770.671 113.555C770.003 112.974 769.123 112.72 768.032 112.794C766.722 112.884 765.782 113.323 765.213 114.114C764.672 114.871 764.443 115.826 764.526 116.98C764.608 118.133 765.01 119.359 765.73 120.656C766.449 121.954 767.792 123.413 769.757 125.034L779.905 133.505C781.937 135.183 783.821 136.981 785.556 138.899C787.29 140.785 788.736 143.036 789.895 145.651C791.052 148.235 791.768 151.443 792.043 155.277C792.599 163.007 791.6 169.167 789.047 173.758C786.524 178.314 781.723 180.834 774.646 181.316ZM835.483 157.489C830.838 157.805 827.133 156.6 824.368 153.876C821.601 151.12 820.048 147.388 819.71 142.682C819.37 137.944 820.374 134.039 822.722 130.966C825.07 127.893 828.567 126.199 833.213 125.882C837.858 125.566 841.563 126.771 844.328 129.495C847.124 132.218 848.692 135.948 849.033 140.686C849.371 145.393 848.351 149.299 845.974 152.405C843.626 155.478 840.129 157.172 835.483 157.489ZM881.778 173.272L875.866 90.9836L898.174 89.4651C904.16 89.0577 908.615 90.2266 911.538 92.9719C914.49 95.6839 916.206 100.391 916.688 107.092L916.946 110.692C917.224 114.557 916.748 117.738 915.517 120.233C914.318 122.727 912.326 124.444 909.543 125.385C913.32 126.068 915.957 128.096 917.452 131.471C918.977 134.813 919.917 138.962 920.273 143.918C920.656 149.248 920.492 153.942 919.781 157.999C919.07 162.057 917.484 165.281 915.024 167.673C912.564 170.064 908.918 171.424 904.085 171.753L881.778 173.272ZM894.181 120.887L897.548 120.658C899.076 120.554 900.015 119.895 900.367 118.68C900.718 117.466 900.835 116.033 900.716 114.381L900.121 106.106C899.931 103.456 898.667 102.211 896.328 102.37L892.868 102.606L894.181 120.887ZM898.461 157.571C902.732 157.28 904.723 155.109 904.432 151.057L903.693 140.771C903.525 138.433 903.034 136.619 902.221 135.327C901.436 134.002 900.077 133.406 898.144 133.537L895.105 133.744L896.818 157.589C897.508 157.605 898.056 157.599 898.461 157.571ZM927.819 170.138L921.907 87.8497L937.808 86.7673L943.719 169.055L927.819 170.138ZM958.286 168.064L953.51 101.579L943.736 102.244L942.601 86.4411L978.611 83.9899L979.746 99.793L969.972 100.458L974.748 166.943L958.286 168.064ZM1009.67 165.318C1002.15 165.83 996.592 164.329 992.988 160.815C989.414 157.3 987.334 151.459 986.747 143.293L986.17 135.251L1002.44 134.143L1003.18 144.429C1003.32 146.33 1003.71 147.807 1004.35 148.86C1005.02 149.88 1006.07 150.341 1007.5 150.243C1009 150.141 1010 149.635 1010.49 148.724C1011.02 147.811 1011.22 146.357 1011.07 144.362C1010.89 141.837 1010.49 139.75 1009.87 138.101C1009.25 136.421 1008.26 134.859 1006.9 133.417C1005.58 131.941 1003.75 130.249 1001.42 128.34L993.524 121.83C987.631 117 984.445 111.235 983.963 104.533C983.459 97.52 984.697 92.064 987.675 88.1653C990.684 84.2644 995.276 82.1039 1001.45 81.6837C1008.99 81.1701 1014.49 82.8166 1017.92 86.6231C1021.39 90.4276 1023.42 96.4286 1024.01 104.626L1007.27 105.766L1006.86 100.109C1006.78 98.9864 1006.39 98.136 1005.69 97.5572C1005.02 96.9762 1004.14 96.7229 1003.05 96.7971C1001.74 96.8863 1000.8 97.3261 1000.23 98.1166C999.692 98.8738 999.463 99.8291 999.546 100.982C999.628 102.136 1000.03 103.361 1000.75 104.659C1001.47 105.957 1002.81 107.416 1004.78 109.036L1014.93 117.507C1016.96 119.186 1018.84 120.984 1020.58 122.901C1022.31 124.788 1023.76 127.039 1024.91 129.654C1026.07 132.237 1026.79 135.446 1027.06 139.28C1027.62 147.01 1026.62 153.17 1024.07 157.76C1021.54 162.317 1016.74 164.836 1009.67 165.318ZM1058.67 161.231L1052.76 78.943L1074.5 77.4627C1079.06 77.1529 1082.73 77.9208 1085.53 79.7664C1088.35 81.6099 1090.48 84.3626 1091.9 88.0245C1093.32 91.6863 1094.22 96.1043 1094.59 101.278C1094.95 106.266 1094.78 110.647 1094.08 114.422C1093.37 118.165 1091.85 121.135 1089.5 123.331C1087.18 125.525 1083.75 126.777 1079.2 127.086L1072.51 127.542L1074.85 160.129L1058.67 161.231ZM1071.45 112.767L1072.38 112.703C1075.44 112.496 1077.25 111.511 1077.81 109.75C1078.37 107.989 1078.53 105.441 1078.29 102.106C1078.07 98.9888 1077.56 96.612 1076.75 94.9756C1075.97 93.3058 1074.33 92.5558 1071.84 92.7256L1070.02 92.8497L1071.45 112.767ZM1104.15 158.135L1098.24 75.8473L1114.14 74.7649L1120.05 157.053L1104.15 158.135ZM1127.55 156.542L1121.64 74.2541L1138.1 73.1335L1143.01 141.395L1159.94 140.243L1160.95 154.269L1127.55 156.542ZM1164.34 154.038L1166.37 71.2093L1194.29 69.3088L1208.02 151.065L1192.44 152.125L1190.32 138.927L1180.4 139.601L1180.33 152.95L1164.34 154.038ZM1180.63 126.384L1188.11 125.874L1181.51 84.2743L1180.76 84.3252L1180.63 126.384ZM1214.02 150.656L1208.11 68.3682L1225.04 67.2159L1235.45 106.114L1232.62 66.7002L1248.52 65.6178L1254.43 147.906L1238.34 149.001L1227.16 108.417L1230.11 149.561L1214.02 150.656ZM1261.94 147.395L1256.02 65.107L1271.92 64.0246L1277.84 146.313L1261.94 147.395ZM1320.58 124.469C1315.94 124.785 1312.23 123.581 1309.47 120.856C1306.7 118.1 1305.15 114.369 1304.81 109.662C1304.47 104.924 1305.47 101.019 1307.82 97.9462C1310.17 94.8734 1313.67 93.1789 1318.31 92.8627C1322.96 92.5465 1326.66 93.7508 1329.43 96.4755C1332.22 99.1982 1333.79 102.928 1334.13 107.666C1334.47 112.373 1333.45 116.279 1331.07 119.385C1328.72 122.458 1325.23 124.153 1320.58 124.469ZM1366.88 140.252L1360.97 57.9638L1383.6 56.4231C1389.52 56.0199 1394.1 57.3684 1397.33 60.4687C1400.56 63.5377 1402.4 68.236 1402.86 74.5634L1405.62 113.089C1406.18 120.882 1405.24 126.991 1402.8 131.417C1400.4 135.84 1395.78 138.284 1388.95 138.749L1366.88 140.252ZM1382.39 124.584L1385.24 124.39C1388.26 124.184 1389.67 122.616 1389.46 119.686L1386.41 77.2332C1386.21 74.4903 1385.71 72.7547 1384.91 72.0264C1384.13 71.2648 1382.62 70.9604 1380.38 71.1132L1378.56 71.2373L1382.39 124.584ZM1422.64 136.456L1406.58 54.8118L1422.25 53.7454L1432.31 109.347L1433.66 52.9687L1449.33 51.9023L1445.09 134.928L1422.64 136.456ZM1461.02 133.844L1455.1 51.5559L1480.17 49.8497L1490.7 99.5461L1493.97 48.9106L1519.27 47.1884L1525.18 129.476L1510.12 130.501L1505.86 71.2167L1500.67 131.144L1485.9 132.15L1471.63 73.5469L1475.89 132.832L1461.02 133.844ZM1568.67 107.582C1564.03 107.898 1560.32 106.694 1557.56 103.969C1554.79 101.213 1553.24 97.4816 1552.9 92.775C1552.56 88.0372 1553.56 84.1319 1555.91 81.0591C1558.26 77.9863 1561.76 76.2918 1566.4 75.9756C1571.05 75.6593 1574.75 76.8636 1577.52 79.5884C1580.32 82.311 1581.88 86.0412 1582.22 90.779C1582.56 95.4856 1581.54 99.392 1579.16 102.498C1576.82 105.571 1573.32 107.265 1568.67 107.582ZM1614.97 123.365L1609.06 41.0767L1634.12 39.3704L1644.65 89.0669L1647.92 38.4313L1673.22 36.7092L1679.13 118.997L1664.07 120.022L1659.82 60.7374L1654.63 120.665L1639.85 121.671L1625.58 63.0676L1629.84 122.352L1614.97 123.365ZM1686.64 118.486L1680.73 36.1983L1696.63 35.116L1702.54 117.404L1686.64 118.486ZM1710.04 116.893L1704.13 34.6051L1726.77 33.0644C1732.69 32.6612 1737.27 34.0097 1740.5 37.1099C1743.73 40.179 1745.57 44.8773 1746.02 51.2047L1748.79 89.7305C1749.35 97.5229 1748.41 103.632 1745.97 108.058C1743.56 112.482 1738.95 114.926 1732.12 115.391L1710.04 116.893ZM1725.55 101.226L1728.41 101.031C1731.43 100.825 1732.84 99.2576 1732.63 96.3276L1729.58 53.8745C1729.38 51.1316 1728.88 49.396 1728.08 48.6677C1727.3 47.9061 1725.79 47.6017 1723.55 47.7545L1721.72 47.8786L1725.55 101.226ZM1758.24 113.613L1752.32 31.3248L1769.25 30.1724L1779.66 69.0707L1776.83 29.6567L1792.73 28.5744L1798.64 110.862L1782.55 111.957L1771.37 71.3737L1774.32 112.518L1758.24 113.613ZM1806.15 110.351L1800.24 28.0635L1816.14 26.9812L1822.05 109.269L1806.15 110.351ZM1846.58 108.351C1834.83 109.151 1828.35 101.135 1827.14 84.3034L1824.59 48.8168C1823.49 33.4501 1829.67 25.3084 1843.14 24.3916C1848.69 24.0138 1853.02 24.8463 1856.15 26.8889C1859.27 28.9003 1861.54 32.0029 1862.97 36.1968C1864.4 40.3906 1865.34 45.5578 1865.78 51.6982L1849.69 52.7933L1849.16 45.4996C1849.04 43.7229 1848.68 42.2593 1848.1 41.1088C1847.54 39.925 1846.5 39.3851 1844.97 39.4891C1843.07 39.6186 1841.85 40.3435 1841.32 41.6639C1840.82 42.9822 1840.63 44.405 1840.74 45.9323L1843.6 85.8139C1843.76 88.027 1844.17 89.8157 1844.83 91.1801C1845.52 92.5113 1846.71 93.1195 1848.39 93.0049C1850.14 92.8861 1851.25 92.1218 1851.71 90.7122C1852.2 89.2692 1852.36 87.41 1852.2 85.1347L1851.36 73.3993L1846.96 73.6985L1845.94 59.4851L1866.05 58.1163L1869.49 106.04L1862.9 106.489L1859.6 99.7599C1857.09 105.067 1852.76 107.931 1846.58 108.351ZM1877 105.529L1871.09 23.2409L1887.45 22.1267L1889.57 51.5353L1897.33 51.0069L1895.22 21.5983L1911.59 20.4841L1917.5 102.772L1901.13 103.886L1898.45 66.5761L1890.69 67.1046L1893.37 104.415L1877 105.529ZM1932.81 101.73L1928.04 35.2447L1918.26 35.91L1917.13 20.107L1953.14 17.6558L1954.27 33.4588L1944.5 34.1241L1949.27 100.609L1932.81 101.73Z" fill="black"/>
</svg>
